%TF.GenerationSoftware,KiCad,Pcbnew,9.0.4*%
%TF.CreationDate,2025-10-01T15:50:43-05:00*%
%TF.ProjectId,Chess_Electronics,43686573-735f-4456-9c65-6374726f6e69,rev?*%
%TF.SameCoordinates,Original*%
%TF.FileFunction,Copper,L4,Bot*%
%TF.FilePolarity,Positive*%
%FSLAX46Y46*%
G04 Gerber Fmt 4.6, Leading zero omitted, Abs format (unit mm)*
G04 Created by KiCad (PCBNEW 9.0.4) date 2025-10-01 15:50:43*
%MOMM*%
%LPD*%
G01*
G04 APERTURE LIST*
%TA.AperFunction,ComponentPad*%
%ADD10C,1.600000*%
%TD*%
%TA.AperFunction,ComponentPad*%
%ADD11R,1.295400X1.295400*%
%TD*%
%TA.AperFunction,ComponentPad*%
%ADD12C,1.295400*%
%TD*%
%TA.AperFunction,ComponentPad*%
%ADD13R,2.100000X2.100000*%
%TD*%
%TA.AperFunction,ComponentPad*%
%ADD14C,2.100000*%
%TD*%
%TA.AperFunction,ComponentPad*%
%ADD15O,2.250000X4.500000*%
%TD*%
%TA.AperFunction,ComponentPad*%
%ADD16R,1.700000X1.700000*%
%TD*%
%TA.AperFunction,ComponentPad*%
%ADD17C,1.700000*%
%TD*%
%TA.AperFunction,ViaPad*%
%ADD18C,0.600000*%
%TD*%
%TA.AperFunction,Conductor*%
%ADD19C,0.200000*%
%TD*%
G04 APERTURE END LIST*
D10*
%TO.P,C57,1*%
%TO.N,Net-(U7-Y0)*%
X105190000Y-115840000D03*
%TO.P,C57,2*%
%TO.N,Net-(J7-Pin_1)*%
X97690000Y-115840000D03*
%TD*%
D11*
%TO.P,U1,1,Y4*%
%TO.N,Net-(U1-Y4)*%
X195070000Y-46700000D03*
D12*
%TO.P,U1,2,Y6*%
%TO.N,Net-(U1-Y6)*%
X195070000Y-49240000D03*
%TO.P,U1,3,COM*%
%TO.N,Common*%
X195070000Y-51780000D03*
%TO.P,U1,4,Y7*%
%TO.N,Net-(U1-Y7)*%
X195070000Y-54320000D03*
%TO.P,U1,5,Y5*%
%TO.N,Net-(U1-Y5)*%
X195070000Y-56860000D03*
%TO.P,U1,6,INH*%
%TO.N,Mux1 INH*%
X195070000Y-59400000D03*
%TO.P,U1,7,GND*%
%TO.N,unconnected-(U1-GND-Pad7)*%
X195070000Y-61940000D03*
%TO.P,U1,8,GND*%
%TO.N,GND*%
X195070000Y-64480000D03*
%TO.P,U1,9,C*%
%TO.N,C*%
X202690000Y-64480000D03*
%TO.P,U1,10,B*%
%TO.N,B*%
X202690000Y-61940000D03*
%TO.P,U1,11,A*%
%TO.N,A*%
X202690000Y-59400000D03*
%TO.P,U1,12,Y3*%
%TO.N,Net-(U1-Y3)*%
X202690000Y-56860000D03*
%TO.P,U1,13,Y0*%
%TO.N,Net-(U1-Y0)*%
X202690000Y-54320000D03*
%TO.P,U1,14,Y1*%
%TO.N,Net-(U1-Y1)*%
X202690000Y-51780000D03*
%TO.P,U1,15,Y2*%
%TO.N,Net-(U1-Y2)*%
X202690000Y-49240000D03*
%TO.P,U1,16,VCC*%
%TO.N,+5V*%
X202690000Y-46700000D03*
%TD*%
D10*
%TO.P,C62,1*%
%TO.N,Net-(U8-Y3)*%
X62690000Y-124140000D03*
%TO.P,C62,2*%
%TO.N,Net-(J8-Pin_7)*%
X55190000Y-124140000D03*
%TD*%
%TO.P,C23,1*%
%TO.N,Net-(U3-Y2)*%
X103190000Y-46540000D03*
%TO.P,C23,2*%
%TO.N,Net-(J3-Pin_5)*%
X95690000Y-46540000D03*
%TD*%
D11*
%TO.P,U2,1,Y4*%
%TO.N,Net-(U2-Y4)*%
X151070000Y-43540000D03*
D12*
%TO.P,U2,2,Y6*%
%TO.N,Net-(U2-Y6)*%
X151070000Y-46080000D03*
%TO.P,U2,3,COM*%
%TO.N,Common*%
X151070000Y-48620000D03*
%TO.P,U2,4,Y7*%
%TO.N,Net-(U2-Y7)*%
X151070000Y-51160000D03*
%TO.P,U2,5,Y5*%
%TO.N,Net-(U2-Y5)*%
X151070000Y-53700000D03*
%TO.P,U2,6,INH*%
%TO.N,Mux2 INH*%
X151070000Y-56240000D03*
%TO.P,U2,7,GND*%
%TO.N,unconnected-(U2-GND-Pad7)*%
X151070000Y-58780000D03*
%TO.P,U2,8,GND*%
%TO.N,GND*%
X151070000Y-61320000D03*
%TO.P,U2,9,C*%
%TO.N,C*%
X158690000Y-61320000D03*
%TO.P,U2,10,B*%
%TO.N,B*%
X158690000Y-58780000D03*
%TO.P,U2,11,A*%
%TO.N,A*%
X158690000Y-56240000D03*
%TO.P,U2,12,Y3*%
%TO.N,Net-(U2-Y3)*%
X158690000Y-53700000D03*
%TO.P,U2,13,Y0*%
%TO.N,Net-(U2-Y0)*%
X158690000Y-51160000D03*
%TO.P,U2,14,Y1*%
%TO.N,Net-(U2-Y1)*%
X158690000Y-48620000D03*
%TO.P,U2,15,Y2*%
%TO.N,Net-(U2-Y2)*%
X158690000Y-46080000D03*
%TO.P,U2,16,VCC*%
%TO.N,+5V*%
X158690000Y-43540000D03*
%TD*%
D10*
%TO.P,C60,1*%
%TO.N,Net-(U8-Y5)*%
X62690000Y-132440000D03*
%TO.P,C60,2*%
%TO.N,Net-(J8-Pin_11)*%
X55190000Y-132440000D03*
%TD*%
%TO.P,C26,1*%
%TO.N,Net-(U4-Y7)*%
X59500000Y-55350000D03*
%TO.P,C26,2*%
%TO.N,Net-(J4-Pin_15)*%
X52000000Y-55350000D03*
%TD*%
%TO.P,C2,1*%
%TO.N,Net-(U1-Y0)*%
X189190000Y-71140000D03*
%TO.P,C2,2*%
%TO.N,Net-(J1-Pin_1)*%
X181690000Y-71140000D03*
%TD*%
%TO.P,C45,1*%
%TO.N,Net-(U6-Y4)*%
X147690000Y-136300000D03*
%TO.P,C45,2*%
%TO.N,Net-(J6-Pin_9)*%
X140190000Y-136300000D03*
%TD*%
%TO.P,C27,1*%
%TO.N,Net-(U4-Y6)*%
X59500000Y-51200000D03*
%TO.P,C27,2*%
%TO.N,Net-(J4-Pin_13)*%
X52000000Y-51200000D03*
%TD*%
%TO.P,C61,1*%
%TO.N,Net-(U8-Y4)*%
X62690000Y-128290000D03*
%TO.P,C61,2*%
%TO.N,Net-(J8-Pin_9)*%
X55190000Y-128290000D03*
%TD*%
%TO.P,C54,1*%
%TO.N,Net-(U7-Y3)*%
X105190000Y-128640000D03*
%TO.P,C54,2*%
%TO.N,Net-(J7-Pin_7)*%
X97690000Y-128640000D03*
%TD*%
%TO.P,C40,1*%
%TO.N,Net-(U5-Y1)*%
X188190000Y-118650000D03*
%TO.P,C40,2*%
%TO.N,Net-(J5-Pin_3)*%
X180690000Y-118650000D03*
%TD*%
%TO.P,C44,1*%
%TO.N,Net-(U6-Y5)*%
X147690000Y-140450000D03*
%TO.P,C44,2*%
%TO.N,Net-(J6-Pin_11)*%
X140190000Y-140450000D03*
%TD*%
%TO.P,C64,1*%
%TO.N,Net-(U8-Y1)*%
X62690000Y-115840000D03*
%TO.P,C64,2*%
%TO.N,Net-(J8-Pin_3)*%
X55190000Y-115840000D03*
%TD*%
%TO.P,C59,1*%
%TO.N,Net-(U8-Y6)*%
X62690000Y-136590000D03*
%TO.P,C59,2*%
%TO.N,Net-(J8-Pin_13)*%
X55190000Y-136590000D03*
%TD*%
D13*
%TO.P,J1,1,Pin_1*%
%TO.N,Net-(J1-Pin_1)*%
X170190000Y-91740000D03*
D14*
%TO.P,J1,2,Pin_2*%
%TO.N,GND*%
X170190000Y-86740000D03*
%TO.P,J1,3,Pin_3*%
%TO.N,Net-(J1-Pin_3)*%
X170190000Y-81740000D03*
%TO.P,J1,4,Pin_4*%
%TO.N,GND*%
X170190000Y-76740000D03*
%TO.P,J1,5,Pin_5*%
%TO.N,Net-(J1-Pin_5)*%
X170190000Y-71740000D03*
%TO.P,J1,6,Pin_6*%
%TO.N,GND*%
X170190000Y-66740000D03*
%TO.P,J1,7,Pin_7*%
%TO.N,Net-(J1-Pin_7)*%
X170190000Y-61740000D03*
%TO.P,J1,8,Pin_8*%
%TO.N,GND*%
X170190000Y-56740000D03*
%TO.P,J1,9,Pin_9*%
%TO.N,Net-(J1-Pin_9)*%
X170190000Y-51740000D03*
%TO.P,J1,10,Pin_10*%
%TO.N,GND*%
X170190000Y-46740000D03*
%TO.P,J1,11,Pin_11*%
%TO.N,Net-(J1-Pin_11)*%
X170190000Y-41740000D03*
%TO.P,J1,12,Pin_12*%
%TO.N,GND*%
X170190000Y-36740000D03*
%TO.P,J1,13,Pin_13*%
%TO.N,Net-(J1-Pin_13)*%
X170190000Y-31740000D03*
%TO.P,J1,14,Pin_14*%
%TO.N,GND*%
X170190000Y-26740000D03*
%TO.P,J1,15,Pin_15*%
%TO.N,Net-(J1-Pin_15)*%
X170190000Y-21740000D03*
%TO.P,J1,16,Pin_16*%
%TO.N,GND*%
X170190000Y-16740000D03*
%TD*%
D10*
%TO.P,C41,1*%
%TO.N,Net-(U5-Y0)*%
X188190000Y-114500000D03*
%TO.P,C41,2*%
%TO.N,Net-(J5-Pin_1)*%
X180690000Y-114500000D03*
%TD*%
D13*
%TO.P,J2,1,Pin_1*%
%TO.N,Net-(J2-Pin_1)*%
X127690000Y-15240000D03*
D14*
%TO.P,J2,2,Pin_2*%
%TO.N,GND*%
X127690000Y-20240000D03*
%TO.P,J2,3,Pin_3*%
%TO.N,Net-(J2-Pin_3)*%
X127690000Y-25240000D03*
%TO.P,J2,4,Pin_4*%
%TO.N,GND*%
X127690000Y-30240000D03*
%TO.P,J2,5,Pin_5*%
%TO.N,Net-(J2-Pin_5)*%
X127690000Y-35240000D03*
%TO.P,J2,6,Pin_6*%
%TO.N,GND*%
X127690000Y-40240000D03*
%TO.P,J2,7,Pin_7*%
%TO.N,Net-(J2-Pin_7)*%
X127690000Y-45240000D03*
%TO.P,J2,8,Pin_8*%
%TO.N,GND*%
X127690000Y-50240000D03*
%TO.P,J2,9,Pin_9*%
%TO.N,Net-(J2-Pin_9)*%
X127690000Y-55240000D03*
%TO.P,J2,10,Pin_10*%
%TO.N,GND*%
X127690000Y-60240000D03*
%TO.P,J2,11,Pin_11*%
%TO.N,Net-(J2-Pin_11)*%
X127690000Y-65240000D03*
%TO.P,J2,12,Pin_12*%
%TO.N,GND*%
X127690000Y-70240000D03*
%TO.P,J2,13,Pin_13*%
%TO.N,Net-(J2-Pin_13)*%
X127690000Y-75240000D03*
%TO.P,J2,14,Pin_14*%
%TO.N,GND*%
X127690000Y-80240000D03*
%TO.P,J2,15,Pin_15*%
%TO.N,Net-(J2-Pin_15)*%
X127690000Y-85240000D03*
%TO.P,J2,16,Pin_16*%
%TO.N,GND*%
X127690000Y-90240000D03*
%TD*%
D10*
%TO.P,C16,1*%
%TO.N,Net-(U2-Y1)*%
X144690000Y-41890000D03*
%TO.P,C16,2*%
%TO.N,Net-(J2-Pin_3)*%
X137190000Y-41890000D03*
%TD*%
%TO.P,C6,1*%
%TO.N,Net-(U1-Y4)*%
X189190000Y-54540000D03*
%TO.P,C6,2*%
%TO.N,Net-(J1-Pin_9)*%
X181690000Y-54540000D03*
%TD*%
D11*
%TO.P,U6,1,Y4*%
%TO.N,Net-(U6-Y4)*%
X153570000Y-122700000D03*
D12*
%TO.P,U6,2,Y6*%
%TO.N,Net-(U6-Y6)*%
X153570000Y-125240000D03*
%TO.P,U6,3,COM*%
%TO.N,Common*%
X153570000Y-127780000D03*
%TO.P,U6,4,Y7*%
%TO.N,Net-(U6-Y7)*%
X153570000Y-130320000D03*
%TO.P,U6,5,Y5*%
%TO.N,Net-(U6-Y5)*%
X153570000Y-132860000D03*
%TO.P,U6,6,INH*%
%TO.N,Mux6 INH*%
X153570000Y-135400000D03*
%TO.P,U6,7,GND*%
%TO.N,unconnected-(U6-GND-Pad7)*%
X153570000Y-137940000D03*
%TO.P,U6,8,GND*%
%TO.N,GND*%
X153570000Y-140480000D03*
%TO.P,U6,9,C*%
%TO.N,C*%
X161190000Y-140480000D03*
%TO.P,U6,10,B*%
%TO.N,B*%
X161190000Y-137940000D03*
%TO.P,U6,11,A*%
%TO.N,A*%
X161190000Y-135400000D03*
%TO.P,U6,12,Y3*%
%TO.N,Net-(U6-Y3)*%
X161190000Y-132860000D03*
%TO.P,U6,13,Y0*%
%TO.N,Net-(U6-Y0)*%
X161190000Y-130320000D03*
%TO.P,U6,14,Y1*%
%TO.N,Net-(U6-Y1)*%
X161190000Y-127780000D03*
%TO.P,U6,15,Y2*%
%TO.N,Net-(U6-Y2)*%
X161190000Y-125240000D03*
%TO.P,U6,16,VCC*%
%TO.N,+5V*%
X161190000Y-122700000D03*
%TD*%
D10*
%TO.P,C21,1*%
%TO.N,Net-(U3-Y4)*%
X103190000Y-54840000D03*
%TO.P,C21,2*%
%TO.N,Net-(J3-Pin_9)*%
X95690000Y-54840000D03*
%TD*%
%TO.P,C24,1*%
%TO.N,Net-(U3-Y1)*%
X103190000Y-42390000D03*
%TO.P,C24,2*%
%TO.N,Net-(J3-Pin_3)*%
X95690000Y-42390000D03*
%TD*%
%TO.P,C14,1*%
%TO.N,Net-(U2-Y3)*%
X144690000Y-49940000D03*
%TO.P,C14,2*%
%TO.N,Net-(J2-Pin_7)*%
X137190000Y-49940000D03*
%TD*%
%TO.P,C17,1*%
%TO.N,Net-(U2-Y0)*%
X144690000Y-37740000D03*
%TO.P,C17,2*%
%TO.N,Net-(J2-Pin_1)*%
X137190000Y-37740000D03*
%TD*%
D15*
%TO.P,J9,1*%
%TO.N,+5V*%
X234200000Y-99500000D03*
%TO.P,J9,2*%
%TO.N,GND*%
X240500000Y-99500000D03*
%TD*%
D10*
%TO.P,C28,1*%
%TO.N,Net-(U4-Y5)*%
X59500000Y-47050000D03*
%TO.P,C28,2*%
%TO.N,Net-(J4-Pin_11)*%
X52000000Y-47050000D03*
%TD*%
%TO.P,C36,1*%
%TO.N,Net-(U5-Y5)*%
X188190000Y-135250000D03*
%TO.P,C36,2*%
%TO.N,Net-(J5-Pin_11)*%
X180690000Y-135250000D03*
%TD*%
%TO.P,C20,1*%
%TO.N,Net-(U3-Y5)*%
X103190000Y-58990000D03*
%TO.P,C20,2*%
%TO.N,Net-(J3-Pin_11)*%
X95690000Y-58990000D03*
%TD*%
%TO.P,C38,1*%
%TO.N,Net-(U5-Y3)*%
X188190000Y-126950000D03*
%TO.P,C38,2*%
%TO.N,Net-(J5-Pin_7)*%
X180690000Y-126950000D03*
%TD*%
%TO.P,C63,1*%
%TO.N,Net-(U8-Y2)*%
X62690000Y-119990000D03*
%TO.P,C63,2*%
%TO.N,Net-(J8-Pin_5)*%
X55190000Y-119990000D03*
%TD*%
D11*
%TO.P,U5,1,Y4*%
%TO.N,Net-(U5-Y4)*%
X194190000Y-118660000D03*
D12*
%TO.P,U5,2,Y6*%
%TO.N,Net-(U5-Y6)*%
X194190000Y-121200000D03*
%TO.P,U5,3,COM*%
%TO.N,Common*%
X194190000Y-123740000D03*
%TO.P,U5,4,Y7*%
%TO.N,Net-(U5-Y7)*%
X194190000Y-126280000D03*
%TO.P,U5,5,Y5*%
%TO.N,Net-(U5-Y5)*%
X194190000Y-128820000D03*
%TO.P,U5,6,INH*%
%TO.N,Mux5 INH*%
X194190000Y-131360000D03*
%TO.P,U5,7,GND*%
%TO.N,unconnected-(U5-GND-Pad7)*%
X194190000Y-133900000D03*
%TO.P,U5,8,GND*%
%TO.N,GND*%
X194190000Y-136440000D03*
%TO.P,U5,9,C*%
%TO.N,C*%
X201810000Y-136440000D03*
%TO.P,U5,10,B*%
%TO.N,B*%
X201810000Y-133900000D03*
%TO.P,U5,11,A*%
%TO.N,A*%
X201810000Y-131360000D03*
%TO.P,U5,12,Y3*%
%TO.N,Net-(U5-Y3)*%
X201810000Y-128820000D03*
%TO.P,U5,13,Y0*%
%TO.N,Net-(U5-Y0)*%
X201810000Y-126280000D03*
%TO.P,U5,14,Y1*%
%TO.N,Net-(U5-Y1)*%
X201810000Y-123740000D03*
%TO.P,U5,15,Y2*%
%TO.N,Net-(U5-Y2)*%
X201810000Y-121200000D03*
%TO.P,U5,16,VCC*%
%TO.N,+5V*%
X201810000Y-118660000D03*
%TD*%
D10*
%TO.P,C10,1*%
%TO.N,Net-(U2-Y7)*%
X144690000Y-66540000D03*
%TO.P,C10,2*%
%TO.N,Net-(J2-Pin_15)*%
X137190000Y-66540000D03*
%TD*%
%TO.P,C55,1*%
%TO.N,Net-(U7-Y2)*%
X105190000Y-124490000D03*
%TO.P,C55,2*%
%TO.N,Net-(J7-Pin_5)*%
X97690000Y-124490000D03*
%TD*%
%TO.P,C34,1*%
%TO.N,Net-(U5-Y7)*%
X188190000Y-143550000D03*
%TO.P,C34,2*%
%TO.N,Net-(J5-Pin_15)*%
X180690000Y-143550000D03*
%TD*%
D13*
%TO.P,J6,1,Pin_1*%
%TO.N,Net-(J6-Pin_1)*%
X128190000Y-100700000D03*
D14*
%TO.P,J6,2,Pin_2*%
%TO.N,GND*%
X128190000Y-105700000D03*
%TO.P,J6,3,Pin_3*%
%TO.N,Net-(J6-Pin_3)*%
X128190000Y-110700000D03*
%TO.P,J6,4,Pin_4*%
%TO.N,GND*%
X128190000Y-115700000D03*
%TO.P,J6,5,Pin_5*%
%TO.N,Net-(J6-Pin_5)*%
X128190000Y-120700000D03*
%TO.P,J6,6,Pin_6*%
%TO.N,GND*%
X128190000Y-125700000D03*
%TO.P,J6,7,Pin_7*%
%TO.N,Net-(J6-Pin_7)*%
X128190000Y-130700000D03*
%TO.P,J6,8,Pin_8*%
%TO.N,GND*%
X128190000Y-135700000D03*
%TO.P,J6,9,Pin_9*%
%TO.N,Net-(J6-Pin_9)*%
X128190000Y-140700000D03*
%TO.P,J6,10,Pin_10*%
%TO.N,GND*%
X128190000Y-145700000D03*
%TO.P,J6,11,Pin_11*%
%TO.N,Net-(J6-Pin_11)*%
X128190000Y-150700000D03*
%TO.P,J6,12,Pin_12*%
%TO.N,GND*%
X128190000Y-155700000D03*
%TO.P,J6,13,Pin_13*%
%TO.N,Net-(J6-Pin_13)*%
X128190000Y-160700000D03*
%TO.P,J6,14,Pin_14*%
%TO.N,GND*%
X128190000Y-165700000D03*
%TO.P,J6,15,Pin_15*%
%TO.N,Net-(J6-Pin_15)*%
X128190000Y-170700000D03*
%TO.P,J6,16,Pin_16*%
%TO.N,GND*%
X128190000Y-175700000D03*
%TD*%
D10*
%TO.P,C35,1*%
%TO.N,Net-(U5-Y6)*%
X188190000Y-139400000D03*
%TO.P,C35,2*%
%TO.N,Net-(J5-Pin_13)*%
X180690000Y-139400000D03*
%TD*%
%TO.P,C47,1*%
%TO.N,Net-(U6-Y2)*%
X147690000Y-128000000D03*
%TO.P,C47,2*%
%TO.N,Net-(J6-Pin_5)*%
X140190000Y-128000000D03*
%TD*%
D11*
%TO.P,U3,1,Y4*%
%TO.N,Net-(U3-Y4)*%
X109190000Y-43240000D03*
D12*
%TO.P,U3,2,Y6*%
%TO.N,Net-(U3-Y6)*%
X109190000Y-45780000D03*
%TO.P,U3,3,COM*%
%TO.N,Common*%
X109190000Y-48320000D03*
%TO.P,U3,4,Y7*%
%TO.N,Net-(U3-Y7)*%
X109190000Y-50860000D03*
%TO.P,U3,5,Y5*%
%TO.N,Net-(U3-Y5)*%
X109190000Y-53400000D03*
%TO.P,U3,6,INH*%
%TO.N,Mux3 INH*%
X109190000Y-55940000D03*
%TO.P,U3,7,GND*%
%TO.N,unconnected-(U3-GND-Pad7)*%
X109190000Y-58480000D03*
%TO.P,U3,8,GND*%
%TO.N,GND*%
X109190000Y-61020000D03*
%TO.P,U3,9,C*%
%TO.N,C*%
X116810000Y-61020000D03*
%TO.P,U3,10,B*%
%TO.N,B*%
X116810000Y-58480000D03*
%TO.P,U3,11,A*%
%TO.N,A*%
X116810000Y-55940000D03*
%TO.P,U3,12,Y3*%
%TO.N,Net-(U3-Y3)*%
X116810000Y-53400000D03*
%TO.P,U3,13,Y0*%
%TO.N,Net-(U3-Y0)*%
X116810000Y-50860000D03*
%TO.P,U3,14,Y1*%
%TO.N,Net-(U3-Y1)*%
X116810000Y-48320000D03*
%TO.P,U3,15,Y2*%
%TO.N,Net-(U3-Y2)*%
X116810000Y-45780000D03*
%TO.P,U3,16,VCC*%
%TO.N,+5V*%
X116810000Y-43240000D03*
%TD*%
D10*
%TO.P,C31,1*%
%TO.N,Net-(U4-Y2)*%
X59500000Y-34650000D03*
%TO.P,C31,2*%
%TO.N,Net-(J4-Pin_5)*%
X52000000Y-34650000D03*
%TD*%
%TO.P,C18,1*%
%TO.N,Net-(U3-Y7)*%
X103190000Y-67290000D03*
%TO.P,C18,2*%
%TO.N,Net-(J3-Pin_15)*%
X95690000Y-67290000D03*
%TD*%
D13*
%TO.P,J8,1,Pin_1*%
%TO.N,Net-(J8-Pin_1)*%
X40190000Y-100740000D03*
D14*
%TO.P,J8,2,Pin_2*%
%TO.N,GND*%
X40190000Y-105740000D03*
%TO.P,J8,3,Pin_3*%
%TO.N,Net-(J8-Pin_3)*%
X40190000Y-110740000D03*
%TO.P,J8,4,Pin_4*%
%TO.N,GND*%
X40190000Y-115740000D03*
%TO.P,J8,5,Pin_5*%
%TO.N,Net-(J8-Pin_5)*%
X40190000Y-120740000D03*
%TO.P,J8,6,Pin_6*%
%TO.N,GND*%
X40190000Y-125740000D03*
%TO.P,J8,7,Pin_7*%
%TO.N,Net-(J8-Pin_7)*%
X40190000Y-130740000D03*
%TO.P,J8,8,Pin_8*%
%TO.N,GND*%
X40190000Y-135740000D03*
%TO.P,J8,9,Pin_9*%
%TO.N,Net-(J8-Pin_9)*%
X40190000Y-140740000D03*
%TO.P,J8,10,Pin_10*%
%TO.N,GND*%
X40190000Y-145740000D03*
%TO.P,J8,11,Pin_11*%
%TO.N,Net-(J8-Pin_11)*%
X40190000Y-150740000D03*
%TO.P,J8,12,Pin_12*%
%TO.N,GND*%
X40190000Y-155740000D03*
%TO.P,J8,13,Pin_13*%
%TO.N,Net-(J8-Pin_13)*%
X40190000Y-160740000D03*
%TO.P,J8,14,Pin_14*%
%TO.N,GND*%
X40190000Y-165740000D03*
%TO.P,J8,15,Pin_15*%
%TO.N,Net-(J8-Pin_15)*%
X40190000Y-170740000D03*
%TO.P,J8,16,Pin_16*%
%TO.N,GND*%
X40190000Y-175740000D03*
%TD*%
D13*
%TO.P,J5,1,Pin_1*%
%TO.N,Net-(J5-Pin_1)*%
X171000000Y-100000000D03*
D14*
%TO.P,J5,2,Pin_2*%
%TO.N,GND*%
X171000000Y-105000000D03*
%TO.P,J5,3,Pin_3*%
%TO.N,Net-(J5-Pin_3)*%
X171000000Y-110000000D03*
%TO.P,J5,4,Pin_4*%
%TO.N,GND*%
X171000000Y-115000000D03*
%TO.P,J5,5,Pin_5*%
%TO.N,Net-(J5-Pin_5)*%
X171000000Y-120000000D03*
%TO.P,J5,6,Pin_6*%
%TO.N,GND*%
X171000000Y-125000000D03*
%TO.P,J5,7,Pin_7*%
%TO.N,Net-(J5-Pin_7)*%
X171000000Y-130000000D03*
%TO.P,J5,8,Pin_8*%
%TO.N,GND*%
X171000000Y-135000000D03*
%TO.P,J5,9,Pin_9*%
%TO.N,Net-(J5-Pin_9)*%
X171000000Y-140000000D03*
%TO.P,J5,10,Pin_10*%
%TO.N,GND*%
X171000000Y-145000000D03*
%TO.P,J5,11,Pin_11*%
%TO.N,Net-(J5-Pin_11)*%
X171000000Y-150000000D03*
%TO.P,J5,12,Pin_12*%
%TO.N,GND*%
X171000000Y-155000000D03*
%TO.P,J5,13,Pin_13*%
%TO.N,Net-(J5-Pin_13)*%
X171000000Y-160000000D03*
%TO.P,J5,14,Pin_14*%
%TO.N,GND*%
X171000000Y-165000000D03*
%TO.P,J5,15,Pin_15*%
%TO.N,Net-(J5-Pin_15)*%
X171000000Y-170000000D03*
%TO.P,J5,16,Pin_16*%
%TO.N,GND*%
X171000000Y-175000000D03*
%TD*%
D10*
%TO.P,C53,1*%
%TO.N,Net-(U7-Y4)*%
X105190000Y-132790000D03*
%TO.P,C53,2*%
%TO.N,Net-(J7-Pin_9)*%
X97690000Y-132790000D03*
%TD*%
%TO.P,C46,1*%
%TO.N,Net-(U6-Y3)*%
X147690000Y-132150000D03*
%TO.P,C46,2*%
%TO.N,Net-(J6-Pin_7)*%
X140190000Y-132150000D03*
%TD*%
%TO.P,C39,1*%
%TO.N,Net-(U5-Y2)*%
X188190000Y-122800000D03*
%TO.P,C39,2*%
%TO.N,Net-(J5-Pin_5)*%
X180690000Y-122800000D03*
%TD*%
%TO.P,C65,1*%
%TO.N,Net-(U8-Y0)*%
X62690000Y-111690000D03*
%TO.P,C65,2*%
%TO.N,Net-(J8-Pin_1)*%
X55190000Y-111690000D03*
%TD*%
D16*
%TO.P,ESP32,1,Pin_1*%
%TO.N,unconnected-(ESP32-Pin_1-Pad1)*%
X214690000Y-109100000D03*
D17*
%TO.P,ESP32,2,Pin_2*%
%TO.N,unconnected-(ESP32-Pin_2-Pad2)*%
X212150000Y-109100000D03*
%TO.P,ESP32,3,Pin_3*%
%TO.N,unconnected-(ESP32-Pin_3-Pad3)*%
X214690000Y-106560000D03*
%TO.P,ESP32,4,Pin_4*%
%TO.N,unconnected-(ESP32-Pin_4-Pad4)*%
X212150000Y-106560000D03*
%TO.P,ESP32,5,Pin_5*%
%TO.N,unconnected-(ESP32-Pin_5-Pad5)*%
X214690000Y-104020000D03*
%TO.P,ESP32,6,Pin_6*%
%TO.N,unconnected-(ESP32-Pin_6-Pad6)*%
X212150000Y-104020000D03*
%TO.P,ESP32,7,Pin_7*%
%TO.N,unconnected-(ESP32-Pin_7-Pad7)*%
X214690000Y-101480000D03*
%TO.P,ESP32,8,Pin_8*%
%TO.N,unconnected-(ESP32-Pin_8-Pad8)*%
X212150000Y-101480000D03*
%TO.P,ESP32,9,Pin_9*%
%TO.N,unconnected-(ESP32-Pin_9-Pad9)*%
X214690000Y-98940000D03*
%TO.P,ESP32,10,Pin_10*%
%TO.N,unconnected-(ESP32-Pin_10-Pad10)*%
X212150000Y-98940000D03*
%TO.P,ESP32,11,Pin_11*%
%TO.N,C*%
X214690000Y-96400000D03*
%TO.P,ESP32,12,Pin_12*%
%TO.N,B*%
X212150000Y-96400000D03*
%TO.P,ESP32,13,Pin_13*%
%TO.N,A*%
X214690000Y-93860000D03*
%TO.P,ESP32,14,Pin_14*%
%TO.N,GND*%
X212150000Y-93860000D03*
%TO.P,ESP32,15,Pin_15*%
%TO.N,+5V*%
X214690000Y-91320000D03*
%TO.P,ESP32,16,Pin_16*%
%TO.N,unconnected-(ESP32-Pin_16-Pad16)*%
X212150000Y-91320000D03*
%TO.P,ESP32,17,Pin_17*%
%TO.N,unconnected-(ESP32-Pin_17-Pad17)*%
X214690000Y-88780000D03*
%TO.P,ESP32,18,Pin_18*%
%TO.N,unconnected-(ESP32-Pin_18-Pad18)*%
X212150000Y-88780000D03*
%TO.P,ESP32,19,Pin_19*%
%TO.N,unconnected-(ESP32-Pin_19-Pad19)*%
X214690000Y-86240000D03*
%TO.P,ESP32,20,Pin_20*%
%TO.N,unconnected-(ESP32-Pin_20-Pad20)*%
X212150000Y-86240000D03*
%TO.P,ESP32,21,Pin_21*%
%TO.N,RXD From ESP32*%
X214690000Y-83700000D03*
%TO.P,ESP32,22,Pin_22*%
%TO.N,TXD From ESP32*%
X212150000Y-83700000D03*
%TO.P,ESP32,23,Pin_23*%
%TO.N,Mux8 INH*%
X214690000Y-81160000D03*
%TO.P,ESP32,24,Pin_24*%
%TO.N,Mux7 INH*%
X212150000Y-81160000D03*
%TO.P,ESP32,25,Pin_25*%
%TO.N,Mux6 INH*%
X214690000Y-78620000D03*
%TO.P,ESP32,26,Pin_26*%
%TO.N,Mux5 INH*%
X212150000Y-78620000D03*
%TO.P,ESP32,27,Pin_27*%
%TO.N,Mux4 INH*%
X214690000Y-76080000D03*
%TO.P,ESP32,28,Pin_28*%
%TO.N,Mux3 INH*%
X212150000Y-76080000D03*
%TO.P,ESP32,29,Pin_29*%
%TO.N,Mux2 INH*%
X214690000Y-73540000D03*
%TO.P,ESP32,30,Pin_30*%
%TO.N,Mux1 INH*%
X212150000Y-73540000D03*
%TD*%
D10*
%TO.P,C22,1*%
%TO.N,Net-(U3-Y3)*%
X103190000Y-50690000D03*
%TO.P,C22,2*%
%TO.N,Net-(J3-Pin_7)*%
X95690000Y-50690000D03*
%TD*%
%TO.P,C48,1*%
%TO.N,Net-(U6-Y1)*%
X147690000Y-123850000D03*
%TO.P,C48,2*%
%TO.N,Net-(J6-Pin_3)*%
X140190000Y-123850000D03*
%TD*%
%TO.P,C56,1*%
%TO.N,Net-(U7-Y1)*%
X105190000Y-120340000D03*
%TO.P,C56,2*%
%TO.N,Net-(J7-Pin_3)*%
X97690000Y-120340000D03*
%TD*%
%TO.P,C4,1*%
%TO.N,Net-(U1-Y2)*%
X189190000Y-62840000D03*
%TO.P,C4,2*%
%TO.N,Net-(J1-Pin_5)*%
X181690000Y-62840000D03*
%TD*%
%TO.P,C19,1*%
%TO.N,Net-(U3-Y6)*%
X103190000Y-63140000D03*
%TO.P,C19,2*%
%TO.N,Net-(J3-Pin_13)*%
X95690000Y-63140000D03*
%TD*%
%TO.P,C11,1*%
%TO.N,Net-(U2-Y6)*%
X144690000Y-62390000D03*
%TO.P,C11,2*%
%TO.N,Net-(J2-Pin_13)*%
X137190000Y-62390000D03*
%TD*%
%TO.P,C51,1*%
%TO.N,Net-(U7-Y6)*%
X105190000Y-141090000D03*
%TO.P,C51,2*%
%TO.N,Net-(J7-Pin_13)*%
X97690000Y-141090000D03*
%TD*%
D11*
%TO.P,U7,1,Y4*%
%TO.N,Net-(U7-Y4)*%
X111070000Y-121700000D03*
D12*
%TO.P,U7,2,Y6*%
%TO.N,Net-(U7-Y6)*%
X111070000Y-124240000D03*
%TO.P,U7,3,COM*%
%TO.N,Common*%
X111070000Y-126780000D03*
%TO.P,U7,4,Y7*%
%TO.N,Net-(U7-Y7)*%
X111070000Y-129320000D03*
%TO.P,U7,5,Y5*%
%TO.N,Net-(U7-Y5)*%
X111070000Y-131860000D03*
%TO.P,U7,6,INH*%
%TO.N,Mux7 INH*%
X111070000Y-134400000D03*
%TO.P,U7,7,GND*%
%TO.N,unconnected-(U7-GND-Pad7)*%
X111070000Y-136940000D03*
%TO.P,U7,8,GND*%
%TO.N,GND*%
X111070000Y-139480000D03*
%TO.P,U7,9,C*%
%TO.N,C*%
X118690000Y-139480000D03*
%TO.P,U7,10,B*%
%TO.N,B*%
X118690000Y-136940000D03*
%TO.P,U7,11,A*%
%TO.N,A*%
X118690000Y-134400000D03*
%TO.P,U7,12,Y3*%
%TO.N,Net-(U7-Y3)*%
X118690000Y-131860000D03*
%TO.P,U7,13,Y0*%
%TO.N,Net-(U7-Y0)*%
X118690000Y-129320000D03*
%TO.P,U7,14,Y1*%
%TO.N,Net-(U7-Y1)*%
X118690000Y-126780000D03*
%TO.P,U7,15,Y2*%
%TO.N,Net-(U7-Y2)*%
X118690000Y-124240000D03*
%TO.P,U7,16,VCC*%
%TO.N,+5V*%
X118690000Y-121700000D03*
%TD*%
D10*
%TO.P,C12,1*%
%TO.N,Net-(U2-Y5)*%
X144690000Y-58240000D03*
%TO.P,C12,2*%
%TO.N,Net-(J2-Pin_11)*%
X137190000Y-58240000D03*
%TD*%
%TO.P,C58,1*%
%TO.N,Net-(U8-Y7)*%
X62690000Y-140740000D03*
%TO.P,C58,2*%
%TO.N,Net-(J8-Pin_15)*%
X55190000Y-140740000D03*
%TD*%
%TO.P,C1,1*%
%TO.N,Common*%
X240690000Y-48990000D03*
%TO.P,C1,2*%
%TO.N,Net-(DLP_RFID2-Pin_6)*%
X240690000Y-56490000D03*
%TD*%
D11*
%TO.P,U4,1,Y4*%
%TO.N,Net-(U4-Y4)*%
X68380000Y-31350000D03*
D12*
%TO.P,U4,2,Y6*%
%TO.N,Net-(U4-Y6)*%
X68380000Y-33890000D03*
%TO.P,U4,3,COM*%
%TO.N,Common*%
X68380000Y-36430000D03*
%TO.P,U4,4,Y7*%
%TO.N,Net-(U4-Y7)*%
X68380000Y-38970000D03*
%TO.P,U4,5,Y5*%
%TO.N,Net-(U4-Y5)*%
X68380000Y-41510000D03*
%TO.P,U4,6,INH*%
%TO.N,Mux4 INH*%
X68380000Y-44050000D03*
%TO.P,U4,7,GND*%
%TO.N,unconnected-(U4-GND-Pad7)*%
X68380000Y-46590000D03*
%TO.P,U4,8,GND*%
%TO.N,GND*%
X68380000Y-49130000D03*
%TO.P,U4,9,C*%
%TO.N,C*%
X76000000Y-49130000D03*
%TO.P,U4,10,B*%
%TO.N,B*%
X76000000Y-46590000D03*
%TO.P,U4,11,A*%
%TO.N,A*%
X76000000Y-44050000D03*
%TO.P,U4,12,Y3*%
%TO.N,Net-(U4-Y3)*%
X76000000Y-41510000D03*
%TO.P,U4,13,Y0*%
%TO.N,Net-(U4-Y0)*%
X76000000Y-38970000D03*
%TO.P,U4,14,Y1*%
%TO.N,Net-(U4-Y1)*%
X76000000Y-36430000D03*
%TO.P,U4,15,Y2*%
%TO.N,Net-(U4-Y2)*%
X76000000Y-33890000D03*
%TO.P,U4,16,VCC*%
%TO.N,+5V*%
X76000000Y-31350000D03*
%TD*%
D10*
%TO.P,C25,1*%
%TO.N,Net-(U3-Y0)*%
X103190000Y-38240000D03*
%TO.P,C25,2*%
%TO.N,Net-(J3-Pin_1)*%
X95690000Y-38240000D03*
%TD*%
%TO.P,C8,1*%
%TO.N,Net-(U1-Y6)*%
X189190000Y-46240000D03*
%TO.P,C8,2*%
%TO.N,Net-(J1-Pin_13)*%
X181690000Y-46240000D03*
%TD*%
D13*
%TO.P,J7,1,Pin_1*%
%TO.N,Net-(J7-Pin_1)*%
X85690000Y-101740000D03*
D14*
%TO.P,J7,2,Pin_2*%
%TO.N,GND*%
X85690000Y-106740000D03*
%TO.P,J7,3,Pin_3*%
%TO.N,Net-(J7-Pin_3)*%
X85690000Y-111740000D03*
%TO.P,J7,4,Pin_4*%
%TO.N,GND*%
X85690000Y-116740000D03*
%TO.P,J7,5,Pin_5*%
%TO.N,Net-(J7-Pin_5)*%
X85690000Y-121740000D03*
%TO.P,J7,6,Pin_6*%
%TO.N,GND*%
X85690000Y-126740000D03*
%TO.P,J7,7,Pin_7*%
%TO.N,Net-(J7-Pin_7)*%
X85690000Y-131740000D03*
%TO.P,J7,8,Pin_8*%
%TO.N,GND*%
X85690000Y-136740000D03*
%TO.P,J7,9,Pin_9*%
%TO.N,Net-(J7-Pin_9)*%
X85690000Y-141740000D03*
%TO.P,J7,10,Pin_10*%
%TO.N,GND*%
X85690000Y-146740000D03*
%TO.P,J7,11,Pin_11*%
%TO.N,Net-(J7-Pin_11)*%
X85690000Y-151740000D03*
%TO.P,J7,12,Pin_12*%
%TO.N,GND*%
X85690000Y-156740000D03*
%TO.P,J7,13,Pin_13*%
%TO.N,Net-(J7-Pin_13)*%
X85690000Y-161740000D03*
%TO.P,J7,14,Pin_14*%
%TO.N,GND*%
X85690000Y-166740000D03*
%TO.P,J7,15,Pin_15*%
%TO.N,Net-(J7-Pin_15)*%
X85690000Y-171740000D03*
%TO.P,J7,16,Pin_16*%
%TO.N,GND*%
X85690000Y-176740000D03*
%TD*%
D10*
%TO.P,C30,1*%
%TO.N,Net-(U4-Y3)*%
X59500000Y-38800000D03*
%TO.P,C30,2*%
%TO.N,Net-(J4-Pin_7)*%
X52000000Y-38800000D03*
%TD*%
D13*
%TO.P,J4,1,Pin_1*%
%TO.N,Net-(J4-Pin_1)*%
X40500000Y-17850000D03*
D14*
%TO.P,J4,2,Pin_2*%
%TO.N,GND*%
X40500000Y-22850000D03*
%TO.P,J4,3,Pin_3*%
%TO.N,Net-(J4-Pin_3)*%
X40500000Y-27850000D03*
%TO.P,J4,4,Pin_4*%
%TO.N,GND*%
X40500000Y-32850000D03*
%TO.P,J4,5,Pin_5*%
%TO.N,Net-(J4-Pin_5)*%
X40500000Y-37850000D03*
%TO.P,J4,6,Pin_6*%
%TO.N,GND*%
X40500000Y-42850000D03*
%TO.P,J4,7,Pin_7*%
%TO.N,Net-(J4-Pin_7)*%
X40500000Y-47850000D03*
%TO.P,J4,8,Pin_8*%
%TO.N,GND*%
X40500000Y-52850000D03*
%TO.P,J4,9,Pin_9*%
%TO.N,Net-(J4-Pin_9)*%
X40500000Y-57850000D03*
%TO.P,J4,10,Pin_10*%
%TO.N,GND*%
X40500000Y-62850000D03*
%TO.P,J4,11,Pin_11*%
%TO.N,Net-(J4-Pin_11)*%
X40500000Y-67850000D03*
%TO.P,J4,12,Pin_12*%
%TO.N,GND*%
X40500000Y-72850000D03*
%TO.P,J4,13,Pin_13*%
%TO.N,Net-(J4-Pin_13)*%
X40500000Y-77850000D03*
%TO.P,J4,14,Pin_14*%
%TO.N,GND*%
X40500000Y-82850000D03*
%TO.P,J4,15,Pin_15*%
%TO.N,Net-(J4-Pin_15)*%
X40500000Y-87850000D03*
%TO.P,J4,16,Pin_16*%
%TO.N,GND*%
X40500000Y-92850000D03*
%TD*%
D10*
%TO.P,C42,1*%
%TO.N,Net-(U6-Y7)*%
X147690000Y-148700000D03*
%TO.P,C42,2*%
%TO.N,Net-(J6-Pin_15)*%
X140190000Y-148700000D03*
%TD*%
%TO.P,C49,1*%
%TO.N,Net-(U6-Y0)*%
X147690000Y-119700000D03*
%TO.P,C49,2*%
%TO.N,Net-(J6-Pin_1)*%
X140190000Y-119700000D03*
%TD*%
%TO.P,C29,1*%
%TO.N,Net-(U4-Y4)*%
X59500000Y-42950000D03*
%TO.P,C29,2*%
%TO.N,Net-(J4-Pin_9)*%
X52000000Y-42950000D03*
%TD*%
%TO.P,C7,1*%
%TO.N,Net-(U1-Y5)*%
X189190000Y-50390000D03*
%TO.P,C7,2*%
%TO.N,Net-(J1-Pin_11)*%
X181690000Y-50390000D03*
%TD*%
%TO.P,C43,1*%
%TO.N,Net-(U6-Y6)*%
X147690000Y-144600000D03*
%TO.P,C43,2*%
%TO.N,Net-(J6-Pin_13)*%
X140190000Y-144600000D03*
%TD*%
%TO.P,C50,1*%
%TO.N,Net-(U7-Y7)*%
X105190000Y-145240000D03*
%TO.P,C50,2*%
%TO.N,Net-(J7-Pin_15)*%
X97690000Y-145240000D03*
%TD*%
%TO.P,C33,1*%
%TO.N,Net-(U4-Y0)*%
X59500000Y-26350000D03*
%TO.P,C33,2*%
%TO.N,Net-(J4-Pin_1)*%
X52000000Y-26350000D03*
%TD*%
%TO.P,C9,1*%
%TO.N,Net-(U1-Y7)*%
X189190000Y-42090000D03*
%TO.P,C9,2*%
%TO.N,Net-(J1-Pin_15)*%
X181690000Y-42090000D03*
%TD*%
%TO.P,C15,1*%
%TO.N,Net-(U2-Y2)*%
X144690000Y-46040000D03*
%TO.P,C15,2*%
%TO.N,Net-(J2-Pin_5)*%
X137190000Y-46040000D03*
%TD*%
%TO.P,C32,1*%
%TO.N,Net-(U4-Y1)*%
X59500000Y-30500000D03*
%TO.P,C32,2*%
%TO.N,Net-(J4-Pin_3)*%
X52000000Y-30500000D03*
%TD*%
D16*
%TO.P,DLP_RFID2,1,Pin_1*%
%TO.N,RXD From ESP32*%
X230150000Y-52160000D03*
D17*
%TO.P,DLP_RFID2,2,Pin_2*%
%TO.N,TXD From ESP32*%
X232690000Y-52160000D03*
%TO.P,DLP_RFID2,3,Pin_3*%
%TO.N,unconnected-(DLP_RFID2-Pin_3-Pad3)*%
X230150000Y-54700000D03*
%TO.P,DLP_RFID2,4,Pin_4*%
%TO.N,unconnected-(DLP_RFID2-Pin_4-Pad4)*%
X232690000Y-54700000D03*
%TO.P,DLP_RFID2,5,Pin_5*%
%TO.N,unconnected-(DLP_RFID2-Pin_5-Pad5)*%
X230150000Y-57240000D03*
%TO.P,DLP_RFID2,6,Pin_6*%
%TO.N,Net-(DLP_RFID2-Pin_6)*%
X232690000Y-57240000D03*
%TO.P,DLP_RFID2,7,Pin_7*%
%TO.N,+5V*%
X230150000Y-59780000D03*
%TO.P,DLP_RFID2,8,Pin_8*%
%TO.N,unconnected-(DLP_RFID2-Pin_8-Pad8)*%
X232690000Y-59780000D03*
%TO.P,DLP_RFID2,9,Pin_9*%
%TO.N,unconnected-(DLP_RFID2-Pin_9-Pad9)*%
X230150000Y-62320000D03*
%TO.P,DLP_RFID2,10,Pin_10*%
%TO.N,unconnected-(DLP_RFID2-Pin_10-Pad10)*%
X232690000Y-62320000D03*
%TO.P,DLP_RFID2,11,Pin_11*%
%TO.N,unconnected-(DLP_RFID2-Pin_11-Pad11)*%
X230150000Y-64860000D03*
%TO.P,DLP_RFID2,12,Pin_12*%
%TO.N,unconnected-(DLP_RFID2-Pin_12-Pad12)*%
X232690000Y-64860000D03*
%TO.P,DLP_RFID2,13,Pin_13*%
%TO.N,GND*%
X230150000Y-67400000D03*
%TO.P,DLP_RFID2,14,Pin_14*%
%TO.N,unconnected-(DLP_RFID2-Pin_14-Pad14)*%
X232690000Y-67400000D03*
%TD*%
D10*
%TO.P,C37,1*%
%TO.N,Net-(U5-Y4)*%
X188190000Y-131100000D03*
%TO.P,C37,2*%
%TO.N,Net-(J5-Pin_9)*%
X180690000Y-131100000D03*
%TD*%
%TO.P,C52,1*%
%TO.N,Net-(U7-Y5)*%
X105190000Y-136940000D03*
%TO.P,C52,2*%
%TO.N,Net-(J7-Pin_11)*%
X97690000Y-136940000D03*
%TD*%
%TO.P,C5,1*%
%TO.N,Net-(U1-Y3)*%
X189190000Y-58690000D03*
%TO.P,C5,2*%
%TO.N,Net-(J1-Pin_7)*%
X181690000Y-58690000D03*
%TD*%
D13*
%TO.P,J3,1,Pin_1*%
%TO.N,Net-(J3-Pin_1)*%
X85690000Y-16240000D03*
D14*
%TO.P,J3,2,Pin_2*%
%TO.N,GND*%
X85690000Y-21240000D03*
%TO.P,J3,3,Pin_3*%
%TO.N,Net-(J3-Pin_3)*%
X85690000Y-26240000D03*
%TO.P,J3,4,Pin_4*%
%TO.N,GND*%
X85690000Y-31240000D03*
%TO.P,J3,5,Pin_5*%
%TO.N,Net-(J3-Pin_5)*%
X85690000Y-36240000D03*
%TO.P,J3,6,Pin_6*%
%TO.N,GND*%
X85690000Y-41240000D03*
%TO.P,J3,7,Pin_7*%
%TO.N,Net-(J3-Pin_7)*%
X85690000Y-46240000D03*
%TO.P,J3,8,Pin_8*%
%TO.N,GND*%
X85690000Y-51240000D03*
%TO.P,J3,9,Pin_9*%
%TO.N,Net-(J3-Pin_9)*%
X85690000Y-56240000D03*
%TO.P,J3,10,Pin_10*%
%TO.N,GND*%
X85690000Y-61240000D03*
%TO.P,J3,11,Pin_11*%
%TO.N,Net-(J3-Pin_11)*%
X85690000Y-66240000D03*
%TO.P,J3,12,Pin_12*%
%TO.N,GND*%
X85690000Y-71240000D03*
%TO.P,J3,13,Pin_13*%
%TO.N,Net-(J3-Pin_13)*%
X85690000Y-76240000D03*
%TO.P,J3,14,Pin_14*%
%TO.N,GND*%
X85690000Y-81240000D03*
%TO.P,J3,15,Pin_15*%
%TO.N,Net-(J3-Pin_15)*%
X85690000Y-86240000D03*
%TO.P,J3,16,Pin_16*%
%TO.N,GND*%
X85690000Y-91240000D03*
%TD*%
D10*
%TO.P,C13,1*%
%TO.N,Net-(U2-Y4)*%
X144690000Y-54090000D03*
%TO.P,C13,2*%
%TO.N,Net-(J2-Pin_9)*%
X137190000Y-54090000D03*
%TD*%
D11*
%TO.P,U8,1,Y4*%
%TO.N,Net-(U8-Y4)*%
X68880000Y-118850000D03*
D12*
%TO.P,U8,2,Y6*%
%TO.N,Net-(U8-Y6)*%
X68880000Y-121390000D03*
%TO.P,U8,3,COM*%
%TO.N,Common*%
X68880000Y-123930000D03*
%TO.P,U8,4,Y7*%
%TO.N,Net-(U8-Y7)*%
X68880000Y-126470000D03*
%TO.P,U8,5,Y5*%
%TO.N,Net-(U8-Y5)*%
X68880000Y-129010000D03*
%TO.P,U8,6,INH*%
%TO.N,Mux8 INH*%
X68880000Y-131550000D03*
%TO.P,U8,7,GND*%
%TO.N,unconnected-(U8-GND-Pad7)*%
X68880000Y-134090000D03*
%TO.P,U8,8,GND*%
%TO.N,GND*%
X68880000Y-136630000D03*
%TO.P,U8,9,C*%
%TO.N,C*%
X76500000Y-136630000D03*
%TO.P,U8,10,B*%
%TO.N,B*%
X76500000Y-134090000D03*
%TO.P,U8,11,A*%
%TO.N,A*%
X76500000Y-131550000D03*
%TO.P,U8,12,Y3*%
%TO.N,Net-(U8-Y3)*%
X76500000Y-129010000D03*
%TO.P,U8,13,Y0*%
%TO.N,Net-(U8-Y0)*%
X76500000Y-126470000D03*
%TO.P,U8,14,Y1*%
%TO.N,Net-(U8-Y1)*%
X76500000Y-123930000D03*
%TO.P,U8,15,Y2*%
%TO.N,Net-(U8-Y2)*%
X76500000Y-121390000D03*
%TO.P,U8,16,VCC*%
%TO.N,+5V*%
X76500000Y-118850000D03*
%TD*%
D10*
%TO.P,C3,1*%
%TO.N,Net-(U1-Y1)*%
X189190000Y-66990000D03*
%TO.P,C3,2*%
%TO.N,Net-(J1-Pin_3)*%
X181690000Y-66990000D03*
%TD*%
D18*
%TO.N,Net-(U8-Y0)*%
X72145800Y-119097800D03*
%TO.N,Net-(J8-Pin_11)*%
X47302100Y-137947200D03*
%TO.N,Net-(U7-Y5)*%
X105826500Y-134239000D03*
%TO.N,Net-(U6-Y5)*%
X151040300Y-133593500D03*
%TO.N,Net-(J6-Pin_13)*%
X136768100Y-146880000D03*
%TO.N,Net-(U3-Y1)*%
X106691800Y-45529400D03*
%TO.N,Net-(U3-Y5)*%
X106847800Y-53827800D03*
%TO.N,Net-(J1-Pin_7)*%
X172055600Y-59614800D03*
%TO.N,Common*%
X154687400Y-119471100D03*
%TO.N,Mux8 INH*%
X77124100Y-99238400D03*
%TO.N,Mux7 INH*%
X130803700Y-87328000D03*
%TO.N,C*%
X202376500Y-93283200D03*
X114673600Y-61746400D03*
%TO.N,Mux6 INH*%
X169572300Y-78837000D03*
%TO.N,Mux5 INH*%
X205358700Y-80472000D03*
%TO.N,Mux4 INH*%
X84443900Y-73804600D03*
%TO.N,Mux2 INH*%
X154661300Y-63694500D03*
%TO.N,Mux1 INH*%
X201244200Y-59645900D03*
%TO.N,TXD From ESP32*%
X226234100Y-84350400D03*
%TD*%
D19*
%TO.N,Net-(U8-Y0)*%
X72145800Y-122115800D02*
X76500000Y-126470000D01*
X72145800Y-119097800D02*
X72145800Y-122115800D01*
X72145800Y-119097800D02*
X72145800Y-119009800D01*
X72145800Y-119009800D02*
X72145800Y-119097800D01*
%TO.N,Net-(U8-Y4)*%
X62690000Y-125989400D02*
X68880000Y-119799400D01*
X62690000Y-128290000D02*
X62690000Y-125989400D01*
X68880000Y-118850000D02*
X68880000Y-119799400D01*
%TO.N,Net-(J8-Pin_11)*%
X47302100Y-143627900D02*
X40190000Y-150740000D01*
X47302100Y-137947200D02*
X47302100Y-143627900D01*
%TO.N,Net-(J8-Pin_13)*%
X52140200Y-139639800D02*
X55190000Y-136590000D01*
X52140200Y-148789800D02*
X52140200Y-139639800D01*
X40190000Y-160740000D02*
X52140200Y-148789800D01*
%TO.N,Net-(U8-Y6)*%
X65765600Y-124504400D02*
X68880000Y-121390000D01*
X65765600Y-133514400D02*
X65765600Y-124504400D01*
X62690000Y-136590000D02*
X65765600Y-133514400D01*
%TO.N,Net-(U8-Y7)*%
X67287900Y-128062100D02*
X68880000Y-126470000D01*
X67287900Y-136142100D02*
X67287900Y-128062100D01*
X62690000Y-140740000D02*
X67287900Y-136142100D01*
%TO.N,Net-(J8-Pin_15)*%
X55190000Y-155740000D02*
X40190000Y-170740000D01*
X55190000Y-140740000D02*
X55190000Y-155740000D01*
%TO.N,Net-(U7-Y0)*%
X117097900Y-127727900D02*
X118690000Y-129320000D01*
X117097900Y-125957100D02*
X117097900Y-127727900D01*
X106980800Y-115840000D02*
X117097900Y-125957100D01*
X105190000Y-115840000D02*
X106980800Y-115840000D01*
%TO.N,Net-(J7-Pin_1)*%
X97690000Y-115091700D02*
X97690000Y-115840000D01*
X85690000Y-103091700D02*
X97690000Y-115091700D01*
X85690000Y-101740000D02*
X85690000Y-103091700D01*
%TO.N,Net-(U7-Y4)*%
X111070000Y-121700000D02*
X111070000Y-122649400D01*
X107891600Y-130088400D02*
X105190000Y-132790000D01*
X107891600Y-125827800D02*
X107891600Y-130088400D01*
X111070000Y-122649400D02*
X107891600Y-125827800D01*
%TO.N,Net-(J7-Pin_9)*%
X94640000Y-132790000D02*
X97690000Y-132790000D01*
X85690000Y-141740000D02*
X94640000Y-132790000D01*
%TO.N,Net-(U7-Y5)*%
X105826500Y-136303500D02*
X105826500Y-134239000D01*
X105190000Y-136940000D02*
X105826500Y-136303500D01*
%TO.N,Net-(J7-Pin_11)*%
X85690000Y-148940000D02*
X85690000Y-151740000D01*
X97690000Y-136940000D02*
X85690000Y-148940000D01*
%TO.N,Net-(J7-Pin_13)*%
X92869400Y-154560600D02*
X85690000Y-161740000D01*
X92869400Y-145910600D02*
X92869400Y-154560600D01*
X97690000Y-141090000D02*
X92869400Y-145910600D01*
%TO.N,Net-(U7-Y6)*%
X108293400Y-137986600D02*
X105190000Y-141090000D01*
X108293400Y-127016600D02*
X108293400Y-137986600D01*
X111070000Y-124240000D02*
X108293400Y-127016600D01*
%TO.N,Net-(J7-Pin_15)*%
X97690000Y-159740000D02*
X97690000Y-145240000D01*
X85690000Y-171740000D02*
X97690000Y-159740000D01*
%TO.N,Net-(U7-Y7)*%
X108836400Y-131553600D02*
X111070000Y-129320000D01*
X108836400Y-141593600D02*
X108836400Y-131553600D01*
X105190000Y-145240000D02*
X108836400Y-141593600D01*
%TO.N,Net-(J6-Pin_1)*%
X140190000Y-114051700D02*
X128190000Y-102051700D01*
X140190000Y-119700000D02*
X140190000Y-114051700D01*
X128190000Y-100700000D02*
X128190000Y-102051700D01*
%TO.N,Net-(J6-Pin_3)*%
X128190000Y-111850000D02*
X128190000Y-110700000D01*
X140190000Y-123850000D02*
X128190000Y-111850000D01*
%TO.N,Net-(U6-Y4)*%
X153570000Y-122700000D02*
X153570000Y-123649400D01*
X150321100Y-133668900D02*
X147690000Y-136300000D01*
X150321100Y-126898300D02*
X150321100Y-133668900D01*
X153570000Y-123649400D02*
X150321100Y-126898300D01*
%TO.N,Net-(J6-Pin_11)*%
X138440000Y-140450000D02*
X140190000Y-140450000D01*
X128190000Y-150700000D02*
X138440000Y-140450000D01*
%TO.N,Net-(U6-Y5)*%
X151040300Y-137099700D02*
X147690000Y-140450000D01*
X151040300Y-133593500D02*
X151040300Y-137099700D01*
%TO.N,Net-(J6-Pin_13)*%
X136768100Y-152121900D02*
X128190000Y-160700000D01*
X136768100Y-146880000D02*
X136768100Y-152121900D01*
%TO.N,Net-(U6-Y6)*%
X151759400Y-140530600D02*
X147690000Y-144600000D01*
X151759400Y-127050600D02*
X151759400Y-140530600D01*
X153570000Y-125240000D02*
X151759400Y-127050600D01*
%TO.N,Net-(J6-Pin_15)*%
X140190000Y-158700000D02*
X128190000Y-170700000D01*
X140190000Y-148700000D02*
X140190000Y-158700000D01*
%TO.N,Net-(U6-Y7)*%
X152620600Y-143769400D02*
X147690000Y-148700000D01*
X152620600Y-131269400D02*
X152620600Y-143769400D01*
X153570000Y-130320000D02*
X152620600Y-131269400D01*
%TO.N,Net-(J5-Pin_1)*%
X180690000Y-111041700D02*
X180690000Y-114500000D01*
X171000000Y-101351700D02*
X180690000Y-111041700D01*
X171000000Y-100000000D02*
X171000000Y-101351700D01*
%TO.N,Net-(U5-Y0)*%
X191797800Y-114500000D02*
X188190000Y-114500000D01*
X195908200Y-118610400D02*
X191797800Y-114500000D01*
X195908200Y-120378200D02*
X195908200Y-118610400D01*
X201810000Y-126280000D02*
X195908200Y-120378200D01*
%TO.N,Net-(J5-Pin_3)*%
X172040000Y-110000000D02*
X180690000Y-118650000D01*
X171000000Y-110000000D02*
X172040000Y-110000000D01*
%TO.N,Net-(J5-Pin_9)*%
X171790000Y-140000000D02*
X171000000Y-140000000D01*
X180690000Y-131100000D02*
X171790000Y-140000000D01*
%TO.N,Net-(U5-Y4)*%
X195139400Y-120558800D02*
X194190000Y-119609400D01*
X195139400Y-121662000D02*
X195139400Y-120558800D01*
X194648700Y-122152700D02*
X195139400Y-121662000D01*
X194420100Y-122152700D02*
X194648700Y-122152700D01*
X193059100Y-123513700D02*
X194420100Y-122152700D01*
X193059100Y-126230900D02*
X193059100Y-123513700D01*
X188190000Y-131100000D02*
X193059100Y-126230900D01*
X194190000Y-118660000D02*
X194190000Y-119609400D01*
%TO.N,Net-(U5-Y5)*%
X194190000Y-129250000D02*
X194190000Y-128820000D01*
X188190000Y-135250000D02*
X194190000Y-129250000D01*
%TO.N,Net-(J5-Pin_11)*%
X177640200Y-138299800D02*
X180690000Y-135250000D01*
X177640200Y-140894000D02*
X177640200Y-138299800D01*
X171000000Y-147534200D02*
X177640200Y-140894000D01*
X171000000Y-150000000D02*
X171000000Y-147534200D01*
%TO.N,Net-(U5-Y6)*%
X187037400Y-138247400D02*
X188190000Y-139400000D01*
X187037400Y-129720300D02*
X187037400Y-138247400D01*
X192596500Y-124161200D02*
X187037400Y-129720300D01*
X192596500Y-122793500D02*
X192596500Y-124161200D01*
X194190000Y-121200000D02*
X192596500Y-122793500D01*
%TO.N,Net-(J5-Pin_13)*%
X173399200Y-157600800D02*
X171000000Y-160000000D01*
X173399200Y-146690800D02*
X173399200Y-157600800D01*
X180690000Y-139400000D02*
X173399200Y-146690800D01*
%TO.N,Net-(U5-Y7)*%
X195180500Y-127270500D02*
X194190000Y-126280000D01*
X195180500Y-129177100D02*
X195180500Y-127270500D01*
X194402700Y-129954900D02*
X195180500Y-129177100D01*
X194252500Y-129954900D02*
X194402700Y-129954900D01*
X193240600Y-130966800D02*
X194252500Y-129954900D01*
X193240600Y-138499400D02*
X193240600Y-130966800D01*
X188190000Y-143550000D02*
X193240600Y-138499400D01*
%TO.N,Net-(J5-Pin_15)*%
X180690000Y-160310000D02*
X180690000Y-143550000D01*
X171000000Y-170000000D02*
X180690000Y-160310000D01*
%TO.N,Net-(U4-Y4)*%
X59500000Y-41179400D02*
X68380000Y-32299400D01*
X59500000Y-42950000D02*
X59500000Y-41179400D01*
X68380000Y-31350000D02*
X68380000Y-32299400D01*
%TO.N,Net-(J4-Pin_9)*%
X40500000Y-56020100D02*
X40500000Y-57850000D01*
X52000000Y-44520100D02*
X40500000Y-56020100D01*
X52000000Y-42950000D02*
X52000000Y-44520100D01*
%TO.N,Net-(J4-Pin_11)*%
X42720100Y-65629900D02*
X40500000Y-67850000D01*
X42720100Y-56329900D02*
X42720100Y-65629900D01*
X52000000Y-47050000D02*
X42720100Y-56329900D01*
%TO.N,Net-(U4-Y6)*%
X62549800Y-48150200D02*
X59500000Y-51200000D01*
X62549800Y-39720200D02*
X62549800Y-48150200D01*
X68380000Y-33890000D02*
X62549800Y-39720200D01*
%TO.N,Net-(J4-Pin_13)*%
X48892700Y-69457300D02*
X40500000Y-77850000D01*
X48892700Y-54307300D02*
X48892700Y-69457300D01*
X52000000Y-51200000D02*
X48892700Y-54307300D01*
%TO.N,Net-(U4-Y7)*%
X66787900Y-40562100D02*
X68380000Y-38970000D01*
X66787900Y-48062100D02*
X66787900Y-40562100D01*
X59500000Y-55350000D02*
X66787900Y-48062100D01*
%TO.N,Net-(J4-Pin_15)*%
X52000000Y-76350000D02*
X40500000Y-87850000D01*
X52000000Y-55350000D02*
X52000000Y-76350000D01*
%TO.N,Net-(J3-Pin_1)*%
X95690000Y-27591700D02*
X95690000Y-38240000D01*
X85690000Y-17591700D02*
X95690000Y-27591700D01*
X85690000Y-16240000D02*
X85690000Y-17591700D01*
%TO.N,Net-(U3-Y0)*%
X105993300Y-38240000D02*
X103190000Y-38240000D01*
X111678500Y-43925200D02*
X105993300Y-38240000D01*
X111678500Y-45728500D02*
X111678500Y-43925200D01*
X116810000Y-50860000D02*
X111678500Y-45728500D01*
%TO.N,Net-(U3-Y1)*%
X106329400Y-45529400D02*
X106691800Y-45529400D01*
X103190000Y-42390000D02*
X106329400Y-45529400D01*
%TO.N,Net-(J3-Pin_3)*%
X92640200Y-39340200D02*
X95690000Y-42390000D01*
X92640200Y-33190200D02*
X92640200Y-39340200D01*
X85690000Y-26240000D02*
X92640200Y-33190200D01*
%TO.N,Net-(J3-Pin_5)*%
X95690000Y-46240000D02*
X95690000Y-46540000D01*
X85690000Y-36240000D02*
X95690000Y-46240000D01*
%TO.N,Net-(U3-Y4)*%
X109190000Y-43240000D02*
X109190000Y-44189400D01*
X106708600Y-51321400D02*
X103190000Y-54840000D01*
X106708600Y-46670800D02*
X106708600Y-51321400D01*
X109190000Y-44189400D02*
X106708600Y-46670800D01*
%TO.N,Net-(U3-Y5)*%
X103190000Y-57485600D02*
X103190000Y-58990000D01*
X106847800Y-53827800D02*
X103190000Y-57485600D01*
%TO.N,Net-(U3-Y6)*%
X107449500Y-47520500D02*
X109190000Y-45780000D01*
X107449500Y-58880500D02*
X107449500Y-47520500D01*
X103190000Y-63140000D02*
X107449500Y-58880500D01*
%TO.N,Net-(J3-Pin_13)*%
X92640200Y-66189800D02*
X95690000Y-63140000D01*
X92640200Y-69289800D02*
X92640200Y-66189800D01*
X85690000Y-76240000D02*
X92640200Y-69289800D01*
%TO.N,Net-(U3-Y7)*%
X107851200Y-52198800D02*
X109190000Y-50860000D01*
X107851200Y-62628800D02*
X107851200Y-52198800D01*
X103190000Y-67290000D02*
X107851200Y-62628800D01*
%TO.N,Net-(J3-Pin_15)*%
X95690000Y-76240000D02*
X85690000Y-86240000D01*
X95690000Y-67290000D02*
X95690000Y-76240000D01*
%TO.N,Net-(U2-Y0)*%
X147070900Y-37740000D02*
X144690000Y-37740000D01*
X153558500Y-44227600D02*
X147070900Y-37740000D01*
X153558500Y-46028500D02*
X153558500Y-44227600D01*
X158690000Y-51160000D02*
X153558500Y-46028500D01*
%TO.N,Net-(J2-Pin_1)*%
X137190000Y-26091700D02*
X127690000Y-16591700D01*
X137190000Y-37740000D02*
X137190000Y-26091700D01*
X127690000Y-15240000D02*
X127690000Y-16591700D01*
%TO.N,Net-(J2-Pin_3)*%
X134769500Y-39469500D02*
X137190000Y-41890000D01*
X134769400Y-39469500D02*
X134769500Y-39469500D01*
X134769400Y-32319400D02*
X134769400Y-39469500D01*
X127690000Y-25240000D02*
X134769400Y-32319400D01*
%TO.N,Net-(J2-Pin_5)*%
X137190000Y-44740000D02*
X137190000Y-46040000D01*
X127690000Y-35240000D02*
X137190000Y-44740000D01*
%TO.N,Net-(J2-Pin_7)*%
X132390000Y-49940000D02*
X137190000Y-49940000D01*
X127690000Y-45240000D02*
X132390000Y-49940000D01*
%TO.N,Net-(U2-Y4)*%
X151070000Y-43540000D02*
X151070000Y-44489400D01*
X149397600Y-49382400D02*
X144690000Y-54090000D01*
X149397600Y-46161800D02*
X149397600Y-49382400D01*
X151070000Y-44489400D02*
X149397600Y-46161800D01*
%TO.N,Net-(J2-Pin_11)*%
X134690000Y-58240000D02*
X137190000Y-58240000D01*
X127690000Y-65240000D02*
X134690000Y-58240000D01*
%TO.N,Net-(J2-Pin_13)*%
X137190000Y-62972700D02*
X137190000Y-62390000D01*
X127690000Y-72472700D02*
X137190000Y-62972700D01*
X127690000Y-75240000D02*
X127690000Y-72472700D01*
%TO.N,Net-(U2-Y6)*%
X146534600Y-60545400D02*
X144690000Y-62390000D01*
X146534600Y-53149200D02*
X146534600Y-60545400D01*
X150120600Y-49563200D02*
X146534600Y-53149200D01*
X150120600Y-47029400D02*
X150120600Y-49563200D01*
X151070000Y-46080000D02*
X150120600Y-47029400D01*
%TO.N,Net-(J2-Pin_15)*%
X137190000Y-75740000D02*
X127690000Y-85240000D01*
X137190000Y-66540000D02*
X137190000Y-75740000D01*
%TO.N,Net-(U2-Y7)*%
X149477900Y-52752100D02*
X151070000Y-51160000D01*
X149477900Y-61752100D02*
X149477900Y-52752100D01*
X144690000Y-66540000D02*
X149477900Y-61752100D01*
%TO.N,Net-(U1-Y7)*%
X196034100Y-53355900D02*
X195070000Y-54320000D01*
X196034100Y-45934800D02*
X196034100Y-53355900D01*
X192189300Y-42090000D02*
X196034100Y-45934800D01*
X189190000Y-42090000D02*
X192189300Y-42090000D01*
%TO.N,Net-(J1-Pin_15)*%
X181690000Y-33240000D02*
X181690000Y-42090000D01*
X170190000Y-21740000D02*
X181690000Y-33240000D01*
%TO.N,Net-(J1-Pin_13)*%
X170190000Y-34740000D02*
X181690000Y-46240000D01*
X170190000Y-31740000D02*
X170190000Y-34740000D01*
%TO.N,Net-(U1-Y4)*%
X189190000Y-53529400D02*
X195070000Y-47649400D01*
X189190000Y-54540000D02*
X189190000Y-53529400D01*
X195070000Y-46700000D02*
X195070000Y-47649400D01*
%TO.N,Net-(J1-Pin_7)*%
X172055600Y-59874400D02*
X172055600Y-59614800D01*
X170190000Y-61740000D02*
X172055600Y-59874400D01*
%TO.N,Net-(U1-Y2)*%
X201097900Y-50832100D02*
X202690000Y-49240000D01*
X201097900Y-52225300D02*
X201097900Y-50832100D01*
X195437000Y-57886200D02*
X201097900Y-52225300D01*
X194143800Y-57886200D02*
X195437000Y-57886200D01*
X189190000Y-62840000D02*
X194143800Y-57886200D01*
%TO.N,Net-(U1-Y1)*%
X201097900Y-53372100D02*
X202690000Y-51780000D01*
X201097900Y-54765300D02*
X201097900Y-53372100D01*
X195437000Y-60426200D02*
X201097900Y-54765300D01*
X195191700Y-60426200D02*
X195437000Y-60426200D01*
X189190000Y-66427900D02*
X195191700Y-60426200D01*
X189190000Y-66990000D02*
X189190000Y-66427900D01*
%TO.N,Net-(J1-Pin_3)*%
X178640200Y-70039800D02*
X181690000Y-66990000D01*
X178640200Y-73289800D02*
X178640200Y-70039800D01*
X170190000Y-81740000D02*
X178640200Y-73289800D01*
%TO.N,Net-(U1-Y0)*%
X199281700Y-57728300D02*
X202690000Y-54320000D01*
X199281700Y-61672200D02*
X199281700Y-57728300D01*
X189813900Y-71140000D02*
X199281700Y-61672200D01*
X189190000Y-71140000D02*
X189813900Y-71140000D01*
%TO.N,Net-(J1-Pin_1)*%
X181690000Y-78888300D02*
X170190000Y-90388300D01*
X181690000Y-71140000D02*
X181690000Y-78888300D01*
X170190000Y-91740000D02*
X170190000Y-90388300D01*
%TO.N,Common*%
X154687400Y-126662600D02*
X154687400Y-119471100D01*
X153570000Y-127780000D02*
X154687400Y-126662600D01*
X155312700Y-118845800D02*
X154687400Y-119471100D01*
X155312700Y-52862700D02*
X155312700Y-118845800D01*
X151070000Y-48620000D02*
X155312700Y-52862700D01*
%TO.N,Mux8 INH*%
X70472100Y-129957900D02*
X68880000Y-131550000D01*
X70472100Y-105890400D02*
X70472100Y-129957900D01*
X77124100Y-99238400D02*
X70472100Y-105890400D01*
%TO.N,Mux7 INH*%
X114880000Y-130590000D02*
X111070000Y-134400000D01*
X118804900Y-130590000D02*
X114880000Y-130590000D01*
X122717200Y-126677700D02*
X118804900Y-130590000D01*
X122717200Y-101885700D02*
X122717200Y-126677700D01*
X130803700Y-93799200D02*
X122717200Y-101885700D01*
X130803700Y-87328000D02*
X130803700Y-93799200D01*
%TO.N,A*%
X213420000Y-92590000D02*
X214690000Y-93860000D01*
X213420000Y-78232200D02*
X213420000Y-92590000D01*
X212537800Y-77350000D02*
X213420000Y-78232200D01*
X211775500Y-77350000D02*
X212537800Y-77350000D01*
X209711800Y-75286300D02*
X211775500Y-77350000D01*
X209711800Y-66421800D02*
X209711800Y-75286300D01*
X202690000Y-59400000D02*
X209711800Y-66421800D01*
X213301700Y-95248300D02*
X214690000Y-93860000D01*
X213301700Y-96933600D02*
X213301700Y-95248300D01*
X212506900Y-97728400D02*
X213301700Y-96933600D01*
X211657600Y-97728400D02*
X212506900Y-97728400D01*
X204205500Y-105180500D02*
X211657600Y-97728400D01*
X204205500Y-128964500D02*
X204205500Y-105180500D01*
X201810000Y-131360000D02*
X204205500Y-128964500D01*
%TO.N,C*%
X213402100Y-97687900D02*
X214690000Y-96400000D01*
X213402100Y-124847900D02*
X213402100Y-97687900D01*
X201810000Y-136440000D02*
X213402100Y-124847900D01*
X202690000Y-92969700D02*
X202376500Y-93283200D01*
X202690000Y-64480000D02*
X202690000Y-92969700D01*
X116083600Y-61746400D02*
X116810000Y-61020000D01*
X114673600Y-61746400D02*
X116083600Y-61746400D01*
%TO.N,Mux6 INH*%
X157380100Y-131589900D02*
X153570000Y-135400000D01*
X157380100Y-91029200D02*
X157380100Y-131589900D01*
X169572300Y-78837000D02*
X157380100Y-91029200D01*
%TO.N,B*%
X208894200Y-93144200D02*
X212150000Y-96400000D01*
X208894200Y-68144200D02*
X208894200Y-93144200D01*
X202690000Y-61940000D02*
X208894200Y-68144200D01*
X203565600Y-104984400D02*
X212150000Y-96400000D01*
X203565600Y-128456200D02*
X203565600Y-104984400D01*
X201931800Y-130090000D02*
X203565600Y-128456200D01*
X201652400Y-130090000D02*
X201931800Y-130090000D01*
X200854300Y-130888100D02*
X201652400Y-130090000D01*
X200854300Y-132944300D02*
X200854300Y-130888100D01*
X201810000Y-133900000D02*
X200854300Y-132944300D01*
%TO.N,Mux5 INH*%
X205358700Y-101928500D02*
X205358700Y-80472000D01*
X202759400Y-104527800D02*
X205358700Y-101928500D01*
X202759400Y-126685200D02*
X202759400Y-104527800D01*
X202203100Y-127241500D02*
X202759400Y-126685200D01*
X198308500Y-127241500D02*
X202203100Y-127241500D01*
X194190000Y-131360000D02*
X198308500Y-127241500D01*
%TO.N,Mux4 INH*%
X77124100Y-66484800D02*
X84443900Y-73804600D01*
X77124100Y-52794100D02*
X77124100Y-66484800D01*
X68380000Y-44050000D02*
X77124100Y-52794100D01*
%TO.N,Mux2 INH*%
X154661300Y-59831300D02*
X151070000Y-56240000D01*
X154661300Y-63694500D02*
X154661300Y-59831300D01*
%TO.N,Mux1 INH*%
X201244200Y-59391400D02*
X201244200Y-59645900D01*
X202194400Y-58441200D02*
X201244200Y-59391400D01*
X203078700Y-58441200D02*
X202194400Y-58441200D01*
X212150000Y-67512500D02*
X203078700Y-58441200D01*
X212150000Y-73540000D02*
X212150000Y-67512500D01*
%TO.N,TXD From ESP32*%
X231420000Y-53430000D02*
X232690000Y-52160000D01*
X231420000Y-79164500D02*
X231420000Y-53430000D01*
X226234100Y-84350400D02*
X231420000Y-79164500D01*
%TO.N,RXD From ESP32*%
X229862000Y-53311700D02*
X230150000Y-53311700D01*
X228998300Y-54175400D02*
X229862000Y-53311700D01*
X228998300Y-69391700D02*
X228998300Y-54175400D01*
X214690000Y-83700000D02*
X228998300Y-69391700D01*
X230150000Y-52160000D02*
X230150000Y-53311700D01*
%TD*%
M02*
