%TF.GenerationSoftware,KiCad,Pcbnew,9.0.4*%
%TF.CreationDate,2025-10-01T15:50:43-05:00*%
%TF.ProjectId,Chess_Electronics,43686573-735f-4456-9c65-6374726f6e69,rev?*%
%TF.SameCoordinates,Original*%
%TF.FileFunction,Legend,Top*%
%TF.FilePolarity,Positive*%
%FSLAX46Y46*%
G04 Gerber Fmt 4.6, Leading zero omitted, Abs format (unit mm)*
G04 Created by KiCad (PCBNEW 9.0.4) date 2025-10-01 15:50:43*
%MOMM*%
%LPD*%
G01*
G04 APERTURE LIST*
%ADD10C,0.150000*%
%ADD11C,0.120000*%
%ADD12C,0.152400*%
%ADD13C,0.127000*%
%ADD14C,0.200000*%
G04 APERTURE END LIST*
D10*
X100797142Y-116199580D02*
X100749523Y-116247200D01*
X100749523Y-116247200D02*
X100606666Y-116294819D01*
X100606666Y-116294819D02*
X100511428Y-116294819D01*
X100511428Y-116294819D02*
X100368571Y-116247200D01*
X100368571Y-116247200D02*
X100273333Y-116151961D01*
X100273333Y-116151961D02*
X100225714Y-116056723D01*
X100225714Y-116056723D02*
X100178095Y-115866247D01*
X100178095Y-115866247D02*
X100178095Y-115723390D01*
X100178095Y-115723390D02*
X100225714Y-115532914D01*
X100225714Y-115532914D02*
X100273333Y-115437676D01*
X100273333Y-115437676D02*
X100368571Y-115342438D01*
X100368571Y-115342438D02*
X100511428Y-115294819D01*
X100511428Y-115294819D02*
X100606666Y-115294819D01*
X100606666Y-115294819D02*
X100749523Y-115342438D01*
X100749523Y-115342438D02*
X100797142Y-115390057D01*
X101701904Y-115294819D02*
X101225714Y-115294819D01*
X101225714Y-115294819D02*
X101178095Y-115771009D01*
X101178095Y-115771009D02*
X101225714Y-115723390D01*
X101225714Y-115723390D02*
X101320952Y-115675771D01*
X101320952Y-115675771D02*
X101559047Y-115675771D01*
X101559047Y-115675771D02*
X101654285Y-115723390D01*
X101654285Y-115723390D02*
X101701904Y-115771009D01*
X101701904Y-115771009D02*
X101749523Y-115866247D01*
X101749523Y-115866247D02*
X101749523Y-116104342D01*
X101749523Y-116104342D02*
X101701904Y-116199580D01*
X101701904Y-116199580D02*
X101654285Y-116247200D01*
X101654285Y-116247200D02*
X101559047Y-116294819D01*
X101559047Y-116294819D02*
X101320952Y-116294819D01*
X101320952Y-116294819D02*
X101225714Y-116247200D01*
X101225714Y-116247200D02*
X101178095Y-116199580D01*
X102082857Y-115294819D02*
X102749523Y-115294819D01*
X102749523Y-115294819D02*
X102320952Y-116294819D01*
X198118095Y-55044819D02*
X198118095Y-55854342D01*
X198118095Y-55854342D02*
X198165714Y-55949580D01*
X198165714Y-55949580D02*
X198213333Y-55997200D01*
X198213333Y-55997200D02*
X198308571Y-56044819D01*
X198308571Y-56044819D02*
X198499047Y-56044819D01*
X198499047Y-56044819D02*
X198594285Y-55997200D01*
X198594285Y-55997200D02*
X198641904Y-55949580D01*
X198641904Y-55949580D02*
X198689523Y-55854342D01*
X198689523Y-55854342D02*
X198689523Y-55044819D01*
X199689523Y-56044819D02*
X199118095Y-56044819D01*
X199403809Y-56044819D02*
X199403809Y-55044819D01*
X199403809Y-55044819D02*
X199308571Y-55187676D01*
X199308571Y-55187676D02*
X199213333Y-55282914D01*
X199213333Y-55282914D02*
X199118095Y-55330533D01*
X195070000Y-44745119D02*
X195070000Y-44983214D01*
X194831905Y-44887976D02*
X195070000Y-44983214D01*
X195070000Y-44983214D02*
X195308095Y-44887976D01*
X194927143Y-45173690D02*
X195070000Y-44983214D01*
X195070000Y-44983214D02*
X195212857Y-45173690D01*
X58297142Y-124499580D02*
X58249523Y-124547200D01*
X58249523Y-124547200D02*
X58106666Y-124594819D01*
X58106666Y-124594819D02*
X58011428Y-124594819D01*
X58011428Y-124594819D02*
X57868571Y-124547200D01*
X57868571Y-124547200D02*
X57773333Y-124451961D01*
X57773333Y-124451961D02*
X57725714Y-124356723D01*
X57725714Y-124356723D02*
X57678095Y-124166247D01*
X57678095Y-124166247D02*
X57678095Y-124023390D01*
X57678095Y-124023390D02*
X57725714Y-123832914D01*
X57725714Y-123832914D02*
X57773333Y-123737676D01*
X57773333Y-123737676D02*
X57868571Y-123642438D01*
X57868571Y-123642438D02*
X58011428Y-123594819D01*
X58011428Y-123594819D02*
X58106666Y-123594819D01*
X58106666Y-123594819D02*
X58249523Y-123642438D01*
X58249523Y-123642438D02*
X58297142Y-123690057D01*
X59154285Y-123594819D02*
X58963809Y-123594819D01*
X58963809Y-123594819D02*
X58868571Y-123642438D01*
X58868571Y-123642438D02*
X58820952Y-123690057D01*
X58820952Y-123690057D02*
X58725714Y-123832914D01*
X58725714Y-123832914D02*
X58678095Y-124023390D01*
X58678095Y-124023390D02*
X58678095Y-124404342D01*
X58678095Y-124404342D02*
X58725714Y-124499580D01*
X58725714Y-124499580D02*
X58773333Y-124547200D01*
X58773333Y-124547200D02*
X58868571Y-124594819D01*
X58868571Y-124594819D02*
X59059047Y-124594819D01*
X59059047Y-124594819D02*
X59154285Y-124547200D01*
X59154285Y-124547200D02*
X59201904Y-124499580D01*
X59201904Y-124499580D02*
X59249523Y-124404342D01*
X59249523Y-124404342D02*
X59249523Y-124166247D01*
X59249523Y-124166247D02*
X59201904Y-124071009D01*
X59201904Y-124071009D02*
X59154285Y-124023390D01*
X59154285Y-124023390D02*
X59059047Y-123975771D01*
X59059047Y-123975771D02*
X58868571Y-123975771D01*
X58868571Y-123975771D02*
X58773333Y-124023390D01*
X58773333Y-124023390D02*
X58725714Y-124071009D01*
X58725714Y-124071009D02*
X58678095Y-124166247D01*
X59630476Y-123690057D02*
X59678095Y-123642438D01*
X59678095Y-123642438D02*
X59773333Y-123594819D01*
X59773333Y-123594819D02*
X60011428Y-123594819D01*
X60011428Y-123594819D02*
X60106666Y-123642438D01*
X60106666Y-123642438D02*
X60154285Y-123690057D01*
X60154285Y-123690057D02*
X60201904Y-123785295D01*
X60201904Y-123785295D02*
X60201904Y-123880533D01*
X60201904Y-123880533D02*
X60154285Y-124023390D01*
X60154285Y-124023390D02*
X59582857Y-124594819D01*
X59582857Y-124594819D02*
X60201904Y-124594819D01*
X98797142Y-46899580D02*
X98749523Y-46947200D01*
X98749523Y-46947200D02*
X98606666Y-46994819D01*
X98606666Y-46994819D02*
X98511428Y-46994819D01*
X98511428Y-46994819D02*
X98368571Y-46947200D01*
X98368571Y-46947200D02*
X98273333Y-46851961D01*
X98273333Y-46851961D02*
X98225714Y-46756723D01*
X98225714Y-46756723D02*
X98178095Y-46566247D01*
X98178095Y-46566247D02*
X98178095Y-46423390D01*
X98178095Y-46423390D02*
X98225714Y-46232914D01*
X98225714Y-46232914D02*
X98273333Y-46137676D01*
X98273333Y-46137676D02*
X98368571Y-46042438D01*
X98368571Y-46042438D02*
X98511428Y-45994819D01*
X98511428Y-45994819D02*
X98606666Y-45994819D01*
X98606666Y-45994819D02*
X98749523Y-46042438D01*
X98749523Y-46042438D02*
X98797142Y-46090057D01*
X99178095Y-46090057D02*
X99225714Y-46042438D01*
X99225714Y-46042438D02*
X99320952Y-45994819D01*
X99320952Y-45994819D02*
X99559047Y-45994819D01*
X99559047Y-45994819D02*
X99654285Y-46042438D01*
X99654285Y-46042438D02*
X99701904Y-46090057D01*
X99701904Y-46090057D02*
X99749523Y-46185295D01*
X99749523Y-46185295D02*
X99749523Y-46280533D01*
X99749523Y-46280533D02*
X99701904Y-46423390D01*
X99701904Y-46423390D02*
X99130476Y-46994819D01*
X99130476Y-46994819D02*
X99749523Y-46994819D01*
X100082857Y-45994819D02*
X100701904Y-45994819D01*
X100701904Y-45994819D02*
X100368571Y-46375771D01*
X100368571Y-46375771D02*
X100511428Y-46375771D01*
X100511428Y-46375771D02*
X100606666Y-46423390D01*
X100606666Y-46423390D02*
X100654285Y-46471009D01*
X100654285Y-46471009D02*
X100701904Y-46566247D01*
X100701904Y-46566247D02*
X100701904Y-46804342D01*
X100701904Y-46804342D02*
X100654285Y-46899580D01*
X100654285Y-46899580D02*
X100606666Y-46947200D01*
X100606666Y-46947200D02*
X100511428Y-46994819D01*
X100511428Y-46994819D02*
X100225714Y-46994819D01*
X100225714Y-46994819D02*
X100130476Y-46947200D01*
X100130476Y-46947200D02*
X100082857Y-46899580D01*
X154118095Y-51884819D02*
X154118095Y-52694342D01*
X154118095Y-52694342D02*
X154165714Y-52789580D01*
X154165714Y-52789580D02*
X154213333Y-52837200D01*
X154213333Y-52837200D02*
X154308571Y-52884819D01*
X154308571Y-52884819D02*
X154499047Y-52884819D01*
X154499047Y-52884819D02*
X154594285Y-52837200D01*
X154594285Y-52837200D02*
X154641904Y-52789580D01*
X154641904Y-52789580D02*
X154689523Y-52694342D01*
X154689523Y-52694342D02*
X154689523Y-51884819D01*
X155118095Y-51980057D02*
X155165714Y-51932438D01*
X155165714Y-51932438D02*
X155260952Y-51884819D01*
X155260952Y-51884819D02*
X155499047Y-51884819D01*
X155499047Y-51884819D02*
X155594285Y-51932438D01*
X155594285Y-51932438D02*
X155641904Y-51980057D01*
X155641904Y-51980057D02*
X155689523Y-52075295D01*
X155689523Y-52075295D02*
X155689523Y-52170533D01*
X155689523Y-52170533D02*
X155641904Y-52313390D01*
X155641904Y-52313390D02*
X155070476Y-52884819D01*
X155070476Y-52884819D02*
X155689523Y-52884819D01*
X151070000Y-41585119D02*
X151070000Y-41823214D01*
X150831905Y-41727976D02*
X151070000Y-41823214D01*
X151070000Y-41823214D02*
X151308095Y-41727976D01*
X150927143Y-42013690D02*
X151070000Y-41823214D01*
X151070000Y-41823214D02*
X151212857Y-42013690D01*
X58297142Y-132799580D02*
X58249523Y-132847200D01*
X58249523Y-132847200D02*
X58106666Y-132894819D01*
X58106666Y-132894819D02*
X58011428Y-132894819D01*
X58011428Y-132894819D02*
X57868571Y-132847200D01*
X57868571Y-132847200D02*
X57773333Y-132751961D01*
X57773333Y-132751961D02*
X57725714Y-132656723D01*
X57725714Y-132656723D02*
X57678095Y-132466247D01*
X57678095Y-132466247D02*
X57678095Y-132323390D01*
X57678095Y-132323390D02*
X57725714Y-132132914D01*
X57725714Y-132132914D02*
X57773333Y-132037676D01*
X57773333Y-132037676D02*
X57868571Y-131942438D01*
X57868571Y-131942438D02*
X58011428Y-131894819D01*
X58011428Y-131894819D02*
X58106666Y-131894819D01*
X58106666Y-131894819D02*
X58249523Y-131942438D01*
X58249523Y-131942438D02*
X58297142Y-131990057D01*
X59154285Y-131894819D02*
X58963809Y-131894819D01*
X58963809Y-131894819D02*
X58868571Y-131942438D01*
X58868571Y-131942438D02*
X58820952Y-131990057D01*
X58820952Y-131990057D02*
X58725714Y-132132914D01*
X58725714Y-132132914D02*
X58678095Y-132323390D01*
X58678095Y-132323390D02*
X58678095Y-132704342D01*
X58678095Y-132704342D02*
X58725714Y-132799580D01*
X58725714Y-132799580D02*
X58773333Y-132847200D01*
X58773333Y-132847200D02*
X58868571Y-132894819D01*
X58868571Y-132894819D02*
X59059047Y-132894819D01*
X59059047Y-132894819D02*
X59154285Y-132847200D01*
X59154285Y-132847200D02*
X59201904Y-132799580D01*
X59201904Y-132799580D02*
X59249523Y-132704342D01*
X59249523Y-132704342D02*
X59249523Y-132466247D01*
X59249523Y-132466247D02*
X59201904Y-132371009D01*
X59201904Y-132371009D02*
X59154285Y-132323390D01*
X59154285Y-132323390D02*
X59059047Y-132275771D01*
X59059047Y-132275771D02*
X58868571Y-132275771D01*
X58868571Y-132275771D02*
X58773333Y-132323390D01*
X58773333Y-132323390D02*
X58725714Y-132371009D01*
X58725714Y-132371009D02*
X58678095Y-132466247D01*
X59868571Y-131894819D02*
X59963809Y-131894819D01*
X59963809Y-131894819D02*
X60059047Y-131942438D01*
X60059047Y-131942438D02*
X60106666Y-131990057D01*
X60106666Y-131990057D02*
X60154285Y-132085295D01*
X60154285Y-132085295D02*
X60201904Y-132275771D01*
X60201904Y-132275771D02*
X60201904Y-132513866D01*
X60201904Y-132513866D02*
X60154285Y-132704342D01*
X60154285Y-132704342D02*
X60106666Y-132799580D01*
X60106666Y-132799580D02*
X60059047Y-132847200D01*
X60059047Y-132847200D02*
X59963809Y-132894819D01*
X59963809Y-132894819D02*
X59868571Y-132894819D01*
X59868571Y-132894819D02*
X59773333Y-132847200D01*
X59773333Y-132847200D02*
X59725714Y-132799580D01*
X59725714Y-132799580D02*
X59678095Y-132704342D01*
X59678095Y-132704342D02*
X59630476Y-132513866D01*
X59630476Y-132513866D02*
X59630476Y-132275771D01*
X59630476Y-132275771D02*
X59678095Y-132085295D01*
X59678095Y-132085295D02*
X59725714Y-131990057D01*
X59725714Y-131990057D02*
X59773333Y-131942438D01*
X59773333Y-131942438D02*
X59868571Y-131894819D01*
X55107142Y-55709580D02*
X55059523Y-55757200D01*
X55059523Y-55757200D02*
X54916666Y-55804819D01*
X54916666Y-55804819D02*
X54821428Y-55804819D01*
X54821428Y-55804819D02*
X54678571Y-55757200D01*
X54678571Y-55757200D02*
X54583333Y-55661961D01*
X54583333Y-55661961D02*
X54535714Y-55566723D01*
X54535714Y-55566723D02*
X54488095Y-55376247D01*
X54488095Y-55376247D02*
X54488095Y-55233390D01*
X54488095Y-55233390D02*
X54535714Y-55042914D01*
X54535714Y-55042914D02*
X54583333Y-54947676D01*
X54583333Y-54947676D02*
X54678571Y-54852438D01*
X54678571Y-54852438D02*
X54821428Y-54804819D01*
X54821428Y-54804819D02*
X54916666Y-54804819D01*
X54916666Y-54804819D02*
X55059523Y-54852438D01*
X55059523Y-54852438D02*
X55107142Y-54900057D01*
X55488095Y-54900057D02*
X55535714Y-54852438D01*
X55535714Y-54852438D02*
X55630952Y-54804819D01*
X55630952Y-54804819D02*
X55869047Y-54804819D01*
X55869047Y-54804819D02*
X55964285Y-54852438D01*
X55964285Y-54852438D02*
X56011904Y-54900057D01*
X56011904Y-54900057D02*
X56059523Y-54995295D01*
X56059523Y-54995295D02*
X56059523Y-55090533D01*
X56059523Y-55090533D02*
X56011904Y-55233390D01*
X56011904Y-55233390D02*
X55440476Y-55804819D01*
X55440476Y-55804819D02*
X56059523Y-55804819D01*
X56916666Y-54804819D02*
X56726190Y-54804819D01*
X56726190Y-54804819D02*
X56630952Y-54852438D01*
X56630952Y-54852438D02*
X56583333Y-54900057D01*
X56583333Y-54900057D02*
X56488095Y-55042914D01*
X56488095Y-55042914D02*
X56440476Y-55233390D01*
X56440476Y-55233390D02*
X56440476Y-55614342D01*
X56440476Y-55614342D02*
X56488095Y-55709580D01*
X56488095Y-55709580D02*
X56535714Y-55757200D01*
X56535714Y-55757200D02*
X56630952Y-55804819D01*
X56630952Y-55804819D02*
X56821428Y-55804819D01*
X56821428Y-55804819D02*
X56916666Y-55757200D01*
X56916666Y-55757200D02*
X56964285Y-55709580D01*
X56964285Y-55709580D02*
X57011904Y-55614342D01*
X57011904Y-55614342D02*
X57011904Y-55376247D01*
X57011904Y-55376247D02*
X56964285Y-55281009D01*
X56964285Y-55281009D02*
X56916666Y-55233390D01*
X56916666Y-55233390D02*
X56821428Y-55185771D01*
X56821428Y-55185771D02*
X56630952Y-55185771D01*
X56630952Y-55185771D02*
X56535714Y-55233390D01*
X56535714Y-55233390D02*
X56488095Y-55281009D01*
X56488095Y-55281009D02*
X56440476Y-55376247D01*
X185273333Y-71499580D02*
X185225714Y-71547200D01*
X185225714Y-71547200D02*
X185082857Y-71594819D01*
X185082857Y-71594819D02*
X184987619Y-71594819D01*
X184987619Y-71594819D02*
X184844762Y-71547200D01*
X184844762Y-71547200D02*
X184749524Y-71451961D01*
X184749524Y-71451961D02*
X184701905Y-71356723D01*
X184701905Y-71356723D02*
X184654286Y-71166247D01*
X184654286Y-71166247D02*
X184654286Y-71023390D01*
X184654286Y-71023390D02*
X184701905Y-70832914D01*
X184701905Y-70832914D02*
X184749524Y-70737676D01*
X184749524Y-70737676D02*
X184844762Y-70642438D01*
X184844762Y-70642438D02*
X184987619Y-70594819D01*
X184987619Y-70594819D02*
X185082857Y-70594819D01*
X185082857Y-70594819D02*
X185225714Y-70642438D01*
X185225714Y-70642438D02*
X185273333Y-70690057D01*
X185654286Y-70690057D02*
X185701905Y-70642438D01*
X185701905Y-70642438D02*
X185797143Y-70594819D01*
X185797143Y-70594819D02*
X186035238Y-70594819D01*
X186035238Y-70594819D02*
X186130476Y-70642438D01*
X186130476Y-70642438D02*
X186178095Y-70690057D01*
X186178095Y-70690057D02*
X186225714Y-70785295D01*
X186225714Y-70785295D02*
X186225714Y-70880533D01*
X186225714Y-70880533D02*
X186178095Y-71023390D01*
X186178095Y-71023390D02*
X185606667Y-71594819D01*
X185606667Y-71594819D02*
X186225714Y-71594819D01*
X143297142Y-136659580D02*
X143249523Y-136707200D01*
X143249523Y-136707200D02*
X143106666Y-136754819D01*
X143106666Y-136754819D02*
X143011428Y-136754819D01*
X143011428Y-136754819D02*
X142868571Y-136707200D01*
X142868571Y-136707200D02*
X142773333Y-136611961D01*
X142773333Y-136611961D02*
X142725714Y-136516723D01*
X142725714Y-136516723D02*
X142678095Y-136326247D01*
X142678095Y-136326247D02*
X142678095Y-136183390D01*
X142678095Y-136183390D02*
X142725714Y-135992914D01*
X142725714Y-135992914D02*
X142773333Y-135897676D01*
X142773333Y-135897676D02*
X142868571Y-135802438D01*
X142868571Y-135802438D02*
X143011428Y-135754819D01*
X143011428Y-135754819D02*
X143106666Y-135754819D01*
X143106666Y-135754819D02*
X143249523Y-135802438D01*
X143249523Y-135802438D02*
X143297142Y-135850057D01*
X144154285Y-136088152D02*
X144154285Y-136754819D01*
X143916190Y-135707200D02*
X143678095Y-136421485D01*
X143678095Y-136421485D02*
X144297142Y-136421485D01*
X145154285Y-135754819D02*
X144678095Y-135754819D01*
X144678095Y-135754819D02*
X144630476Y-136231009D01*
X144630476Y-136231009D02*
X144678095Y-136183390D01*
X144678095Y-136183390D02*
X144773333Y-136135771D01*
X144773333Y-136135771D02*
X145011428Y-136135771D01*
X145011428Y-136135771D02*
X145106666Y-136183390D01*
X145106666Y-136183390D02*
X145154285Y-136231009D01*
X145154285Y-136231009D02*
X145201904Y-136326247D01*
X145201904Y-136326247D02*
X145201904Y-136564342D01*
X145201904Y-136564342D02*
X145154285Y-136659580D01*
X145154285Y-136659580D02*
X145106666Y-136707200D01*
X145106666Y-136707200D02*
X145011428Y-136754819D01*
X145011428Y-136754819D02*
X144773333Y-136754819D01*
X144773333Y-136754819D02*
X144678095Y-136707200D01*
X144678095Y-136707200D02*
X144630476Y-136659580D01*
X55107142Y-51559580D02*
X55059523Y-51607200D01*
X55059523Y-51607200D02*
X54916666Y-51654819D01*
X54916666Y-51654819D02*
X54821428Y-51654819D01*
X54821428Y-51654819D02*
X54678571Y-51607200D01*
X54678571Y-51607200D02*
X54583333Y-51511961D01*
X54583333Y-51511961D02*
X54535714Y-51416723D01*
X54535714Y-51416723D02*
X54488095Y-51226247D01*
X54488095Y-51226247D02*
X54488095Y-51083390D01*
X54488095Y-51083390D02*
X54535714Y-50892914D01*
X54535714Y-50892914D02*
X54583333Y-50797676D01*
X54583333Y-50797676D02*
X54678571Y-50702438D01*
X54678571Y-50702438D02*
X54821428Y-50654819D01*
X54821428Y-50654819D02*
X54916666Y-50654819D01*
X54916666Y-50654819D02*
X55059523Y-50702438D01*
X55059523Y-50702438D02*
X55107142Y-50750057D01*
X55488095Y-50750057D02*
X55535714Y-50702438D01*
X55535714Y-50702438D02*
X55630952Y-50654819D01*
X55630952Y-50654819D02*
X55869047Y-50654819D01*
X55869047Y-50654819D02*
X55964285Y-50702438D01*
X55964285Y-50702438D02*
X56011904Y-50750057D01*
X56011904Y-50750057D02*
X56059523Y-50845295D01*
X56059523Y-50845295D02*
X56059523Y-50940533D01*
X56059523Y-50940533D02*
X56011904Y-51083390D01*
X56011904Y-51083390D02*
X55440476Y-51654819D01*
X55440476Y-51654819D02*
X56059523Y-51654819D01*
X56392857Y-50654819D02*
X57059523Y-50654819D01*
X57059523Y-50654819D02*
X56630952Y-51654819D01*
X58297142Y-128649580D02*
X58249523Y-128697200D01*
X58249523Y-128697200D02*
X58106666Y-128744819D01*
X58106666Y-128744819D02*
X58011428Y-128744819D01*
X58011428Y-128744819D02*
X57868571Y-128697200D01*
X57868571Y-128697200D02*
X57773333Y-128601961D01*
X57773333Y-128601961D02*
X57725714Y-128506723D01*
X57725714Y-128506723D02*
X57678095Y-128316247D01*
X57678095Y-128316247D02*
X57678095Y-128173390D01*
X57678095Y-128173390D02*
X57725714Y-127982914D01*
X57725714Y-127982914D02*
X57773333Y-127887676D01*
X57773333Y-127887676D02*
X57868571Y-127792438D01*
X57868571Y-127792438D02*
X58011428Y-127744819D01*
X58011428Y-127744819D02*
X58106666Y-127744819D01*
X58106666Y-127744819D02*
X58249523Y-127792438D01*
X58249523Y-127792438D02*
X58297142Y-127840057D01*
X59154285Y-127744819D02*
X58963809Y-127744819D01*
X58963809Y-127744819D02*
X58868571Y-127792438D01*
X58868571Y-127792438D02*
X58820952Y-127840057D01*
X58820952Y-127840057D02*
X58725714Y-127982914D01*
X58725714Y-127982914D02*
X58678095Y-128173390D01*
X58678095Y-128173390D02*
X58678095Y-128554342D01*
X58678095Y-128554342D02*
X58725714Y-128649580D01*
X58725714Y-128649580D02*
X58773333Y-128697200D01*
X58773333Y-128697200D02*
X58868571Y-128744819D01*
X58868571Y-128744819D02*
X59059047Y-128744819D01*
X59059047Y-128744819D02*
X59154285Y-128697200D01*
X59154285Y-128697200D02*
X59201904Y-128649580D01*
X59201904Y-128649580D02*
X59249523Y-128554342D01*
X59249523Y-128554342D02*
X59249523Y-128316247D01*
X59249523Y-128316247D02*
X59201904Y-128221009D01*
X59201904Y-128221009D02*
X59154285Y-128173390D01*
X59154285Y-128173390D02*
X59059047Y-128125771D01*
X59059047Y-128125771D02*
X58868571Y-128125771D01*
X58868571Y-128125771D02*
X58773333Y-128173390D01*
X58773333Y-128173390D02*
X58725714Y-128221009D01*
X58725714Y-128221009D02*
X58678095Y-128316247D01*
X60201904Y-128744819D02*
X59630476Y-128744819D01*
X59916190Y-128744819D02*
X59916190Y-127744819D01*
X59916190Y-127744819D02*
X59820952Y-127887676D01*
X59820952Y-127887676D02*
X59725714Y-127982914D01*
X59725714Y-127982914D02*
X59630476Y-128030533D01*
X100797142Y-128999580D02*
X100749523Y-129047200D01*
X100749523Y-129047200D02*
X100606666Y-129094819D01*
X100606666Y-129094819D02*
X100511428Y-129094819D01*
X100511428Y-129094819D02*
X100368571Y-129047200D01*
X100368571Y-129047200D02*
X100273333Y-128951961D01*
X100273333Y-128951961D02*
X100225714Y-128856723D01*
X100225714Y-128856723D02*
X100178095Y-128666247D01*
X100178095Y-128666247D02*
X100178095Y-128523390D01*
X100178095Y-128523390D02*
X100225714Y-128332914D01*
X100225714Y-128332914D02*
X100273333Y-128237676D01*
X100273333Y-128237676D02*
X100368571Y-128142438D01*
X100368571Y-128142438D02*
X100511428Y-128094819D01*
X100511428Y-128094819D02*
X100606666Y-128094819D01*
X100606666Y-128094819D02*
X100749523Y-128142438D01*
X100749523Y-128142438D02*
X100797142Y-128190057D01*
X101701904Y-128094819D02*
X101225714Y-128094819D01*
X101225714Y-128094819D02*
X101178095Y-128571009D01*
X101178095Y-128571009D02*
X101225714Y-128523390D01*
X101225714Y-128523390D02*
X101320952Y-128475771D01*
X101320952Y-128475771D02*
X101559047Y-128475771D01*
X101559047Y-128475771D02*
X101654285Y-128523390D01*
X101654285Y-128523390D02*
X101701904Y-128571009D01*
X101701904Y-128571009D02*
X101749523Y-128666247D01*
X101749523Y-128666247D02*
X101749523Y-128904342D01*
X101749523Y-128904342D02*
X101701904Y-128999580D01*
X101701904Y-128999580D02*
X101654285Y-129047200D01*
X101654285Y-129047200D02*
X101559047Y-129094819D01*
X101559047Y-129094819D02*
X101320952Y-129094819D01*
X101320952Y-129094819D02*
X101225714Y-129047200D01*
X101225714Y-129047200D02*
X101178095Y-128999580D01*
X102606666Y-128428152D02*
X102606666Y-129094819D01*
X102368571Y-128047200D02*
X102130476Y-128761485D01*
X102130476Y-128761485D02*
X102749523Y-128761485D01*
X183797142Y-119009580D02*
X183749523Y-119057200D01*
X183749523Y-119057200D02*
X183606666Y-119104819D01*
X183606666Y-119104819D02*
X183511428Y-119104819D01*
X183511428Y-119104819D02*
X183368571Y-119057200D01*
X183368571Y-119057200D02*
X183273333Y-118961961D01*
X183273333Y-118961961D02*
X183225714Y-118866723D01*
X183225714Y-118866723D02*
X183178095Y-118676247D01*
X183178095Y-118676247D02*
X183178095Y-118533390D01*
X183178095Y-118533390D02*
X183225714Y-118342914D01*
X183225714Y-118342914D02*
X183273333Y-118247676D01*
X183273333Y-118247676D02*
X183368571Y-118152438D01*
X183368571Y-118152438D02*
X183511428Y-118104819D01*
X183511428Y-118104819D02*
X183606666Y-118104819D01*
X183606666Y-118104819D02*
X183749523Y-118152438D01*
X183749523Y-118152438D02*
X183797142Y-118200057D01*
X184654285Y-118438152D02*
X184654285Y-119104819D01*
X184416190Y-118057200D02*
X184178095Y-118771485D01*
X184178095Y-118771485D02*
X184797142Y-118771485D01*
X185368571Y-118104819D02*
X185463809Y-118104819D01*
X185463809Y-118104819D02*
X185559047Y-118152438D01*
X185559047Y-118152438D02*
X185606666Y-118200057D01*
X185606666Y-118200057D02*
X185654285Y-118295295D01*
X185654285Y-118295295D02*
X185701904Y-118485771D01*
X185701904Y-118485771D02*
X185701904Y-118723866D01*
X185701904Y-118723866D02*
X185654285Y-118914342D01*
X185654285Y-118914342D02*
X185606666Y-119009580D01*
X185606666Y-119009580D02*
X185559047Y-119057200D01*
X185559047Y-119057200D02*
X185463809Y-119104819D01*
X185463809Y-119104819D02*
X185368571Y-119104819D01*
X185368571Y-119104819D02*
X185273333Y-119057200D01*
X185273333Y-119057200D02*
X185225714Y-119009580D01*
X185225714Y-119009580D02*
X185178095Y-118914342D01*
X185178095Y-118914342D02*
X185130476Y-118723866D01*
X185130476Y-118723866D02*
X185130476Y-118485771D01*
X185130476Y-118485771D02*
X185178095Y-118295295D01*
X185178095Y-118295295D02*
X185225714Y-118200057D01*
X185225714Y-118200057D02*
X185273333Y-118152438D01*
X185273333Y-118152438D02*
X185368571Y-118104819D01*
X143297142Y-140809580D02*
X143249523Y-140857200D01*
X143249523Y-140857200D02*
X143106666Y-140904819D01*
X143106666Y-140904819D02*
X143011428Y-140904819D01*
X143011428Y-140904819D02*
X142868571Y-140857200D01*
X142868571Y-140857200D02*
X142773333Y-140761961D01*
X142773333Y-140761961D02*
X142725714Y-140666723D01*
X142725714Y-140666723D02*
X142678095Y-140476247D01*
X142678095Y-140476247D02*
X142678095Y-140333390D01*
X142678095Y-140333390D02*
X142725714Y-140142914D01*
X142725714Y-140142914D02*
X142773333Y-140047676D01*
X142773333Y-140047676D02*
X142868571Y-139952438D01*
X142868571Y-139952438D02*
X143011428Y-139904819D01*
X143011428Y-139904819D02*
X143106666Y-139904819D01*
X143106666Y-139904819D02*
X143249523Y-139952438D01*
X143249523Y-139952438D02*
X143297142Y-140000057D01*
X144154285Y-140238152D02*
X144154285Y-140904819D01*
X143916190Y-139857200D02*
X143678095Y-140571485D01*
X143678095Y-140571485D02*
X144297142Y-140571485D01*
X145106666Y-140238152D02*
X145106666Y-140904819D01*
X144868571Y-139857200D02*
X144630476Y-140571485D01*
X144630476Y-140571485D02*
X145249523Y-140571485D01*
X58297142Y-116199580D02*
X58249523Y-116247200D01*
X58249523Y-116247200D02*
X58106666Y-116294819D01*
X58106666Y-116294819D02*
X58011428Y-116294819D01*
X58011428Y-116294819D02*
X57868571Y-116247200D01*
X57868571Y-116247200D02*
X57773333Y-116151961D01*
X57773333Y-116151961D02*
X57725714Y-116056723D01*
X57725714Y-116056723D02*
X57678095Y-115866247D01*
X57678095Y-115866247D02*
X57678095Y-115723390D01*
X57678095Y-115723390D02*
X57725714Y-115532914D01*
X57725714Y-115532914D02*
X57773333Y-115437676D01*
X57773333Y-115437676D02*
X57868571Y-115342438D01*
X57868571Y-115342438D02*
X58011428Y-115294819D01*
X58011428Y-115294819D02*
X58106666Y-115294819D01*
X58106666Y-115294819D02*
X58249523Y-115342438D01*
X58249523Y-115342438D02*
X58297142Y-115390057D01*
X59154285Y-115294819D02*
X58963809Y-115294819D01*
X58963809Y-115294819D02*
X58868571Y-115342438D01*
X58868571Y-115342438D02*
X58820952Y-115390057D01*
X58820952Y-115390057D02*
X58725714Y-115532914D01*
X58725714Y-115532914D02*
X58678095Y-115723390D01*
X58678095Y-115723390D02*
X58678095Y-116104342D01*
X58678095Y-116104342D02*
X58725714Y-116199580D01*
X58725714Y-116199580D02*
X58773333Y-116247200D01*
X58773333Y-116247200D02*
X58868571Y-116294819D01*
X58868571Y-116294819D02*
X59059047Y-116294819D01*
X59059047Y-116294819D02*
X59154285Y-116247200D01*
X59154285Y-116247200D02*
X59201904Y-116199580D01*
X59201904Y-116199580D02*
X59249523Y-116104342D01*
X59249523Y-116104342D02*
X59249523Y-115866247D01*
X59249523Y-115866247D02*
X59201904Y-115771009D01*
X59201904Y-115771009D02*
X59154285Y-115723390D01*
X59154285Y-115723390D02*
X59059047Y-115675771D01*
X59059047Y-115675771D02*
X58868571Y-115675771D01*
X58868571Y-115675771D02*
X58773333Y-115723390D01*
X58773333Y-115723390D02*
X58725714Y-115771009D01*
X58725714Y-115771009D02*
X58678095Y-115866247D01*
X60106666Y-115628152D02*
X60106666Y-116294819D01*
X59868571Y-115247200D02*
X59630476Y-115961485D01*
X59630476Y-115961485D02*
X60249523Y-115961485D01*
X58297142Y-136949580D02*
X58249523Y-136997200D01*
X58249523Y-136997200D02*
X58106666Y-137044819D01*
X58106666Y-137044819D02*
X58011428Y-137044819D01*
X58011428Y-137044819D02*
X57868571Y-136997200D01*
X57868571Y-136997200D02*
X57773333Y-136901961D01*
X57773333Y-136901961D02*
X57725714Y-136806723D01*
X57725714Y-136806723D02*
X57678095Y-136616247D01*
X57678095Y-136616247D02*
X57678095Y-136473390D01*
X57678095Y-136473390D02*
X57725714Y-136282914D01*
X57725714Y-136282914D02*
X57773333Y-136187676D01*
X57773333Y-136187676D02*
X57868571Y-136092438D01*
X57868571Y-136092438D02*
X58011428Y-136044819D01*
X58011428Y-136044819D02*
X58106666Y-136044819D01*
X58106666Y-136044819D02*
X58249523Y-136092438D01*
X58249523Y-136092438D02*
X58297142Y-136140057D01*
X59201904Y-136044819D02*
X58725714Y-136044819D01*
X58725714Y-136044819D02*
X58678095Y-136521009D01*
X58678095Y-136521009D02*
X58725714Y-136473390D01*
X58725714Y-136473390D02*
X58820952Y-136425771D01*
X58820952Y-136425771D02*
X59059047Y-136425771D01*
X59059047Y-136425771D02*
X59154285Y-136473390D01*
X59154285Y-136473390D02*
X59201904Y-136521009D01*
X59201904Y-136521009D02*
X59249523Y-136616247D01*
X59249523Y-136616247D02*
X59249523Y-136854342D01*
X59249523Y-136854342D02*
X59201904Y-136949580D01*
X59201904Y-136949580D02*
X59154285Y-136997200D01*
X59154285Y-136997200D02*
X59059047Y-137044819D01*
X59059047Y-137044819D02*
X58820952Y-137044819D01*
X58820952Y-137044819D02*
X58725714Y-136997200D01*
X58725714Y-136997200D02*
X58678095Y-136949580D01*
X59725714Y-137044819D02*
X59916190Y-137044819D01*
X59916190Y-137044819D02*
X60011428Y-136997200D01*
X60011428Y-136997200D02*
X60059047Y-136949580D01*
X60059047Y-136949580D02*
X60154285Y-136806723D01*
X60154285Y-136806723D02*
X60201904Y-136616247D01*
X60201904Y-136616247D02*
X60201904Y-136235295D01*
X60201904Y-136235295D02*
X60154285Y-136140057D01*
X60154285Y-136140057D02*
X60106666Y-136092438D01*
X60106666Y-136092438D02*
X60011428Y-136044819D01*
X60011428Y-136044819D02*
X59820952Y-136044819D01*
X59820952Y-136044819D02*
X59725714Y-136092438D01*
X59725714Y-136092438D02*
X59678095Y-136140057D01*
X59678095Y-136140057D02*
X59630476Y-136235295D01*
X59630476Y-136235295D02*
X59630476Y-136473390D01*
X59630476Y-136473390D02*
X59678095Y-136568628D01*
X59678095Y-136568628D02*
X59725714Y-136616247D01*
X59725714Y-136616247D02*
X59820952Y-136663866D01*
X59820952Y-136663866D02*
X60011428Y-136663866D01*
X60011428Y-136663866D02*
X60106666Y-136616247D01*
X60106666Y-136616247D02*
X60154285Y-136568628D01*
X60154285Y-136568628D02*
X60201904Y-136473390D01*
X162739866Y-91966666D02*
X163739866Y-91966666D01*
X163739866Y-91966666D02*
X163939866Y-92033333D01*
X163939866Y-92033333D02*
X164073200Y-92166666D01*
X164073200Y-92166666D02*
X164139866Y-92366666D01*
X164139866Y-92366666D02*
X164139866Y-92500000D01*
X164139866Y-90566666D02*
X164139866Y-91366666D01*
X164139866Y-90966666D02*
X162739866Y-90966666D01*
X162739866Y-90966666D02*
X162939866Y-91099999D01*
X162939866Y-91099999D02*
X163073200Y-91233333D01*
X163073200Y-91233333D02*
X163139866Y-91366666D01*
X183797142Y-114859580D02*
X183749523Y-114907200D01*
X183749523Y-114907200D02*
X183606666Y-114954819D01*
X183606666Y-114954819D02*
X183511428Y-114954819D01*
X183511428Y-114954819D02*
X183368571Y-114907200D01*
X183368571Y-114907200D02*
X183273333Y-114811961D01*
X183273333Y-114811961D02*
X183225714Y-114716723D01*
X183225714Y-114716723D02*
X183178095Y-114526247D01*
X183178095Y-114526247D02*
X183178095Y-114383390D01*
X183178095Y-114383390D02*
X183225714Y-114192914D01*
X183225714Y-114192914D02*
X183273333Y-114097676D01*
X183273333Y-114097676D02*
X183368571Y-114002438D01*
X183368571Y-114002438D02*
X183511428Y-113954819D01*
X183511428Y-113954819D02*
X183606666Y-113954819D01*
X183606666Y-113954819D02*
X183749523Y-114002438D01*
X183749523Y-114002438D02*
X183797142Y-114050057D01*
X184654285Y-114288152D02*
X184654285Y-114954819D01*
X184416190Y-113907200D02*
X184178095Y-114621485D01*
X184178095Y-114621485D02*
X184797142Y-114621485D01*
X185701904Y-114954819D02*
X185130476Y-114954819D01*
X185416190Y-114954819D02*
X185416190Y-113954819D01*
X185416190Y-113954819D02*
X185320952Y-114097676D01*
X185320952Y-114097676D02*
X185225714Y-114192914D01*
X185225714Y-114192914D02*
X185130476Y-114240533D01*
X132618866Y-16651666D02*
X133618866Y-16651666D01*
X133618866Y-16651666D02*
X133818866Y-16718333D01*
X133818866Y-16718333D02*
X133952200Y-16851666D01*
X133952200Y-16851666D02*
X134018866Y-17051666D01*
X134018866Y-17051666D02*
X134018866Y-17185000D01*
X132752200Y-16051666D02*
X132685533Y-15984999D01*
X132685533Y-15984999D02*
X132618866Y-15851666D01*
X132618866Y-15851666D02*
X132618866Y-15518333D01*
X132618866Y-15518333D02*
X132685533Y-15384999D01*
X132685533Y-15384999D02*
X132752200Y-15318333D01*
X132752200Y-15318333D02*
X132885533Y-15251666D01*
X132885533Y-15251666D02*
X133018866Y-15251666D01*
X133018866Y-15251666D02*
X133218866Y-15318333D01*
X133218866Y-15318333D02*
X134018866Y-16118333D01*
X134018866Y-16118333D02*
X134018866Y-15251666D01*
X140297142Y-42249580D02*
X140249523Y-42297200D01*
X140249523Y-42297200D02*
X140106666Y-42344819D01*
X140106666Y-42344819D02*
X140011428Y-42344819D01*
X140011428Y-42344819D02*
X139868571Y-42297200D01*
X139868571Y-42297200D02*
X139773333Y-42201961D01*
X139773333Y-42201961D02*
X139725714Y-42106723D01*
X139725714Y-42106723D02*
X139678095Y-41916247D01*
X139678095Y-41916247D02*
X139678095Y-41773390D01*
X139678095Y-41773390D02*
X139725714Y-41582914D01*
X139725714Y-41582914D02*
X139773333Y-41487676D01*
X139773333Y-41487676D02*
X139868571Y-41392438D01*
X139868571Y-41392438D02*
X140011428Y-41344819D01*
X140011428Y-41344819D02*
X140106666Y-41344819D01*
X140106666Y-41344819D02*
X140249523Y-41392438D01*
X140249523Y-41392438D02*
X140297142Y-41440057D01*
X141249523Y-42344819D02*
X140678095Y-42344819D01*
X140963809Y-42344819D02*
X140963809Y-41344819D01*
X140963809Y-41344819D02*
X140868571Y-41487676D01*
X140868571Y-41487676D02*
X140773333Y-41582914D01*
X140773333Y-41582914D02*
X140678095Y-41630533D01*
X142106666Y-41344819D02*
X141916190Y-41344819D01*
X141916190Y-41344819D02*
X141820952Y-41392438D01*
X141820952Y-41392438D02*
X141773333Y-41440057D01*
X141773333Y-41440057D02*
X141678095Y-41582914D01*
X141678095Y-41582914D02*
X141630476Y-41773390D01*
X141630476Y-41773390D02*
X141630476Y-42154342D01*
X141630476Y-42154342D02*
X141678095Y-42249580D01*
X141678095Y-42249580D02*
X141725714Y-42297200D01*
X141725714Y-42297200D02*
X141820952Y-42344819D01*
X141820952Y-42344819D02*
X142011428Y-42344819D01*
X142011428Y-42344819D02*
X142106666Y-42297200D01*
X142106666Y-42297200D02*
X142154285Y-42249580D01*
X142154285Y-42249580D02*
X142201904Y-42154342D01*
X142201904Y-42154342D02*
X142201904Y-41916247D01*
X142201904Y-41916247D02*
X142154285Y-41821009D01*
X142154285Y-41821009D02*
X142106666Y-41773390D01*
X142106666Y-41773390D02*
X142011428Y-41725771D01*
X142011428Y-41725771D02*
X141820952Y-41725771D01*
X141820952Y-41725771D02*
X141725714Y-41773390D01*
X141725714Y-41773390D02*
X141678095Y-41821009D01*
X141678095Y-41821009D02*
X141630476Y-41916247D01*
X185273333Y-54899580D02*
X185225714Y-54947200D01*
X185225714Y-54947200D02*
X185082857Y-54994819D01*
X185082857Y-54994819D02*
X184987619Y-54994819D01*
X184987619Y-54994819D02*
X184844762Y-54947200D01*
X184844762Y-54947200D02*
X184749524Y-54851961D01*
X184749524Y-54851961D02*
X184701905Y-54756723D01*
X184701905Y-54756723D02*
X184654286Y-54566247D01*
X184654286Y-54566247D02*
X184654286Y-54423390D01*
X184654286Y-54423390D02*
X184701905Y-54232914D01*
X184701905Y-54232914D02*
X184749524Y-54137676D01*
X184749524Y-54137676D02*
X184844762Y-54042438D01*
X184844762Y-54042438D02*
X184987619Y-53994819D01*
X184987619Y-53994819D02*
X185082857Y-53994819D01*
X185082857Y-53994819D02*
X185225714Y-54042438D01*
X185225714Y-54042438D02*
X185273333Y-54090057D01*
X186130476Y-53994819D02*
X185940000Y-53994819D01*
X185940000Y-53994819D02*
X185844762Y-54042438D01*
X185844762Y-54042438D02*
X185797143Y-54090057D01*
X185797143Y-54090057D02*
X185701905Y-54232914D01*
X185701905Y-54232914D02*
X185654286Y-54423390D01*
X185654286Y-54423390D02*
X185654286Y-54804342D01*
X185654286Y-54804342D02*
X185701905Y-54899580D01*
X185701905Y-54899580D02*
X185749524Y-54947200D01*
X185749524Y-54947200D02*
X185844762Y-54994819D01*
X185844762Y-54994819D02*
X186035238Y-54994819D01*
X186035238Y-54994819D02*
X186130476Y-54947200D01*
X186130476Y-54947200D02*
X186178095Y-54899580D01*
X186178095Y-54899580D02*
X186225714Y-54804342D01*
X186225714Y-54804342D02*
X186225714Y-54566247D01*
X186225714Y-54566247D02*
X186178095Y-54471009D01*
X186178095Y-54471009D02*
X186130476Y-54423390D01*
X186130476Y-54423390D02*
X186035238Y-54375771D01*
X186035238Y-54375771D02*
X185844762Y-54375771D01*
X185844762Y-54375771D02*
X185749524Y-54423390D01*
X185749524Y-54423390D02*
X185701905Y-54471009D01*
X185701905Y-54471009D02*
X185654286Y-54566247D01*
X156618095Y-131044819D02*
X156618095Y-131854342D01*
X156618095Y-131854342D02*
X156665714Y-131949580D01*
X156665714Y-131949580D02*
X156713333Y-131997200D01*
X156713333Y-131997200D02*
X156808571Y-132044819D01*
X156808571Y-132044819D02*
X156999047Y-132044819D01*
X156999047Y-132044819D02*
X157094285Y-131997200D01*
X157094285Y-131997200D02*
X157141904Y-131949580D01*
X157141904Y-131949580D02*
X157189523Y-131854342D01*
X157189523Y-131854342D02*
X157189523Y-131044819D01*
X158094285Y-131044819D02*
X157903809Y-131044819D01*
X157903809Y-131044819D02*
X157808571Y-131092438D01*
X157808571Y-131092438D02*
X157760952Y-131140057D01*
X157760952Y-131140057D02*
X157665714Y-131282914D01*
X157665714Y-131282914D02*
X157618095Y-131473390D01*
X157618095Y-131473390D02*
X157618095Y-131854342D01*
X157618095Y-131854342D02*
X157665714Y-131949580D01*
X157665714Y-131949580D02*
X157713333Y-131997200D01*
X157713333Y-131997200D02*
X157808571Y-132044819D01*
X157808571Y-132044819D02*
X157999047Y-132044819D01*
X157999047Y-132044819D02*
X158094285Y-131997200D01*
X158094285Y-131997200D02*
X158141904Y-131949580D01*
X158141904Y-131949580D02*
X158189523Y-131854342D01*
X158189523Y-131854342D02*
X158189523Y-131616247D01*
X158189523Y-131616247D02*
X158141904Y-131521009D01*
X158141904Y-131521009D02*
X158094285Y-131473390D01*
X158094285Y-131473390D02*
X157999047Y-131425771D01*
X157999047Y-131425771D02*
X157808571Y-131425771D01*
X157808571Y-131425771D02*
X157713333Y-131473390D01*
X157713333Y-131473390D02*
X157665714Y-131521009D01*
X157665714Y-131521009D02*
X157618095Y-131616247D01*
X153570000Y-120745119D02*
X153570000Y-120983214D01*
X153331905Y-120887976D02*
X153570000Y-120983214D01*
X153570000Y-120983214D02*
X153808095Y-120887976D01*
X153427143Y-121173690D02*
X153570000Y-120983214D01*
X153570000Y-120983214D02*
X153712857Y-121173690D01*
X98797142Y-55199580D02*
X98749523Y-55247200D01*
X98749523Y-55247200D02*
X98606666Y-55294819D01*
X98606666Y-55294819D02*
X98511428Y-55294819D01*
X98511428Y-55294819D02*
X98368571Y-55247200D01*
X98368571Y-55247200D02*
X98273333Y-55151961D01*
X98273333Y-55151961D02*
X98225714Y-55056723D01*
X98225714Y-55056723D02*
X98178095Y-54866247D01*
X98178095Y-54866247D02*
X98178095Y-54723390D01*
X98178095Y-54723390D02*
X98225714Y-54532914D01*
X98225714Y-54532914D02*
X98273333Y-54437676D01*
X98273333Y-54437676D02*
X98368571Y-54342438D01*
X98368571Y-54342438D02*
X98511428Y-54294819D01*
X98511428Y-54294819D02*
X98606666Y-54294819D01*
X98606666Y-54294819D02*
X98749523Y-54342438D01*
X98749523Y-54342438D02*
X98797142Y-54390057D01*
X99178095Y-54390057D02*
X99225714Y-54342438D01*
X99225714Y-54342438D02*
X99320952Y-54294819D01*
X99320952Y-54294819D02*
X99559047Y-54294819D01*
X99559047Y-54294819D02*
X99654285Y-54342438D01*
X99654285Y-54342438D02*
X99701904Y-54390057D01*
X99701904Y-54390057D02*
X99749523Y-54485295D01*
X99749523Y-54485295D02*
X99749523Y-54580533D01*
X99749523Y-54580533D02*
X99701904Y-54723390D01*
X99701904Y-54723390D02*
X99130476Y-55294819D01*
X99130476Y-55294819D02*
X99749523Y-55294819D01*
X100701904Y-55294819D02*
X100130476Y-55294819D01*
X100416190Y-55294819D02*
X100416190Y-54294819D01*
X100416190Y-54294819D02*
X100320952Y-54437676D01*
X100320952Y-54437676D02*
X100225714Y-54532914D01*
X100225714Y-54532914D02*
X100130476Y-54580533D01*
X98797142Y-42859580D02*
X98749523Y-42907200D01*
X98749523Y-42907200D02*
X98606666Y-42954819D01*
X98606666Y-42954819D02*
X98511428Y-42954819D01*
X98511428Y-42954819D02*
X98368571Y-42907200D01*
X98368571Y-42907200D02*
X98273333Y-42811961D01*
X98273333Y-42811961D02*
X98225714Y-42716723D01*
X98225714Y-42716723D02*
X98178095Y-42526247D01*
X98178095Y-42526247D02*
X98178095Y-42383390D01*
X98178095Y-42383390D02*
X98225714Y-42192914D01*
X98225714Y-42192914D02*
X98273333Y-42097676D01*
X98273333Y-42097676D02*
X98368571Y-42002438D01*
X98368571Y-42002438D02*
X98511428Y-41954819D01*
X98511428Y-41954819D02*
X98606666Y-41954819D01*
X98606666Y-41954819D02*
X98749523Y-42002438D01*
X98749523Y-42002438D02*
X98797142Y-42050057D01*
X99178095Y-42050057D02*
X99225714Y-42002438D01*
X99225714Y-42002438D02*
X99320952Y-41954819D01*
X99320952Y-41954819D02*
X99559047Y-41954819D01*
X99559047Y-41954819D02*
X99654285Y-42002438D01*
X99654285Y-42002438D02*
X99701904Y-42050057D01*
X99701904Y-42050057D02*
X99749523Y-42145295D01*
X99749523Y-42145295D02*
X99749523Y-42240533D01*
X99749523Y-42240533D02*
X99701904Y-42383390D01*
X99701904Y-42383390D02*
X99130476Y-42954819D01*
X99130476Y-42954819D02*
X99749523Y-42954819D01*
X100606666Y-42288152D02*
X100606666Y-42954819D01*
X100368571Y-41907200D02*
X100130476Y-42621485D01*
X100130476Y-42621485D02*
X100749523Y-42621485D01*
X140297142Y-50299580D02*
X140249523Y-50347200D01*
X140249523Y-50347200D02*
X140106666Y-50394819D01*
X140106666Y-50394819D02*
X140011428Y-50394819D01*
X140011428Y-50394819D02*
X139868571Y-50347200D01*
X139868571Y-50347200D02*
X139773333Y-50251961D01*
X139773333Y-50251961D02*
X139725714Y-50156723D01*
X139725714Y-50156723D02*
X139678095Y-49966247D01*
X139678095Y-49966247D02*
X139678095Y-49823390D01*
X139678095Y-49823390D02*
X139725714Y-49632914D01*
X139725714Y-49632914D02*
X139773333Y-49537676D01*
X139773333Y-49537676D02*
X139868571Y-49442438D01*
X139868571Y-49442438D02*
X140011428Y-49394819D01*
X140011428Y-49394819D02*
X140106666Y-49394819D01*
X140106666Y-49394819D02*
X140249523Y-49442438D01*
X140249523Y-49442438D02*
X140297142Y-49490057D01*
X141249523Y-50394819D02*
X140678095Y-50394819D01*
X140963809Y-50394819D02*
X140963809Y-49394819D01*
X140963809Y-49394819D02*
X140868571Y-49537676D01*
X140868571Y-49537676D02*
X140773333Y-49632914D01*
X140773333Y-49632914D02*
X140678095Y-49680533D01*
X142106666Y-49728152D02*
X142106666Y-50394819D01*
X141868571Y-49347200D02*
X141630476Y-50061485D01*
X141630476Y-50061485D02*
X142249523Y-50061485D01*
X140297142Y-38099580D02*
X140249523Y-38147200D01*
X140249523Y-38147200D02*
X140106666Y-38194819D01*
X140106666Y-38194819D02*
X140011428Y-38194819D01*
X140011428Y-38194819D02*
X139868571Y-38147200D01*
X139868571Y-38147200D02*
X139773333Y-38051961D01*
X139773333Y-38051961D02*
X139725714Y-37956723D01*
X139725714Y-37956723D02*
X139678095Y-37766247D01*
X139678095Y-37766247D02*
X139678095Y-37623390D01*
X139678095Y-37623390D02*
X139725714Y-37432914D01*
X139725714Y-37432914D02*
X139773333Y-37337676D01*
X139773333Y-37337676D02*
X139868571Y-37242438D01*
X139868571Y-37242438D02*
X140011428Y-37194819D01*
X140011428Y-37194819D02*
X140106666Y-37194819D01*
X140106666Y-37194819D02*
X140249523Y-37242438D01*
X140249523Y-37242438D02*
X140297142Y-37290057D01*
X141249523Y-38194819D02*
X140678095Y-38194819D01*
X140963809Y-38194819D02*
X140963809Y-37194819D01*
X140963809Y-37194819D02*
X140868571Y-37337676D01*
X140868571Y-37337676D02*
X140773333Y-37432914D01*
X140773333Y-37432914D02*
X140678095Y-37480533D01*
X141582857Y-37194819D02*
X142249523Y-37194819D01*
X142249523Y-37194819D02*
X141820952Y-38194819D01*
X236352345Y-92187530D02*
X236352345Y-92902040D01*
X236352345Y-92902040D02*
X236304711Y-93044942D01*
X236304711Y-93044942D02*
X236209443Y-93140211D01*
X236209443Y-93140211D02*
X236066541Y-93187845D01*
X236066541Y-93187845D02*
X235971273Y-93187845D01*
X236876320Y-93187845D02*
X237066856Y-93187845D01*
X237066856Y-93187845D02*
X237162124Y-93140211D01*
X237162124Y-93140211D02*
X237209758Y-93092576D01*
X237209758Y-93092576D02*
X237305026Y-92949674D01*
X237305026Y-92949674D02*
X237352660Y-92759138D01*
X237352660Y-92759138D02*
X237352660Y-92378066D01*
X237352660Y-92378066D02*
X237305026Y-92282798D01*
X237305026Y-92282798D02*
X237257392Y-92235164D01*
X237257392Y-92235164D02*
X237162124Y-92187530D01*
X237162124Y-92187530D02*
X236971588Y-92187530D01*
X236971588Y-92187530D02*
X236876320Y-92235164D01*
X236876320Y-92235164D02*
X236828686Y-92282798D01*
X236828686Y-92282798D02*
X236781052Y-92378066D01*
X236781052Y-92378066D02*
X236781052Y-92616236D01*
X236781052Y-92616236D02*
X236828686Y-92711504D01*
X236828686Y-92711504D02*
X236876320Y-92759138D01*
X236876320Y-92759138D02*
X236971588Y-92806772D01*
X236971588Y-92806772D02*
X237162124Y-92806772D01*
X237162124Y-92806772D02*
X237257392Y-92759138D01*
X237257392Y-92759138D02*
X237305026Y-92711504D01*
X237305026Y-92711504D02*
X237352660Y-92616236D01*
X55107142Y-47409580D02*
X55059523Y-47457200D01*
X55059523Y-47457200D02*
X54916666Y-47504819D01*
X54916666Y-47504819D02*
X54821428Y-47504819D01*
X54821428Y-47504819D02*
X54678571Y-47457200D01*
X54678571Y-47457200D02*
X54583333Y-47361961D01*
X54583333Y-47361961D02*
X54535714Y-47266723D01*
X54535714Y-47266723D02*
X54488095Y-47076247D01*
X54488095Y-47076247D02*
X54488095Y-46933390D01*
X54488095Y-46933390D02*
X54535714Y-46742914D01*
X54535714Y-46742914D02*
X54583333Y-46647676D01*
X54583333Y-46647676D02*
X54678571Y-46552438D01*
X54678571Y-46552438D02*
X54821428Y-46504819D01*
X54821428Y-46504819D02*
X54916666Y-46504819D01*
X54916666Y-46504819D02*
X55059523Y-46552438D01*
X55059523Y-46552438D02*
X55107142Y-46600057D01*
X55488095Y-46600057D02*
X55535714Y-46552438D01*
X55535714Y-46552438D02*
X55630952Y-46504819D01*
X55630952Y-46504819D02*
X55869047Y-46504819D01*
X55869047Y-46504819D02*
X55964285Y-46552438D01*
X55964285Y-46552438D02*
X56011904Y-46600057D01*
X56011904Y-46600057D02*
X56059523Y-46695295D01*
X56059523Y-46695295D02*
X56059523Y-46790533D01*
X56059523Y-46790533D02*
X56011904Y-46933390D01*
X56011904Y-46933390D02*
X55440476Y-47504819D01*
X55440476Y-47504819D02*
X56059523Y-47504819D01*
X56630952Y-46933390D02*
X56535714Y-46885771D01*
X56535714Y-46885771D02*
X56488095Y-46838152D01*
X56488095Y-46838152D02*
X56440476Y-46742914D01*
X56440476Y-46742914D02*
X56440476Y-46695295D01*
X56440476Y-46695295D02*
X56488095Y-46600057D01*
X56488095Y-46600057D02*
X56535714Y-46552438D01*
X56535714Y-46552438D02*
X56630952Y-46504819D01*
X56630952Y-46504819D02*
X56821428Y-46504819D01*
X56821428Y-46504819D02*
X56916666Y-46552438D01*
X56916666Y-46552438D02*
X56964285Y-46600057D01*
X56964285Y-46600057D02*
X57011904Y-46695295D01*
X57011904Y-46695295D02*
X57011904Y-46742914D01*
X57011904Y-46742914D02*
X56964285Y-46838152D01*
X56964285Y-46838152D02*
X56916666Y-46885771D01*
X56916666Y-46885771D02*
X56821428Y-46933390D01*
X56821428Y-46933390D02*
X56630952Y-46933390D01*
X56630952Y-46933390D02*
X56535714Y-46981009D01*
X56535714Y-46981009D02*
X56488095Y-47028628D01*
X56488095Y-47028628D02*
X56440476Y-47123866D01*
X56440476Y-47123866D02*
X56440476Y-47314342D01*
X56440476Y-47314342D02*
X56488095Y-47409580D01*
X56488095Y-47409580D02*
X56535714Y-47457200D01*
X56535714Y-47457200D02*
X56630952Y-47504819D01*
X56630952Y-47504819D02*
X56821428Y-47504819D01*
X56821428Y-47504819D02*
X56916666Y-47457200D01*
X56916666Y-47457200D02*
X56964285Y-47409580D01*
X56964285Y-47409580D02*
X57011904Y-47314342D01*
X57011904Y-47314342D02*
X57011904Y-47123866D01*
X57011904Y-47123866D02*
X56964285Y-47028628D01*
X56964285Y-47028628D02*
X56916666Y-46981009D01*
X56916666Y-46981009D02*
X56821428Y-46933390D01*
X183797142Y-135609580D02*
X183749523Y-135657200D01*
X183749523Y-135657200D02*
X183606666Y-135704819D01*
X183606666Y-135704819D02*
X183511428Y-135704819D01*
X183511428Y-135704819D02*
X183368571Y-135657200D01*
X183368571Y-135657200D02*
X183273333Y-135561961D01*
X183273333Y-135561961D02*
X183225714Y-135466723D01*
X183225714Y-135466723D02*
X183178095Y-135276247D01*
X183178095Y-135276247D02*
X183178095Y-135133390D01*
X183178095Y-135133390D02*
X183225714Y-134942914D01*
X183225714Y-134942914D02*
X183273333Y-134847676D01*
X183273333Y-134847676D02*
X183368571Y-134752438D01*
X183368571Y-134752438D02*
X183511428Y-134704819D01*
X183511428Y-134704819D02*
X183606666Y-134704819D01*
X183606666Y-134704819D02*
X183749523Y-134752438D01*
X183749523Y-134752438D02*
X183797142Y-134800057D01*
X184130476Y-134704819D02*
X184749523Y-134704819D01*
X184749523Y-134704819D02*
X184416190Y-135085771D01*
X184416190Y-135085771D02*
X184559047Y-135085771D01*
X184559047Y-135085771D02*
X184654285Y-135133390D01*
X184654285Y-135133390D02*
X184701904Y-135181009D01*
X184701904Y-135181009D02*
X184749523Y-135276247D01*
X184749523Y-135276247D02*
X184749523Y-135514342D01*
X184749523Y-135514342D02*
X184701904Y-135609580D01*
X184701904Y-135609580D02*
X184654285Y-135657200D01*
X184654285Y-135657200D02*
X184559047Y-135704819D01*
X184559047Y-135704819D02*
X184273333Y-135704819D01*
X184273333Y-135704819D02*
X184178095Y-135657200D01*
X184178095Y-135657200D02*
X184130476Y-135609580D01*
X185606666Y-134704819D02*
X185416190Y-134704819D01*
X185416190Y-134704819D02*
X185320952Y-134752438D01*
X185320952Y-134752438D02*
X185273333Y-134800057D01*
X185273333Y-134800057D02*
X185178095Y-134942914D01*
X185178095Y-134942914D02*
X185130476Y-135133390D01*
X185130476Y-135133390D02*
X185130476Y-135514342D01*
X185130476Y-135514342D02*
X185178095Y-135609580D01*
X185178095Y-135609580D02*
X185225714Y-135657200D01*
X185225714Y-135657200D02*
X185320952Y-135704819D01*
X185320952Y-135704819D02*
X185511428Y-135704819D01*
X185511428Y-135704819D02*
X185606666Y-135657200D01*
X185606666Y-135657200D02*
X185654285Y-135609580D01*
X185654285Y-135609580D02*
X185701904Y-135514342D01*
X185701904Y-135514342D02*
X185701904Y-135276247D01*
X185701904Y-135276247D02*
X185654285Y-135181009D01*
X185654285Y-135181009D02*
X185606666Y-135133390D01*
X185606666Y-135133390D02*
X185511428Y-135085771D01*
X185511428Y-135085771D02*
X185320952Y-135085771D01*
X185320952Y-135085771D02*
X185225714Y-135133390D01*
X185225714Y-135133390D02*
X185178095Y-135181009D01*
X185178095Y-135181009D02*
X185130476Y-135276247D01*
X98797142Y-59349580D02*
X98749523Y-59397200D01*
X98749523Y-59397200D02*
X98606666Y-59444819D01*
X98606666Y-59444819D02*
X98511428Y-59444819D01*
X98511428Y-59444819D02*
X98368571Y-59397200D01*
X98368571Y-59397200D02*
X98273333Y-59301961D01*
X98273333Y-59301961D02*
X98225714Y-59206723D01*
X98225714Y-59206723D02*
X98178095Y-59016247D01*
X98178095Y-59016247D02*
X98178095Y-58873390D01*
X98178095Y-58873390D02*
X98225714Y-58682914D01*
X98225714Y-58682914D02*
X98273333Y-58587676D01*
X98273333Y-58587676D02*
X98368571Y-58492438D01*
X98368571Y-58492438D02*
X98511428Y-58444819D01*
X98511428Y-58444819D02*
X98606666Y-58444819D01*
X98606666Y-58444819D02*
X98749523Y-58492438D01*
X98749523Y-58492438D02*
X98797142Y-58540057D01*
X99178095Y-58540057D02*
X99225714Y-58492438D01*
X99225714Y-58492438D02*
X99320952Y-58444819D01*
X99320952Y-58444819D02*
X99559047Y-58444819D01*
X99559047Y-58444819D02*
X99654285Y-58492438D01*
X99654285Y-58492438D02*
X99701904Y-58540057D01*
X99701904Y-58540057D02*
X99749523Y-58635295D01*
X99749523Y-58635295D02*
X99749523Y-58730533D01*
X99749523Y-58730533D02*
X99701904Y-58873390D01*
X99701904Y-58873390D02*
X99130476Y-59444819D01*
X99130476Y-59444819D02*
X99749523Y-59444819D01*
X100368571Y-58444819D02*
X100463809Y-58444819D01*
X100463809Y-58444819D02*
X100559047Y-58492438D01*
X100559047Y-58492438D02*
X100606666Y-58540057D01*
X100606666Y-58540057D02*
X100654285Y-58635295D01*
X100654285Y-58635295D02*
X100701904Y-58825771D01*
X100701904Y-58825771D02*
X100701904Y-59063866D01*
X100701904Y-59063866D02*
X100654285Y-59254342D01*
X100654285Y-59254342D02*
X100606666Y-59349580D01*
X100606666Y-59349580D02*
X100559047Y-59397200D01*
X100559047Y-59397200D02*
X100463809Y-59444819D01*
X100463809Y-59444819D02*
X100368571Y-59444819D01*
X100368571Y-59444819D02*
X100273333Y-59397200D01*
X100273333Y-59397200D02*
X100225714Y-59349580D01*
X100225714Y-59349580D02*
X100178095Y-59254342D01*
X100178095Y-59254342D02*
X100130476Y-59063866D01*
X100130476Y-59063866D02*
X100130476Y-58825771D01*
X100130476Y-58825771D02*
X100178095Y-58635295D01*
X100178095Y-58635295D02*
X100225714Y-58540057D01*
X100225714Y-58540057D02*
X100273333Y-58492438D01*
X100273333Y-58492438D02*
X100368571Y-58444819D01*
X183797142Y-127309580D02*
X183749523Y-127357200D01*
X183749523Y-127357200D02*
X183606666Y-127404819D01*
X183606666Y-127404819D02*
X183511428Y-127404819D01*
X183511428Y-127404819D02*
X183368571Y-127357200D01*
X183368571Y-127357200D02*
X183273333Y-127261961D01*
X183273333Y-127261961D02*
X183225714Y-127166723D01*
X183225714Y-127166723D02*
X183178095Y-126976247D01*
X183178095Y-126976247D02*
X183178095Y-126833390D01*
X183178095Y-126833390D02*
X183225714Y-126642914D01*
X183225714Y-126642914D02*
X183273333Y-126547676D01*
X183273333Y-126547676D02*
X183368571Y-126452438D01*
X183368571Y-126452438D02*
X183511428Y-126404819D01*
X183511428Y-126404819D02*
X183606666Y-126404819D01*
X183606666Y-126404819D02*
X183749523Y-126452438D01*
X183749523Y-126452438D02*
X183797142Y-126500057D01*
X184130476Y-126404819D02*
X184749523Y-126404819D01*
X184749523Y-126404819D02*
X184416190Y-126785771D01*
X184416190Y-126785771D02*
X184559047Y-126785771D01*
X184559047Y-126785771D02*
X184654285Y-126833390D01*
X184654285Y-126833390D02*
X184701904Y-126881009D01*
X184701904Y-126881009D02*
X184749523Y-126976247D01*
X184749523Y-126976247D02*
X184749523Y-127214342D01*
X184749523Y-127214342D02*
X184701904Y-127309580D01*
X184701904Y-127309580D02*
X184654285Y-127357200D01*
X184654285Y-127357200D02*
X184559047Y-127404819D01*
X184559047Y-127404819D02*
X184273333Y-127404819D01*
X184273333Y-127404819D02*
X184178095Y-127357200D01*
X184178095Y-127357200D02*
X184130476Y-127309580D01*
X185320952Y-126833390D02*
X185225714Y-126785771D01*
X185225714Y-126785771D02*
X185178095Y-126738152D01*
X185178095Y-126738152D02*
X185130476Y-126642914D01*
X185130476Y-126642914D02*
X185130476Y-126595295D01*
X185130476Y-126595295D02*
X185178095Y-126500057D01*
X185178095Y-126500057D02*
X185225714Y-126452438D01*
X185225714Y-126452438D02*
X185320952Y-126404819D01*
X185320952Y-126404819D02*
X185511428Y-126404819D01*
X185511428Y-126404819D02*
X185606666Y-126452438D01*
X185606666Y-126452438D02*
X185654285Y-126500057D01*
X185654285Y-126500057D02*
X185701904Y-126595295D01*
X185701904Y-126595295D02*
X185701904Y-126642914D01*
X185701904Y-126642914D02*
X185654285Y-126738152D01*
X185654285Y-126738152D02*
X185606666Y-126785771D01*
X185606666Y-126785771D02*
X185511428Y-126833390D01*
X185511428Y-126833390D02*
X185320952Y-126833390D01*
X185320952Y-126833390D02*
X185225714Y-126881009D01*
X185225714Y-126881009D02*
X185178095Y-126928628D01*
X185178095Y-126928628D02*
X185130476Y-127023866D01*
X185130476Y-127023866D02*
X185130476Y-127214342D01*
X185130476Y-127214342D02*
X185178095Y-127309580D01*
X185178095Y-127309580D02*
X185225714Y-127357200D01*
X185225714Y-127357200D02*
X185320952Y-127404819D01*
X185320952Y-127404819D02*
X185511428Y-127404819D01*
X185511428Y-127404819D02*
X185606666Y-127357200D01*
X185606666Y-127357200D02*
X185654285Y-127309580D01*
X185654285Y-127309580D02*
X185701904Y-127214342D01*
X185701904Y-127214342D02*
X185701904Y-127023866D01*
X185701904Y-127023866D02*
X185654285Y-126928628D01*
X185654285Y-126928628D02*
X185606666Y-126881009D01*
X185606666Y-126881009D02*
X185511428Y-126833390D01*
X58297142Y-120349580D02*
X58249523Y-120397200D01*
X58249523Y-120397200D02*
X58106666Y-120444819D01*
X58106666Y-120444819D02*
X58011428Y-120444819D01*
X58011428Y-120444819D02*
X57868571Y-120397200D01*
X57868571Y-120397200D02*
X57773333Y-120301961D01*
X57773333Y-120301961D02*
X57725714Y-120206723D01*
X57725714Y-120206723D02*
X57678095Y-120016247D01*
X57678095Y-120016247D02*
X57678095Y-119873390D01*
X57678095Y-119873390D02*
X57725714Y-119682914D01*
X57725714Y-119682914D02*
X57773333Y-119587676D01*
X57773333Y-119587676D02*
X57868571Y-119492438D01*
X57868571Y-119492438D02*
X58011428Y-119444819D01*
X58011428Y-119444819D02*
X58106666Y-119444819D01*
X58106666Y-119444819D02*
X58249523Y-119492438D01*
X58249523Y-119492438D02*
X58297142Y-119540057D01*
X59154285Y-119444819D02*
X58963809Y-119444819D01*
X58963809Y-119444819D02*
X58868571Y-119492438D01*
X58868571Y-119492438D02*
X58820952Y-119540057D01*
X58820952Y-119540057D02*
X58725714Y-119682914D01*
X58725714Y-119682914D02*
X58678095Y-119873390D01*
X58678095Y-119873390D02*
X58678095Y-120254342D01*
X58678095Y-120254342D02*
X58725714Y-120349580D01*
X58725714Y-120349580D02*
X58773333Y-120397200D01*
X58773333Y-120397200D02*
X58868571Y-120444819D01*
X58868571Y-120444819D02*
X59059047Y-120444819D01*
X59059047Y-120444819D02*
X59154285Y-120397200D01*
X59154285Y-120397200D02*
X59201904Y-120349580D01*
X59201904Y-120349580D02*
X59249523Y-120254342D01*
X59249523Y-120254342D02*
X59249523Y-120016247D01*
X59249523Y-120016247D02*
X59201904Y-119921009D01*
X59201904Y-119921009D02*
X59154285Y-119873390D01*
X59154285Y-119873390D02*
X59059047Y-119825771D01*
X59059047Y-119825771D02*
X58868571Y-119825771D01*
X58868571Y-119825771D02*
X58773333Y-119873390D01*
X58773333Y-119873390D02*
X58725714Y-119921009D01*
X58725714Y-119921009D02*
X58678095Y-120016247D01*
X59582857Y-119444819D02*
X60201904Y-119444819D01*
X60201904Y-119444819D02*
X59868571Y-119825771D01*
X59868571Y-119825771D02*
X60011428Y-119825771D01*
X60011428Y-119825771D02*
X60106666Y-119873390D01*
X60106666Y-119873390D02*
X60154285Y-119921009D01*
X60154285Y-119921009D02*
X60201904Y-120016247D01*
X60201904Y-120016247D02*
X60201904Y-120254342D01*
X60201904Y-120254342D02*
X60154285Y-120349580D01*
X60154285Y-120349580D02*
X60106666Y-120397200D01*
X60106666Y-120397200D02*
X60011428Y-120444819D01*
X60011428Y-120444819D02*
X59725714Y-120444819D01*
X59725714Y-120444819D02*
X59630476Y-120397200D01*
X59630476Y-120397200D02*
X59582857Y-120349580D01*
X197238095Y-127004819D02*
X197238095Y-127814342D01*
X197238095Y-127814342D02*
X197285714Y-127909580D01*
X197285714Y-127909580D02*
X197333333Y-127957200D01*
X197333333Y-127957200D02*
X197428571Y-128004819D01*
X197428571Y-128004819D02*
X197619047Y-128004819D01*
X197619047Y-128004819D02*
X197714285Y-127957200D01*
X197714285Y-127957200D02*
X197761904Y-127909580D01*
X197761904Y-127909580D02*
X197809523Y-127814342D01*
X197809523Y-127814342D02*
X197809523Y-127004819D01*
X198761904Y-127004819D02*
X198285714Y-127004819D01*
X198285714Y-127004819D02*
X198238095Y-127481009D01*
X198238095Y-127481009D02*
X198285714Y-127433390D01*
X198285714Y-127433390D02*
X198380952Y-127385771D01*
X198380952Y-127385771D02*
X198619047Y-127385771D01*
X198619047Y-127385771D02*
X198714285Y-127433390D01*
X198714285Y-127433390D02*
X198761904Y-127481009D01*
X198761904Y-127481009D02*
X198809523Y-127576247D01*
X198809523Y-127576247D02*
X198809523Y-127814342D01*
X198809523Y-127814342D02*
X198761904Y-127909580D01*
X198761904Y-127909580D02*
X198714285Y-127957200D01*
X198714285Y-127957200D02*
X198619047Y-128004819D01*
X198619047Y-128004819D02*
X198380952Y-128004819D01*
X198380952Y-128004819D02*
X198285714Y-127957200D01*
X198285714Y-127957200D02*
X198238095Y-127909580D01*
X194190000Y-116705119D02*
X194190000Y-116943214D01*
X193951905Y-116847976D02*
X194190000Y-116943214D01*
X194190000Y-116943214D02*
X194428095Y-116847976D01*
X194047143Y-117133690D02*
X194190000Y-116943214D01*
X194190000Y-116943214D02*
X194332857Y-117133690D01*
X140297142Y-66899580D02*
X140249523Y-66947200D01*
X140249523Y-66947200D02*
X140106666Y-66994819D01*
X140106666Y-66994819D02*
X140011428Y-66994819D01*
X140011428Y-66994819D02*
X139868571Y-66947200D01*
X139868571Y-66947200D02*
X139773333Y-66851961D01*
X139773333Y-66851961D02*
X139725714Y-66756723D01*
X139725714Y-66756723D02*
X139678095Y-66566247D01*
X139678095Y-66566247D02*
X139678095Y-66423390D01*
X139678095Y-66423390D02*
X139725714Y-66232914D01*
X139725714Y-66232914D02*
X139773333Y-66137676D01*
X139773333Y-66137676D02*
X139868571Y-66042438D01*
X139868571Y-66042438D02*
X140011428Y-65994819D01*
X140011428Y-65994819D02*
X140106666Y-65994819D01*
X140106666Y-65994819D02*
X140249523Y-66042438D01*
X140249523Y-66042438D02*
X140297142Y-66090057D01*
X141249523Y-66994819D02*
X140678095Y-66994819D01*
X140963809Y-66994819D02*
X140963809Y-65994819D01*
X140963809Y-65994819D02*
X140868571Y-66137676D01*
X140868571Y-66137676D02*
X140773333Y-66232914D01*
X140773333Y-66232914D02*
X140678095Y-66280533D01*
X141868571Y-65994819D02*
X141963809Y-65994819D01*
X141963809Y-65994819D02*
X142059047Y-66042438D01*
X142059047Y-66042438D02*
X142106666Y-66090057D01*
X142106666Y-66090057D02*
X142154285Y-66185295D01*
X142154285Y-66185295D02*
X142201904Y-66375771D01*
X142201904Y-66375771D02*
X142201904Y-66613866D01*
X142201904Y-66613866D02*
X142154285Y-66804342D01*
X142154285Y-66804342D02*
X142106666Y-66899580D01*
X142106666Y-66899580D02*
X142059047Y-66947200D01*
X142059047Y-66947200D02*
X141963809Y-66994819D01*
X141963809Y-66994819D02*
X141868571Y-66994819D01*
X141868571Y-66994819D02*
X141773333Y-66947200D01*
X141773333Y-66947200D02*
X141725714Y-66899580D01*
X141725714Y-66899580D02*
X141678095Y-66804342D01*
X141678095Y-66804342D02*
X141630476Y-66613866D01*
X141630476Y-66613866D02*
X141630476Y-66375771D01*
X141630476Y-66375771D02*
X141678095Y-66185295D01*
X141678095Y-66185295D02*
X141725714Y-66090057D01*
X141725714Y-66090057D02*
X141773333Y-66042438D01*
X141773333Y-66042438D02*
X141868571Y-65994819D01*
X100797142Y-124849580D02*
X100749523Y-124897200D01*
X100749523Y-124897200D02*
X100606666Y-124944819D01*
X100606666Y-124944819D02*
X100511428Y-124944819D01*
X100511428Y-124944819D02*
X100368571Y-124897200D01*
X100368571Y-124897200D02*
X100273333Y-124801961D01*
X100273333Y-124801961D02*
X100225714Y-124706723D01*
X100225714Y-124706723D02*
X100178095Y-124516247D01*
X100178095Y-124516247D02*
X100178095Y-124373390D01*
X100178095Y-124373390D02*
X100225714Y-124182914D01*
X100225714Y-124182914D02*
X100273333Y-124087676D01*
X100273333Y-124087676D02*
X100368571Y-123992438D01*
X100368571Y-123992438D02*
X100511428Y-123944819D01*
X100511428Y-123944819D02*
X100606666Y-123944819D01*
X100606666Y-123944819D02*
X100749523Y-123992438D01*
X100749523Y-123992438D02*
X100797142Y-124040057D01*
X101701904Y-123944819D02*
X101225714Y-123944819D01*
X101225714Y-123944819D02*
X101178095Y-124421009D01*
X101178095Y-124421009D02*
X101225714Y-124373390D01*
X101225714Y-124373390D02*
X101320952Y-124325771D01*
X101320952Y-124325771D02*
X101559047Y-124325771D01*
X101559047Y-124325771D02*
X101654285Y-124373390D01*
X101654285Y-124373390D02*
X101701904Y-124421009D01*
X101701904Y-124421009D02*
X101749523Y-124516247D01*
X101749523Y-124516247D02*
X101749523Y-124754342D01*
X101749523Y-124754342D02*
X101701904Y-124849580D01*
X101701904Y-124849580D02*
X101654285Y-124897200D01*
X101654285Y-124897200D02*
X101559047Y-124944819D01*
X101559047Y-124944819D02*
X101320952Y-124944819D01*
X101320952Y-124944819D02*
X101225714Y-124897200D01*
X101225714Y-124897200D02*
X101178095Y-124849580D01*
X102654285Y-123944819D02*
X102178095Y-123944819D01*
X102178095Y-123944819D02*
X102130476Y-124421009D01*
X102130476Y-124421009D02*
X102178095Y-124373390D01*
X102178095Y-124373390D02*
X102273333Y-124325771D01*
X102273333Y-124325771D02*
X102511428Y-124325771D01*
X102511428Y-124325771D02*
X102606666Y-124373390D01*
X102606666Y-124373390D02*
X102654285Y-124421009D01*
X102654285Y-124421009D02*
X102701904Y-124516247D01*
X102701904Y-124516247D02*
X102701904Y-124754342D01*
X102701904Y-124754342D02*
X102654285Y-124849580D01*
X102654285Y-124849580D02*
X102606666Y-124897200D01*
X102606666Y-124897200D02*
X102511428Y-124944819D01*
X102511428Y-124944819D02*
X102273333Y-124944819D01*
X102273333Y-124944819D02*
X102178095Y-124897200D01*
X102178095Y-124897200D02*
X102130476Y-124849580D01*
X183797142Y-143909580D02*
X183749523Y-143957200D01*
X183749523Y-143957200D02*
X183606666Y-144004819D01*
X183606666Y-144004819D02*
X183511428Y-144004819D01*
X183511428Y-144004819D02*
X183368571Y-143957200D01*
X183368571Y-143957200D02*
X183273333Y-143861961D01*
X183273333Y-143861961D02*
X183225714Y-143766723D01*
X183225714Y-143766723D02*
X183178095Y-143576247D01*
X183178095Y-143576247D02*
X183178095Y-143433390D01*
X183178095Y-143433390D02*
X183225714Y-143242914D01*
X183225714Y-143242914D02*
X183273333Y-143147676D01*
X183273333Y-143147676D02*
X183368571Y-143052438D01*
X183368571Y-143052438D02*
X183511428Y-143004819D01*
X183511428Y-143004819D02*
X183606666Y-143004819D01*
X183606666Y-143004819D02*
X183749523Y-143052438D01*
X183749523Y-143052438D02*
X183797142Y-143100057D01*
X184130476Y-143004819D02*
X184749523Y-143004819D01*
X184749523Y-143004819D02*
X184416190Y-143385771D01*
X184416190Y-143385771D02*
X184559047Y-143385771D01*
X184559047Y-143385771D02*
X184654285Y-143433390D01*
X184654285Y-143433390D02*
X184701904Y-143481009D01*
X184701904Y-143481009D02*
X184749523Y-143576247D01*
X184749523Y-143576247D02*
X184749523Y-143814342D01*
X184749523Y-143814342D02*
X184701904Y-143909580D01*
X184701904Y-143909580D02*
X184654285Y-143957200D01*
X184654285Y-143957200D02*
X184559047Y-144004819D01*
X184559047Y-144004819D02*
X184273333Y-144004819D01*
X184273333Y-144004819D02*
X184178095Y-143957200D01*
X184178095Y-143957200D02*
X184130476Y-143909580D01*
X185606666Y-143338152D02*
X185606666Y-144004819D01*
X185368571Y-142957200D02*
X185130476Y-143671485D01*
X185130476Y-143671485D02*
X185749523Y-143671485D01*
X133118866Y-102111666D02*
X134118866Y-102111666D01*
X134118866Y-102111666D02*
X134318866Y-102178333D01*
X134318866Y-102178333D02*
X134452200Y-102311666D01*
X134452200Y-102311666D02*
X134518866Y-102511666D01*
X134518866Y-102511666D02*
X134518866Y-102645000D01*
X133118866Y-100844999D02*
X133118866Y-101111666D01*
X133118866Y-101111666D02*
X133185533Y-101244999D01*
X133185533Y-101244999D02*
X133252200Y-101311666D01*
X133252200Y-101311666D02*
X133452200Y-101444999D01*
X133452200Y-101444999D02*
X133718866Y-101511666D01*
X133718866Y-101511666D02*
X134252200Y-101511666D01*
X134252200Y-101511666D02*
X134385533Y-101444999D01*
X134385533Y-101444999D02*
X134452200Y-101378333D01*
X134452200Y-101378333D02*
X134518866Y-101244999D01*
X134518866Y-101244999D02*
X134518866Y-100978333D01*
X134518866Y-100978333D02*
X134452200Y-100844999D01*
X134452200Y-100844999D02*
X134385533Y-100778333D01*
X134385533Y-100778333D02*
X134252200Y-100711666D01*
X134252200Y-100711666D02*
X133918866Y-100711666D01*
X133918866Y-100711666D02*
X133785533Y-100778333D01*
X133785533Y-100778333D02*
X133718866Y-100844999D01*
X133718866Y-100844999D02*
X133652200Y-100978333D01*
X133652200Y-100978333D02*
X133652200Y-101244999D01*
X133652200Y-101244999D02*
X133718866Y-101378333D01*
X133718866Y-101378333D02*
X133785533Y-101444999D01*
X133785533Y-101444999D02*
X133918866Y-101511666D01*
X183797142Y-139759580D02*
X183749523Y-139807200D01*
X183749523Y-139807200D02*
X183606666Y-139854819D01*
X183606666Y-139854819D02*
X183511428Y-139854819D01*
X183511428Y-139854819D02*
X183368571Y-139807200D01*
X183368571Y-139807200D02*
X183273333Y-139711961D01*
X183273333Y-139711961D02*
X183225714Y-139616723D01*
X183225714Y-139616723D02*
X183178095Y-139426247D01*
X183178095Y-139426247D02*
X183178095Y-139283390D01*
X183178095Y-139283390D02*
X183225714Y-139092914D01*
X183225714Y-139092914D02*
X183273333Y-138997676D01*
X183273333Y-138997676D02*
X183368571Y-138902438D01*
X183368571Y-138902438D02*
X183511428Y-138854819D01*
X183511428Y-138854819D02*
X183606666Y-138854819D01*
X183606666Y-138854819D02*
X183749523Y-138902438D01*
X183749523Y-138902438D02*
X183797142Y-138950057D01*
X184130476Y-138854819D02*
X184749523Y-138854819D01*
X184749523Y-138854819D02*
X184416190Y-139235771D01*
X184416190Y-139235771D02*
X184559047Y-139235771D01*
X184559047Y-139235771D02*
X184654285Y-139283390D01*
X184654285Y-139283390D02*
X184701904Y-139331009D01*
X184701904Y-139331009D02*
X184749523Y-139426247D01*
X184749523Y-139426247D02*
X184749523Y-139664342D01*
X184749523Y-139664342D02*
X184701904Y-139759580D01*
X184701904Y-139759580D02*
X184654285Y-139807200D01*
X184654285Y-139807200D02*
X184559047Y-139854819D01*
X184559047Y-139854819D02*
X184273333Y-139854819D01*
X184273333Y-139854819D02*
X184178095Y-139807200D01*
X184178095Y-139807200D02*
X184130476Y-139759580D01*
X185654285Y-138854819D02*
X185178095Y-138854819D01*
X185178095Y-138854819D02*
X185130476Y-139331009D01*
X185130476Y-139331009D02*
X185178095Y-139283390D01*
X185178095Y-139283390D02*
X185273333Y-139235771D01*
X185273333Y-139235771D02*
X185511428Y-139235771D01*
X185511428Y-139235771D02*
X185606666Y-139283390D01*
X185606666Y-139283390D02*
X185654285Y-139331009D01*
X185654285Y-139331009D02*
X185701904Y-139426247D01*
X185701904Y-139426247D02*
X185701904Y-139664342D01*
X185701904Y-139664342D02*
X185654285Y-139759580D01*
X185654285Y-139759580D02*
X185606666Y-139807200D01*
X185606666Y-139807200D02*
X185511428Y-139854819D01*
X185511428Y-139854819D02*
X185273333Y-139854819D01*
X185273333Y-139854819D02*
X185178095Y-139807200D01*
X185178095Y-139807200D02*
X185130476Y-139759580D01*
X143297142Y-128359580D02*
X143249523Y-128407200D01*
X143249523Y-128407200D02*
X143106666Y-128454819D01*
X143106666Y-128454819D02*
X143011428Y-128454819D01*
X143011428Y-128454819D02*
X142868571Y-128407200D01*
X142868571Y-128407200D02*
X142773333Y-128311961D01*
X142773333Y-128311961D02*
X142725714Y-128216723D01*
X142725714Y-128216723D02*
X142678095Y-128026247D01*
X142678095Y-128026247D02*
X142678095Y-127883390D01*
X142678095Y-127883390D02*
X142725714Y-127692914D01*
X142725714Y-127692914D02*
X142773333Y-127597676D01*
X142773333Y-127597676D02*
X142868571Y-127502438D01*
X142868571Y-127502438D02*
X143011428Y-127454819D01*
X143011428Y-127454819D02*
X143106666Y-127454819D01*
X143106666Y-127454819D02*
X143249523Y-127502438D01*
X143249523Y-127502438D02*
X143297142Y-127550057D01*
X144154285Y-127788152D02*
X144154285Y-128454819D01*
X143916190Y-127407200D02*
X143678095Y-128121485D01*
X143678095Y-128121485D02*
X144297142Y-128121485D01*
X144582857Y-127454819D02*
X145249523Y-127454819D01*
X145249523Y-127454819D02*
X144820952Y-128454819D01*
X112238095Y-51584819D02*
X112238095Y-52394342D01*
X112238095Y-52394342D02*
X112285714Y-52489580D01*
X112285714Y-52489580D02*
X112333333Y-52537200D01*
X112333333Y-52537200D02*
X112428571Y-52584819D01*
X112428571Y-52584819D02*
X112619047Y-52584819D01*
X112619047Y-52584819D02*
X112714285Y-52537200D01*
X112714285Y-52537200D02*
X112761904Y-52489580D01*
X112761904Y-52489580D02*
X112809523Y-52394342D01*
X112809523Y-52394342D02*
X112809523Y-51584819D01*
X113190476Y-51584819D02*
X113809523Y-51584819D01*
X113809523Y-51584819D02*
X113476190Y-51965771D01*
X113476190Y-51965771D02*
X113619047Y-51965771D01*
X113619047Y-51965771D02*
X113714285Y-52013390D01*
X113714285Y-52013390D02*
X113761904Y-52061009D01*
X113761904Y-52061009D02*
X113809523Y-52156247D01*
X113809523Y-52156247D02*
X113809523Y-52394342D01*
X113809523Y-52394342D02*
X113761904Y-52489580D01*
X113761904Y-52489580D02*
X113714285Y-52537200D01*
X113714285Y-52537200D02*
X113619047Y-52584819D01*
X113619047Y-52584819D02*
X113333333Y-52584819D01*
X113333333Y-52584819D02*
X113238095Y-52537200D01*
X113238095Y-52537200D02*
X113190476Y-52489580D01*
X109190000Y-41285119D02*
X109190000Y-41523214D01*
X108951905Y-41427976D02*
X109190000Y-41523214D01*
X109190000Y-41523214D02*
X109428095Y-41427976D01*
X109047143Y-41713690D02*
X109190000Y-41523214D01*
X109190000Y-41523214D02*
X109332857Y-41713690D01*
X55107142Y-35009580D02*
X55059523Y-35057200D01*
X55059523Y-35057200D02*
X54916666Y-35104819D01*
X54916666Y-35104819D02*
X54821428Y-35104819D01*
X54821428Y-35104819D02*
X54678571Y-35057200D01*
X54678571Y-35057200D02*
X54583333Y-34961961D01*
X54583333Y-34961961D02*
X54535714Y-34866723D01*
X54535714Y-34866723D02*
X54488095Y-34676247D01*
X54488095Y-34676247D02*
X54488095Y-34533390D01*
X54488095Y-34533390D02*
X54535714Y-34342914D01*
X54535714Y-34342914D02*
X54583333Y-34247676D01*
X54583333Y-34247676D02*
X54678571Y-34152438D01*
X54678571Y-34152438D02*
X54821428Y-34104819D01*
X54821428Y-34104819D02*
X54916666Y-34104819D01*
X54916666Y-34104819D02*
X55059523Y-34152438D01*
X55059523Y-34152438D02*
X55107142Y-34200057D01*
X55440476Y-34104819D02*
X56059523Y-34104819D01*
X56059523Y-34104819D02*
X55726190Y-34485771D01*
X55726190Y-34485771D02*
X55869047Y-34485771D01*
X55869047Y-34485771D02*
X55964285Y-34533390D01*
X55964285Y-34533390D02*
X56011904Y-34581009D01*
X56011904Y-34581009D02*
X56059523Y-34676247D01*
X56059523Y-34676247D02*
X56059523Y-34914342D01*
X56059523Y-34914342D02*
X56011904Y-35009580D01*
X56011904Y-35009580D02*
X55964285Y-35057200D01*
X55964285Y-35057200D02*
X55869047Y-35104819D01*
X55869047Y-35104819D02*
X55583333Y-35104819D01*
X55583333Y-35104819D02*
X55488095Y-35057200D01*
X55488095Y-35057200D02*
X55440476Y-35009580D01*
X57011904Y-35104819D02*
X56440476Y-35104819D01*
X56726190Y-35104819D02*
X56726190Y-34104819D01*
X56726190Y-34104819D02*
X56630952Y-34247676D01*
X56630952Y-34247676D02*
X56535714Y-34342914D01*
X56535714Y-34342914D02*
X56440476Y-34390533D01*
X98797142Y-67649580D02*
X98749523Y-67697200D01*
X98749523Y-67697200D02*
X98606666Y-67744819D01*
X98606666Y-67744819D02*
X98511428Y-67744819D01*
X98511428Y-67744819D02*
X98368571Y-67697200D01*
X98368571Y-67697200D02*
X98273333Y-67601961D01*
X98273333Y-67601961D02*
X98225714Y-67506723D01*
X98225714Y-67506723D02*
X98178095Y-67316247D01*
X98178095Y-67316247D02*
X98178095Y-67173390D01*
X98178095Y-67173390D02*
X98225714Y-66982914D01*
X98225714Y-66982914D02*
X98273333Y-66887676D01*
X98273333Y-66887676D02*
X98368571Y-66792438D01*
X98368571Y-66792438D02*
X98511428Y-66744819D01*
X98511428Y-66744819D02*
X98606666Y-66744819D01*
X98606666Y-66744819D02*
X98749523Y-66792438D01*
X98749523Y-66792438D02*
X98797142Y-66840057D01*
X99749523Y-67744819D02*
X99178095Y-67744819D01*
X99463809Y-67744819D02*
X99463809Y-66744819D01*
X99463809Y-66744819D02*
X99368571Y-66887676D01*
X99368571Y-66887676D02*
X99273333Y-66982914D01*
X99273333Y-66982914D02*
X99178095Y-67030533D01*
X100320952Y-67173390D02*
X100225714Y-67125771D01*
X100225714Y-67125771D02*
X100178095Y-67078152D01*
X100178095Y-67078152D02*
X100130476Y-66982914D01*
X100130476Y-66982914D02*
X100130476Y-66935295D01*
X100130476Y-66935295D02*
X100178095Y-66840057D01*
X100178095Y-66840057D02*
X100225714Y-66792438D01*
X100225714Y-66792438D02*
X100320952Y-66744819D01*
X100320952Y-66744819D02*
X100511428Y-66744819D01*
X100511428Y-66744819D02*
X100606666Y-66792438D01*
X100606666Y-66792438D02*
X100654285Y-66840057D01*
X100654285Y-66840057D02*
X100701904Y-66935295D01*
X100701904Y-66935295D02*
X100701904Y-66982914D01*
X100701904Y-66982914D02*
X100654285Y-67078152D01*
X100654285Y-67078152D02*
X100606666Y-67125771D01*
X100606666Y-67125771D02*
X100511428Y-67173390D01*
X100511428Y-67173390D02*
X100320952Y-67173390D01*
X100320952Y-67173390D02*
X100225714Y-67221009D01*
X100225714Y-67221009D02*
X100178095Y-67268628D01*
X100178095Y-67268628D02*
X100130476Y-67363866D01*
X100130476Y-67363866D02*
X100130476Y-67554342D01*
X100130476Y-67554342D02*
X100178095Y-67649580D01*
X100178095Y-67649580D02*
X100225714Y-67697200D01*
X100225714Y-67697200D02*
X100320952Y-67744819D01*
X100320952Y-67744819D02*
X100511428Y-67744819D01*
X100511428Y-67744819D02*
X100606666Y-67697200D01*
X100606666Y-67697200D02*
X100654285Y-67649580D01*
X100654285Y-67649580D02*
X100701904Y-67554342D01*
X100701904Y-67554342D02*
X100701904Y-67363866D01*
X100701904Y-67363866D02*
X100654285Y-67268628D01*
X100654285Y-67268628D02*
X100606666Y-67221009D01*
X100606666Y-67221009D02*
X100511428Y-67173390D01*
X46239866Y-101466666D02*
X47239866Y-101466666D01*
X47239866Y-101466666D02*
X47439866Y-101533333D01*
X47439866Y-101533333D02*
X47573200Y-101666666D01*
X47573200Y-101666666D02*
X47639866Y-101866666D01*
X47639866Y-101866666D02*
X47639866Y-102000000D01*
X46839866Y-100599999D02*
X46773200Y-100733333D01*
X46773200Y-100733333D02*
X46706533Y-100799999D01*
X46706533Y-100799999D02*
X46573200Y-100866666D01*
X46573200Y-100866666D02*
X46506533Y-100866666D01*
X46506533Y-100866666D02*
X46373200Y-100799999D01*
X46373200Y-100799999D02*
X46306533Y-100733333D01*
X46306533Y-100733333D02*
X46239866Y-100599999D01*
X46239866Y-100599999D02*
X46239866Y-100333333D01*
X46239866Y-100333333D02*
X46306533Y-100199999D01*
X46306533Y-100199999D02*
X46373200Y-100133333D01*
X46373200Y-100133333D02*
X46506533Y-100066666D01*
X46506533Y-100066666D02*
X46573200Y-100066666D01*
X46573200Y-100066666D02*
X46706533Y-100133333D01*
X46706533Y-100133333D02*
X46773200Y-100199999D01*
X46773200Y-100199999D02*
X46839866Y-100333333D01*
X46839866Y-100333333D02*
X46839866Y-100599999D01*
X46839866Y-100599999D02*
X46906533Y-100733333D01*
X46906533Y-100733333D02*
X46973200Y-100799999D01*
X46973200Y-100799999D02*
X47106533Y-100866666D01*
X47106533Y-100866666D02*
X47373200Y-100866666D01*
X47373200Y-100866666D02*
X47506533Y-100799999D01*
X47506533Y-100799999D02*
X47573200Y-100733333D01*
X47573200Y-100733333D02*
X47639866Y-100599999D01*
X47639866Y-100599999D02*
X47639866Y-100333333D01*
X47639866Y-100333333D02*
X47573200Y-100199999D01*
X47573200Y-100199999D02*
X47506533Y-100133333D01*
X47506533Y-100133333D02*
X47373200Y-100066666D01*
X47373200Y-100066666D02*
X47106533Y-100066666D01*
X47106533Y-100066666D02*
X46973200Y-100133333D01*
X46973200Y-100133333D02*
X46906533Y-100199999D01*
X46906533Y-100199999D02*
X46839866Y-100333333D01*
X177739866Y-100466666D02*
X178739866Y-100466666D01*
X178739866Y-100466666D02*
X178939866Y-100533333D01*
X178939866Y-100533333D02*
X179073200Y-100666666D01*
X179073200Y-100666666D02*
X179139866Y-100866666D01*
X179139866Y-100866666D02*
X179139866Y-101000000D01*
X177739866Y-99133333D02*
X177739866Y-99799999D01*
X177739866Y-99799999D02*
X178406533Y-99866666D01*
X178406533Y-99866666D02*
X178339866Y-99799999D01*
X178339866Y-99799999D02*
X178273200Y-99666666D01*
X178273200Y-99666666D02*
X178273200Y-99333333D01*
X178273200Y-99333333D02*
X178339866Y-99199999D01*
X178339866Y-99199999D02*
X178406533Y-99133333D01*
X178406533Y-99133333D02*
X178539866Y-99066666D01*
X178539866Y-99066666D02*
X178873200Y-99066666D01*
X178873200Y-99066666D02*
X179006533Y-99133333D01*
X179006533Y-99133333D02*
X179073200Y-99199999D01*
X179073200Y-99199999D02*
X179139866Y-99333333D01*
X179139866Y-99333333D02*
X179139866Y-99666666D01*
X179139866Y-99666666D02*
X179073200Y-99799999D01*
X179073200Y-99799999D02*
X179006533Y-99866666D01*
X100797142Y-133149580D02*
X100749523Y-133197200D01*
X100749523Y-133197200D02*
X100606666Y-133244819D01*
X100606666Y-133244819D02*
X100511428Y-133244819D01*
X100511428Y-133244819D02*
X100368571Y-133197200D01*
X100368571Y-133197200D02*
X100273333Y-133101961D01*
X100273333Y-133101961D02*
X100225714Y-133006723D01*
X100225714Y-133006723D02*
X100178095Y-132816247D01*
X100178095Y-132816247D02*
X100178095Y-132673390D01*
X100178095Y-132673390D02*
X100225714Y-132482914D01*
X100225714Y-132482914D02*
X100273333Y-132387676D01*
X100273333Y-132387676D02*
X100368571Y-132292438D01*
X100368571Y-132292438D02*
X100511428Y-132244819D01*
X100511428Y-132244819D02*
X100606666Y-132244819D01*
X100606666Y-132244819D02*
X100749523Y-132292438D01*
X100749523Y-132292438D02*
X100797142Y-132340057D01*
X101701904Y-132244819D02*
X101225714Y-132244819D01*
X101225714Y-132244819D02*
X101178095Y-132721009D01*
X101178095Y-132721009D02*
X101225714Y-132673390D01*
X101225714Y-132673390D02*
X101320952Y-132625771D01*
X101320952Y-132625771D02*
X101559047Y-132625771D01*
X101559047Y-132625771D02*
X101654285Y-132673390D01*
X101654285Y-132673390D02*
X101701904Y-132721009D01*
X101701904Y-132721009D02*
X101749523Y-132816247D01*
X101749523Y-132816247D02*
X101749523Y-133054342D01*
X101749523Y-133054342D02*
X101701904Y-133149580D01*
X101701904Y-133149580D02*
X101654285Y-133197200D01*
X101654285Y-133197200D02*
X101559047Y-133244819D01*
X101559047Y-133244819D02*
X101320952Y-133244819D01*
X101320952Y-133244819D02*
X101225714Y-133197200D01*
X101225714Y-133197200D02*
X101178095Y-133149580D01*
X102082857Y-132244819D02*
X102701904Y-132244819D01*
X102701904Y-132244819D02*
X102368571Y-132625771D01*
X102368571Y-132625771D02*
X102511428Y-132625771D01*
X102511428Y-132625771D02*
X102606666Y-132673390D01*
X102606666Y-132673390D02*
X102654285Y-132721009D01*
X102654285Y-132721009D02*
X102701904Y-132816247D01*
X102701904Y-132816247D02*
X102701904Y-133054342D01*
X102701904Y-133054342D02*
X102654285Y-133149580D01*
X102654285Y-133149580D02*
X102606666Y-133197200D01*
X102606666Y-133197200D02*
X102511428Y-133244819D01*
X102511428Y-133244819D02*
X102225714Y-133244819D01*
X102225714Y-133244819D02*
X102130476Y-133197200D01*
X102130476Y-133197200D02*
X102082857Y-133149580D01*
X143297142Y-132509580D02*
X143249523Y-132557200D01*
X143249523Y-132557200D02*
X143106666Y-132604819D01*
X143106666Y-132604819D02*
X143011428Y-132604819D01*
X143011428Y-132604819D02*
X142868571Y-132557200D01*
X142868571Y-132557200D02*
X142773333Y-132461961D01*
X142773333Y-132461961D02*
X142725714Y-132366723D01*
X142725714Y-132366723D02*
X142678095Y-132176247D01*
X142678095Y-132176247D02*
X142678095Y-132033390D01*
X142678095Y-132033390D02*
X142725714Y-131842914D01*
X142725714Y-131842914D02*
X142773333Y-131747676D01*
X142773333Y-131747676D02*
X142868571Y-131652438D01*
X142868571Y-131652438D02*
X143011428Y-131604819D01*
X143011428Y-131604819D02*
X143106666Y-131604819D01*
X143106666Y-131604819D02*
X143249523Y-131652438D01*
X143249523Y-131652438D02*
X143297142Y-131700057D01*
X144154285Y-131938152D02*
X144154285Y-132604819D01*
X143916190Y-131557200D02*
X143678095Y-132271485D01*
X143678095Y-132271485D02*
X144297142Y-132271485D01*
X145106666Y-131604819D02*
X144916190Y-131604819D01*
X144916190Y-131604819D02*
X144820952Y-131652438D01*
X144820952Y-131652438D02*
X144773333Y-131700057D01*
X144773333Y-131700057D02*
X144678095Y-131842914D01*
X144678095Y-131842914D02*
X144630476Y-132033390D01*
X144630476Y-132033390D02*
X144630476Y-132414342D01*
X144630476Y-132414342D02*
X144678095Y-132509580D01*
X144678095Y-132509580D02*
X144725714Y-132557200D01*
X144725714Y-132557200D02*
X144820952Y-132604819D01*
X144820952Y-132604819D02*
X145011428Y-132604819D01*
X145011428Y-132604819D02*
X145106666Y-132557200D01*
X145106666Y-132557200D02*
X145154285Y-132509580D01*
X145154285Y-132509580D02*
X145201904Y-132414342D01*
X145201904Y-132414342D02*
X145201904Y-132176247D01*
X145201904Y-132176247D02*
X145154285Y-132081009D01*
X145154285Y-132081009D02*
X145106666Y-132033390D01*
X145106666Y-132033390D02*
X145011428Y-131985771D01*
X145011428Y-131985771D02*
X144820952Y-131985771D01*
X144820952Y-131985771D02*
X144725714Y-132033390D01*
X144725714Y-132033390D02*
X144678095Y-132081009D01*
X144678095Y-132081009D02*
X144630476Y-132176247D01*
X183797142Y-123159580D02*
X183749523Y-123207200D01*
X183749523Y-123207200D02*
X183606666Y-123254819D01*
X183606666Y-123254819D02*
X183511428Y-123254819D01*
X183511428Y-123254819D02*
X183368571Y-123207200D01*
X183368571Y-123207200D02*
X183273333Y-123111961D01*
X183273333Y-123111961D02*
X183225714Y-123016723D01*
X183225714Y-123016723D02*
X183178095Y-122826247D01*
X183178095Y-122826247D02*
X183178095Y-122683390D01*
X183178095Y-122683390D02*
X183225714Y-122492914D01*
X183225714Y-122492914D02*
X183273333Y-122397676D01*
X183273333Y-122397676D02*
X183368571Y-122302438D01*
X183368571Y-122302438D02*
X183511428Y-122254819D01*
X183511428Y-122254819D02*
X183606666Y-122254819D01*
X183606666Y-122254819D02*
X183749523Y-122302438D01*
X183749523Y-122302438D02*
X183797142Y-122350057D01*
X184130476Y-122254819D02*
X184749523Y-122254819D01*
X184749523Y-122254819D02*
X184416190Y-122635771D01*
X184416190Y-122635771D02*
X184559047Y-122635771D01*
X184559047Y-122635771D02*
X184654285Y-122683390D01*
X184654285Y-122683390D02*
X184701904Y-122731009D01*
X184701904Y-122731009D02*
X184749523Y-122826247D01*
X184749523Y-122826247D02*
X184749523Y-123064342D01*
X184749523Y-123064342D02*
X184701904Y-123159580D01*
X184701904Y-123159580D02*
X184654285Y-123207200D01*
X184654285Y-123207200D02*
X184559047Y-123254819D01*
X184559047Y-123254819D02*
X184273333Y-123254819D01*
X184273333Y-123254819D02*
X184178095Y-123207200D01*
X184178095Y-123207200D02*
X184130476Y-123159580D01*
X185225714Y-123254819D02*
X185416190Y-123254819D01*
X185416190Y-123254819D02*
X185511428Y-123207200D01*
X185511428Y-123207200D02*
X185559047Y-123159580D01*
X185559047Y-123159580D02*
X185654285Y-123016723D01*
X185654285Y-123016723D02*
X185701904Y-122826247D01*
X185701904Y-122826247D02*
X185701904Y-122445295D01*
X185701904Y-122445295D02*
X185654285Y-122350057D01*
X185654285Y-122350057D02*
X185606666Y-122302438D01*
X185606666Y-122302438D02*
X185511428Y-122254819D01*
X185511428Y-122254819D02*
X185320952Y-122254819D01*
X185320952Y-122254819D02*
X185225714Y-122302438D01*
X185225714Y-122302438D02*
X185178095Y-122350057D01*
X185178095Y-122350057D02*
X185130476Y-122445295D01*
X185130476Y-122445295D02*
X185130476Y-122683390D01*
X185130476Y-122683390D02*
X185178095Y-122778628D01*
X185178095Y-122778628D02*
X185225714Y-122826247D01*
X185225714Y-122826247D02*
X185320952Y-122873866D01*
X185320952Y-122873866D02*
X185511428Y-122873866D01*
X185511428Y-122873866D02*
X185606666Y-122826247D01*
X185606666Y-122826247D02*
X185654285Y-122778628D01*
X185654285Y-122778628D02*
X185701904Y-122683390D01*
X58297142Y-112049580D02*
X58249523Y-112097200D01*
X58249523Y-112097200D02*
X58106666Y-112144819D01*
X58106666Y-112144819D02*
X58011428Y-112144819D01*
X58011428Y-112144819D02*
X57868571Y-112097200D01*
X57868571Y-112097200D02*
X57773333Y-112001961D01*
X57773333Y-112001961D02*
X57725714Y-111906723D01*
X57725714Y-111906723D02*
X57678095Y-111716247D01*
X57678095Y-111716247D02*
X57678095Y-111573390D01*
X57678095Y-111573390D02*
X57725714Y-111382914D01*
X57725714Y-111382914D02*
X57773333Y-111287676D01*
X57773333Y-111287676D02*
X57868571Y-111192438D01*
X57868571Y-111192438D02*
X58011428Y-111144819D01*
X58011428Y-111144819D02*
X58106666Y-111144819D01*
X58106666Y-111144819D02*
X58249523Y-111192438D01*
X58249523Y-111192438D02*
X58297142Y-111240057D01*
X59154285Y-111144819D02*
X58963809Y-111144819D01*
X58963809Y-111144819D02*
X58868571Y-111192438D01*
X58868571Y-111192438D02*
X58820952Y-111240057D01*
X58820952Y-111240057D02*
X58725714Y-111382914D01*
X58725714Y-111382914D02*
X58678095Y-111573390D01*
X58678095Y-111573390D02*
X58678095Y-111954342D01*
X58678095Y-111954342D02*
X58725714Y-112049580D01*
X58725714Y-112049580D02*
X58773333Y-112097200D01*
X58773333Y-112097200D02*
X58868571Y-112144819D01*
X58868571Y-112144819D02*
X59059047Y-112144819D01*
X59059047Y-112144819D02*
X59154285Y-112097200D01*
X59154285Y-112097200D02*
X59201904Y-112049580D01*
X59201904Y-112049580D02*
X59249523Y-111954342D01*
X59249523Y-111954342D02*
X59249523Y-111716247D01*
X59249523Y-111716247D02*
X59201904Y-111621009D01*
X59201904Y-111621009D02*
X59154285Y-111573390D01*
X59154285Y-111573390D02*
X59059047Y-111525771D01*
X59059047Y-111525771D02*
X58868571Y-111525771D01*
X58868571Y-111525771D02*
X58773333Y-111573390D01*
X58773333Y-111573390D02*
X58725714Y-111621009D01*
X58725714Y-111621009D02*
X58678095Y-111716247D01*
X60154285Y-111144819D02*
X59678095Y-111144819D01*
X59678095Y-111144819D02*
X59630476Y-111621009D01*
X59630476Y-111621009D02*
X59678095Y-111573390D01*
X59678095Y-111573390D02*
X59773333Y-111525771D01*
X59773333Y-111525771D02*
X60011428Y-111525771D01*
X60011428Y-111525771D02*
X60106666Y-111573390D01*
X60106666Y-111573390D02*
X60154285Y-111621009D01*
X60154285Y-111621009D02*
X60201904Y-111716247D01*
X60201904Y-111716247D02*
X60201904Y-111954342D01*
X60201904Y-111954342D02*
X60154285Y-112049580D01*
X60154285Y-112049580D02*
X60106666Y-112097200D01*
X60106666Y-112097200D02*
X60011428Y-112144819D01*
X60011428Y-112144819D02*
X59773333Y-112144819D01*
X59773333Y-112144819D02*
X59678095Y-112097200D01*
X59678095Y-112097200D02*
X59630476Y-112049580D01*
X211277143Y-111411009D02*
X211610476Y-111411009D01*
X211753333Y-111934819D02*
X211277143Y-111934819D01*
X211277143Y-111934819D02*
X211277143Y-110934819D01*
X211277143Y-110934819D02*
X211753333Y-110934819D01*
X212134286Y-111887200D02*
X212277143Y-111934819D01*
X212277143Y-111934819D02*
X212515238Y-111934819D01*
X212515238Y-111934819D02*
X212610476Y-111887200D01*
X212610476Y-111887200D02*
X212658095Y-111839580D01*
X212658095Y-111839580D02*
X212705714Y-111744342D01*
X212705714Y-111744342D02*
X212705714Y-111649104D01*
X212705714Y-111649104D02*
X212658095Y-111553866D01*
X212658095Y-111553866D02*
X212610476Y-111506247D01*
X212610476Y-111506247D02*
X212515238Y-111458628D01*
X212515238Y-111458628D02*
X212324762Y-111411009D01*
X212324762Y-111411009D02*
X212229524Y-111363390D01*
X212229524Y-111363390D02*
X212181905Y-111315771D01*
X212181905Y-111315771D02*
X212134286Y-111220533D01*
X212134286Y-111220533D02*
X212134286Y-111125295D01*
X212134286Y-111125295D02*
X212181905Y-111030057D01*
X212181905Y-111030057D02*
X212229524Y-110982438D01*
X212229524Y-110982438D02*
X212324762Y-110934819D01*
X212324762Y-110934819D02*
X212562857Y-110934819D01*
X212562857Y-110934819D02*
X212705714Y-110982438D01*
X213134286Y-111934819D02*
X213134286Y-110934819D01*
X213134286Y-110934819D02*
X213515238Y-110934819D01*
X213515238Y-110934819D02*
X213610476Y-110982438D01*
X213610476Y-110982438D02*
X213658095Y-111030057D01*
X213658095Y-111030057D02*
X213705714Y-111125295D01*
X213705714Y-111125295D02*
X213705714Y-111268152D01*
X213705714Y-111268152D02*
X213658095Y-111363390D01*
X213658095Y-111363390D02*
X213610476Y-111411009D01*
X213610476Y-111411009D02*
X213515238Y-111458628D01*
X213515238Y-111458628D02*
X213134286Y-111458628D01*
X214039048Y-110934819D02*
X214658095Y-110934819D01*
X214658095Y-110934819D02*
X214324762Y-111315771D01*
X214324762Y-111315771D02*
X214467619Y-111315771D01*
X214467619Y-111315771D02*
X214562857Y-111363390D01*
X214562857Y-111363390D02*
X214610476Y-111411009D01*
X214610476Y-111411009D02*
X214658095Y-111506247D01*
X214658095Y-111506247D02*
X214658095Y-111744342D01*
X214658095Y-111744342D02*
X214610476Y-111839580D01*
X214610476Y-111839580D02*
X214562857Y-111887200D01*
X214562857Y-111887200D02*
X214467619Y-111934819D01*
X214467619Y-111934819D02*
X214181905Y-111934819D01*
X214181905Y-111934819D02*
X214086667Y-111887200D01*
X214086667Y-111887200D02*
X214039048Y-111839580D01*
X215039048Y-111030057D02*
X215086667Y-110982438D01*
X215086667Y-110982438D02*
X215181905Y-110934819D01*
X215181905Y-110934819D02*
X215420000Y-110934819D01*
X215420000Y-110934819D02*
X215515238Y-110982438D01*
X215515238Y-110982438D02*
X215562857Y-111030057D01*
X215562857Y-111030057D02*
X215610476Y-111125295D01*
X215610476Y-111125295D02*
X215610476Y-111220533D01*
X215610476Y-111220533D02*
X215562857Y-111363390D01*
X215562857Y-111363390D02*
X214991429Y-111934819D01*
X214991429Y-111934819D02*
X215610476Y-111934819D01*
X98797142Y-51049580D02*
X98749523Y-51097200D01*
X98749523Y-51097200D02*
X98606666Y-51144819D01*
X98606666Y-51144819D02*
X98511428Y-51144819D01*
X98511428Y-51144819D02*
X98368571Y-51097200D01*
X98368571Y-51097200D02*
X98273333Y-51001961D01*
X98273333Y-51001961D02*
X98225714Y-50906723D01*
X98225714Y-50906723D02*
X98178095Y-50716247D01*
X98178095Y-50716247D02*
X98178095Y-50573390D01*
X98178095Y-50573390D02*
X98225714Y-50382914D01*
X98225714Y-50382914D02*
X98273333Y-50287676D01*
X98273333Y-50287676D02*
X98368571Y-50192438D01*
X98368571Y-50192438D02*
X98511428Y-50144819D01*
X98511428Y-50144819D02*
X98606666Y-50144819D01*
X98606666Y-50144819D02*
X98749523Y-50192438D01*
X98749523Y-50192438D02*
X98797142Y-50240057D01*
X99178095Y-50240057D02*
X99225714Y-50192438D01*
X99225714Y-50192438D02*
X99320952Y-50144819D01*
X99320952Y-50144819D02*
X99559047Y-50144819D01*
X99559047Y-50144819D02*
X99654285Y-50192438D01*
X99654285Y-50192438D02*
X99701904Y-50240057D01*
X99701904Y-50240057D02*
X99749523Y-50335295D01*
X99749523Y-50335295D02*
X99749523Y-50430533D01*
X99749523Y-50430533D02*
X99701904Y-50573390D01*
X99701904Y-50573390D02*
X99130476Y-51144819D01*
X99130476Y-51144819D02*
X99749523Y-51144819D01*
X100130476Y-50240057D02*
X100178095Y-50192438D01*
X100178095Y-50192438D02*
X100273333Y-50144819D01*
X100273333Y-50144819D02*
X100511428Y-50144819D01*
X100511428Y-50144819D02*
X100606666Y-50192438D01*
X100606666Y-50192438D02*
X100654285Y-50240057D01*
X100654285Y-50240057D02*
X100701904Y-50335295D01*
X100701904Y-50335295D02*
X100701904Y-50430533D01*
X100701904Y-50430533D02*
X100654285Y-50573390D01*
X100654285Y-50573390D02*
X100082857Y-51144819D01*
X100082857Y-51144819D02*
X100701904Y-51144819D01*
X143297142Y-124209580D02*
X143249523Y-124257200D01*
X143249523Y-124257200D02*
X143106666Y-124304819D01*
X143106666Y-124304819D02*
X143011428Y-124304819D01*
X143011428Y-124304819D02*
X142868571Y-124257200D01*
X142868571Y-124257200D02*
X142773333Y-124161961D01*
X142773333Y-124161961D02*
X142725714Y-124066723D01*
X142725714Y-124066723D02*
X142678095Y-123876247D01*
X142678095Y-123876247D02*
X142678095Y-123733390D01*
X142678095Y-123733390D02*
X142725714Y-123542914D01*
X142725714Y-123542914D02*
X142773333Y-123447676D01*
X142773333Y-123447676D02*
X142868571Y-123352438D01*
X142868571Y-123352438D02*
X143011428Y-123304819D01*
X143011428Y-123304819D02*
X143106666Y-123304819D01*
X143106666Y-123304819D02*
X143249523Y-123352438D01*
X143249523Y-123352438D02*
X143297142Y-123400057D01*
X144154285Y-123638152D02*
X144154285Y-124304819D01*
X143916190Y-123257200D02*
X143678095Y-123971485D01*
X143678095Y-123971485D02*
X144297142Y-123971485D01*
X144820952Y-123733390D02*
X144725714Y-123685771D01*
X144725714Y-123685771D02*
X144678095Y-123638152D01*
X144678095Y-123638152D02*
X144630476Y-123542914D01*
X144630476Y-123542914D02*
X144630476Y-123495295D01*
X144630476Y-123495295D02*
X144678095Y-123400057D01*
X144678095Y-123400057D02*
X144725714Y-123352438D01*
X144725714Y-123352438D02*
X144820952Y-123304819D01*
X144820952Y-123304819D02*
X145011428Y-123304819D01*
X145011428Y-123304819D02*
X145106666Y-123352438D01*
X145106666Y-123352438D02*
X145154285Y-123400057D01*
X145154285Y-123400057D02*
X145201904Y-123495295D01*
X145201904Y-123495295D02*
X145201904Y-123542914D01*
X145201904Y-123542914D02*
X145154285Y-123638152D01*
X145154285Y-123638152D02*
X145106666Y-123685771D01*
X145106666Y-123685771D02*
X145011428Y-123733390D01*
X145011428Y-123733390D02*
X144820952Y-123733390D01*
X144820952Y-123733390D02*
X144725714Y-123781009D01*
X144725714Y-123781009D02*
X144678095Y-123828628D01*
X144678095Y-123828628D02*
X144630476Y-123923866D01*
X144630476Y-123923866D02*
X144630476Y-124114342D01*
X144630476Y-124114342D02*
X144678095Y-124209580D01*
X144678095Y-124209580D02*
X144725714Y-124257200D01*
X144725714Y-124257200D02*
X144820952Y-124304819D01*
X144820952Y-124304819D02*
X145011428Y-124304819D01*
X145011428Y-124304819D02*
X145106666Y-124257200D01*
X145106666Y-124257200D02*
X145154285Y-124209580D01*
X145154285Y-124209580D02*
X145201904Y-124114342D01*
X145201904Y-124114342D02*
X145201904Y-123923866D01*
X145201904Y-123923866D02*
X145154285Y-123828628D01*
X145154285Y-123828628D02*
X145106666Y-123781009D01*
X145106666Y-123781009D02*
X145011428Y-123733390D01*
X100797142Y-120699580D02*
X100749523Y-120747200D01*
X100749523Y-120747200D02*
X100606666Y-120794819D01*
X100606666Y-120794819D02*
X100511428Y-120794819D01*
X100511428Y-120794819D02*
X100368571Y-120747200D01*
X100368571Y-120747200D02*
X100273333Y-120651961D01*
X100273333Y-120651961D02*
X100225714Y-120556723D01*
X100225714Y-120556723D02*
X100178095Y-120366247D01*
X100178095Y-120366247D02*
X100178095Y-120223390D01*
X100178095Y-120223390D02*
X100225714Y-120032914D01*
X100225714Y-120032914D02*
X100273333Y-119937676D01*
X100273333Y-119937676D02*
X100368571Y-119842438D01*
X100368571Y-119842438D02*
X100511428Y-119794819D01*
X100511428Y-119794819D02*
X100606666Y-119794819D01*
X100606666Y-119794819D02*
X100749523Y-119842438D01*
X100749523Y-119842438D02*
X100797142Y-119890057D01*
X101701904Y-119794819D02*
X101225714Y-119794819D01*
X101225714Y-119794819D02*
X101178095Y-120271009D01*
X101178095Y-120271009D02*
X101225714Y-120223390D01*
X101225714Y-120223390D02*
X101320952Y-120175771D01*
X101320952Y-120175771D02*
X101559047Y-120175771D01*
X101559047Y-120175771D02*
X101654285Y-120223390D01*
X101654285Y-120223390D02*
X101701904Y-120271009D01*
X101701904Y-120271009D02*
X101749523Y-120366247D01*
X101749523Y-120366247D02*
X101749523Y-120604342D01*
X101749523Y-120604342D02*
X101701904Y-120699580D01*
X101701904Y-120699580D02*
X101654285Y-120747200D01*
X101654285Y-120747200D02*
X101559047Y-120794819D01*
X101559047Y-120794819D02*
X101320952Y-120794819D01*
X101320952Y-120794819D02*
X101225714Y-120747200D01*
X101225714Y-120747200D02*
X101178095Y-120699580D01*
X102606666Y-119794819D02*
X102416190Y-119794819D01*
X102416190Y-119794819D02*
X102320952Y-119842438D01*
X102320952Y-119842438D02*
X102273333Y-119890057D01*
X102273333Y-119890057D02*
X102178095Y-120032914D01*
X102178095Y-120032914D02*
X102130476Y-120223390D01*
X102130476Y-120223390D02*
X102130476Y-120604342D01*
X102130476Y-120604342D02*
X102178095Y-120699580D01*
X102178095Y-120699580D02*
X102225714Y-120747200D01*
X102225714Y-120747200D02*
X102320952Y-120794819D01*
X102320952Y-120794819D02*
X102511428Y-120794819D01*
X102511428Y-120794819D02*
X102606666Y-120747200D01*
X102606666Y-120747200D02*
X102654285Y-120699580D01*
X102654285Y-120699580D02*
X102701904Y-120604342D01*
X102701904Y-120604342D02*
X102701904Y-120366247D01*
X102701904Y-120366247D02*
X102654285Y-120271009D01*
X102654285Y-120271009D02*
X102606666Y-120223390D01*
X102606666Y-120223390D02*
X102511428Y-120175771D01*
X102511428Y-120175771D02*
X102320952Y-120175771D01*
X102320952Y-120175771D02*
X102225714Y-120223390D01*
X102225714Y-120223390D02*
X102178095Y-120271009D01*
X102178095Y-120271009D02*
X102130476Y-120366247D01*
X185273333Y-63199580D02*
X185225714Y-63247200D01*
X185225714Y-63247200D02*
X185082857Y-63294819D01*
X185082857Y-63294819D02*
X184987619Y-63294819D01*
X184987619Y-63294819D02*
X184844762Y-63247200D01*
X184844762Y-63247200D02*
X184749524Y-63151961D01*
X184749524Y-63151961D02*
X184701905Y-63056723D01*
X184701905Y-63056723D02*
X184654286Y-62866247D01*
X184654286Y-62866247D02*
X184654286Y-62723390D01*
X184654286Y-62723390D02*
X184701905Y-62532914D01*
X184701905Y-62532914D02*
X184749524Y-62437676D01*
X184749524Y-62437676D02*
X184844762Y-62342438D01*
X184844762Y-62342438D02*
X184987619Y-62294819D01*
X184987619Y-62294819D02*
X185082857Y-62294819D01*
X185082857Y-62294819D02*
X185225714Y-62342438D01*
X185225714Y-62342438D02*
X185273333Y-62390057D01*
X186130476Y-62628152D02*
X186130476Y-63294819D01*
X185892381Y-62247200D02*
X185654286Y-62961485D01*
X185654286Y-62961485D02*
X186273333Y-62961485D01*
X98797142Y-63499580D02*
X98749523Y-63547200D01*
X98749523Y-63547200D02*
X98606666Y-63594819D01*
X98606666Y-63594819D02*
X98511428Y-63594819D01*
X98511428Y-63594819D02*
X98368571Y-63547200D01*
X98368571Y-63547200D02*
X98273333Y-63451961D01*
X98273333Y-63451961D02*
X98225714Y-63356723D01*
X98225714Y-63356723D02*
X98178095Y-63166247D01*
X98178095Y-63166247D02*
X98178095Y-63023390D01*
X98178095Y-63023390D02*
X98225714Y-62832914D01*
X98225714Y-62832914D02*
X98273333Y-62737676D01*
X98273333Y-62737676D02*
X98368571Y-62642438D01*
X98368571Y-62642438D02*
X98511428Y-62594819D01*
X98511428Y-62594819D02*
X98606666Y-62594819D01*
X98606666Y-62594819D02*
X98749523Y-62642438D01*
X98749523Y-62642438D02*
X98797142Y-62690057D01*
X99749523Y-63594819D02*
X99178095Y-63594819D01*
X99463809Y-63594819D02*
X99463809Y-62594819D01*
X99463809Y-62594819D02*
X99368571Y-62737676D01*
X99368571Y-62737676D02*
X99273333Y-62832914D01*
X99273333Y-62832914D02*
X99178095Y-62880533D01*
X100225714Y-63594819D02*
X100416190Y-63594819D01*
X100416190Y-63594819D02*
X100511428Y-63547200D01*
X100511428Y-63547200D02*
X100559047Y-63499580D01*
X100559047Y-63499580D02*
X100654285Y-63356723D01*
X100654285Y-63356723D02*
X100701904Y-63166247D01*
X100701904Y-63166247D02*
X100701904Y-62785295D01*
X100701904Y-62785295D02*
X100654285Y-62690057D01*
X100654285Y-62690057D02*
X100606666Y-62642438D01*
X100606666Y-62642438D02*
X100511428Y-62594819D01*
X100511428Y-62594819D02*
X100320952Y-62594819D01*
X100320952Y-62594819D02*
X100225714Y-62642438D01*
X100225714Y-62642438D02*
X100178095Y-62690057D01*
X100178095Y-62690057D02*
X100130476Y-62785295D01*
X100130476Y-62785295D02*
X100130476Y-63023390D01*
X100130476Y-63023390D02*
X100178095Y-63118628D01*
X100178095Y-63118628D02*
X100225714Y-63166247D01*
X100225714Y-63166247D02*
X100320952Y-63213866D01*
X100320952Y-63213866D02*
X100511428Y-63213866D01*
X100511428Y-63213866D02*
X100606666Y-63166247D01*
X100606666Y-63166247D02*
X100654285Y-63118628D01*
X100654285Y-63118628D02*
X100701904Y-63023390D01*
X140297142Y-62749580D02*
X140249523Y-62797200D01*
X140249523Y-62797200D02*
X140106666Y-62844819D01*
X140106666Y-62844819D02*
X140011428Y-62844819D01*
X140011428Y-62844819D02*
X139868571Y-62797200D01*
X139868571Y-62797200D02*
X139773333Y-62701961D01*
X139773333Y-62701961D02*
X139725714Y-62606723D01*
X139725714Y-62606723D02*
X139678095Y-62416247D01*
X139678095Y-62416247D02*
X139678095Y-62273390D01*
X139678095Y-62273390D02*
X139725714Y-62082914D01*
X139725714Y-62082914D02*
X139773333Y-61987676D01*
X139773333Y-61987676D02*
X139868571Y-61892438D01*
X139868571Y-61892438D02*
X140011428Y-61844819D01*
X140011428Y-61844819D02*
X140106666Y-61844819D01*
X140106666Y-61844819D02*
X140249523Y-61892438D01*
X140249523Y-61892438D02*
X140297142Y-61940057D01*
X141249523Y-62844819D02*
X140678095Y-62844819D01*
X140963809Y-62844819D02*
X140963809Y-61844819D01*
X140963809Y-61844819D02*
X140868571Y-61987676D01*
X140868571Y-61987676D02*
X140773333Y-62082914D01*
X140773333Y-62082914D02*
X140678095Y-62130533D01*
X142201904Y-62844819D02*
X141630476Y-62844819D01*
X141916190Y-62844819D02*
X141916190Y-61844819D01*
X141916190Y-61844819D02*
X141820952Y-61987676D01*
X141820952Y-61987676D02*
X141725714Y-62082914D01*
X141725714Y-62082914D02*
X141630476Y-62130533D01*
X100797142Y-141449580D02*
X100749523Y-141497200D01*
X100749523Y-141497200D02*
X100606666Y-141544819D01*
X100606666Y-141544819D02*
X100511428Y-141544819D01*
X100511428Y-141544819D02*
X100368571Y-141497200D01*
X100368571Y-141497200D02*
X100273333Y-141401961D01*
X100273333Y-141401961D02*
X100225714Y-141306723D01*
X100225714Y-141306723D02*
X100178095Y-141116247D01*
X100178095Y-141116247D02*
X100178095Y-140973390D01*
X100178095Y-140973390D02*
X100225714Y-140782914D01*
X100225714Y-140782914D02*
X100273333Y-140687676D01*
X100273333Y-140687676D02*
X100368571Y-140592438D01*
X100368571Y-140592438D02*
X100511428Y-140544819D01*
X100511428Y-140544819D02*
X100606666Y-140544819D01*
X100606666Y-140544819D02*
X100749523Y-140592438D01*
X100749523Y-140592438D02*
X100797142Y-140640057D01*
X101701904Y-140544819D02*
X101225714Y-140544819D01*
X101225714Y-140544819D02*
X101178095Y-141021009D01*
X101178095Y-141021009D02*
X101225714Y-140973390D01*
X101225714Y-140973390D02*
X101320952Y-140925771D01*
X101320952Y-140925771D02*
X101559047Y-140925771D01*
X101559047Y-140925771D02*
X101654285Y-140973390D01*
X101654285Y-140973390D02*
X101701904Y-141021009D01*
X101701904Y-141021009D02*
X101749523Y-141116247D01*
X101749523Y-141116247D02*
X101749523Y-141354342D01*
X101749523Y-141354342D02*
X101701904Y-141449580D01*
X101701904Y-141449580D02*
X101654285Y-141497200D01*
X101654285Y-141497200D02*
X101559047Y-141544819D01*
X101559047Y-141544819D02*
X101320952Y-141544819D01*
X101320952Y-141544819D02*
X101225714Y-141497200D01*
X101225714Y-141497200D02*
X101178095Y-141449580D01*
X102701904Y-141544819D02*
X102130476Y-141544819D01*
X102416190Y-141544819D02*
X102416190Y-140544819D01*
X102416190Y-140544819D02*
X102320952Y-140687676D01*
X102320952Y-140687676D02*
X102225714Y-140782914D01*
X102225714Y-140782914D02*
X102130476Y-140830533D01*
X114238095Y-130044819D02*
X114238095Y-130854342D01*
X114238095Y-130854342D02*
X114285714Y-130949580D01*
X114285714Y-130949580D02*
X114333333Y-130997200D01*
X114333333Y-130997200D02*
X114428571Y-131044819D01*
X114428571Y-131044819D02*
X114619047Y-131044819D01*
X114619047Y-131044819D02*
X114714285Y-130997200D01*
X114714285Y-130997200D02*
X114761904Y-130949580D01*
X114761904Y-130949580D02*
X114809523Y-130854342D01*
X114809523Y-130854342D02*
X114809523Y-130044819D01*
X115190476Y-130044819D02*
X115857142Y-130044819D01*
X115857142Y-130044819D02*
X115428571Y-131044819D01*
X111070000Y-119745119D02*
X111070000Y-119983214D01*
X110831905Y-119887976D02*
X111070000Y-119983214D01*
X111070000Y-119983214D02*
X111308095Y-119887976D01*
X110927143Y-120173690D02*
X111070000Y-119983214D01*
X111070000Y-119983214D02*
X111212857Y-120173690D01*
X140297142Y-58599580D02*
X140249523Y-58647200D01*
X140249523Y-58647200D02*
X140106666Y-58694819D01*
X140106666Y-58694819D02*
X140011428Y-58694819D01*
X140011428Y-58694819D02*
X139868571Y-58647200D01*
X139868571Y-58647200D02*
X139773333Y-58551961D01*
X139773333Y-58551961D02*
X139725714Y-58456723D01*
X139725714Y-58456723D02*
X139678095Y-58266247D01*
X139678095Y-58266247D02*
X139678095Y-58123390D01*
X139678095Y-58123390D02*
X139725714Y-57932914D01*
X139725714Y-57932914D02*
X139773333Y-57837676D01*
X139773333Y-57837676D02*
X139868571Y-57742438D01*
X139868571Y-57742438D02*
X140011428Y-57694819D01*
X140011428Y-57694819D02*
X140106666Y-57694819D01*
X140106666Y-57694819D02*
X140249523Y-57742438D01*
X140249523Y-57742438D02*
X140297142Y-57790057D01*
X141249523Y-58694819D02*
X140678095Y-58694819D01*
X140963809Y-58694819D02*
X140963809Y-57694819D01*
X140963809Y-57694819D02*
X140868571Y-57837676D01*
X140868571Y-57837676D02*
X140773333Y-57932914D01*
X140773333Y-57932914D02*
X140678095Y-57980533D01*
X141630476Y-57790057D02*
X141678095Y-57742438D01*
X141678095Y-57742438D02*
X141773333Y-57694819D01*
X141773333Y-57694819D02*
X142011428Y-57694819D01*
X142011428Y-57694819D02*
X142106666Y-57742438D01*
X142106666Y-57742438D02*
X142154285Y-57790057D01*
X142154285Y-57790057D02*
X142201904Y-57885295D01*
X142201904Y-57885295D02*
X142201904Y-57980533D01*
X142201904Y-57980533D02*
X142154285Y-58123390D01*
X142154285Y-58123390D02*
X141582857Y-58694819D01*
X141582857Y-58694819D02*
X142201904Y-58694819D01*
X58297142Y-141099580D02*
X58249523Y-141147200D01*
X58249523Y-141147200D02*
X58106666Y-141194819D01*
X58106666Y-141194819D02*
X58011428Y-141194819D01*
X58011428Y-141194819D02*
X57868571Y-141147200D01*
X57868571Y-141147200D02*
X57773333Y-141051961D01*
X57773333Y-141051961D02*
X57725714Y-140956723D01*
X57725714Y-140956723D02*
X57678095Y-140766247D01*
X57678095Y-140766247D02*
X57678095Y-140623390D01*
X57678095Y-140623390D02*
X57725714Y-140432914D01*
X57725714Y-140432914D02*
X57773333Y-140337676D01*
X57773333Y-140337676D02*
X57868571Y-140242438D01*
X57868571Y-140242438D02*
X58011428Y-140194819D01*
X58011428Y-140194819D02*
X58106666Y-140194819D01*
X58106666Y-140194819D02*
X58249523Y-140242438D01*
X58249523Y-140242438D02*
X58297142Y-140290057D01*
X59201904Y-140194819D02*
X58725714Y-140194819D01*
X58725714Y-140194819D02*
X58678095Y-140671009D01*
X58678095Y-140671009D02*
X58725714Y-140623390D01*
X58725714Y-140623390D02*
X58820952Y-140575771D01*
X58820952Y-140575771D02*
X59059047Y-140575771D01*
X59059047Y-140575771D02*
X59154285Y-140623390D01*
X59154285Y-140623390D02*
X59201904Y-140671009D01*
X59201904Y-140671009D02*
X59249523Y-140766247D01*
X59249523Y-140766247D02*
X59249523Y-141004342D01*
X59249523Y-141004342D02*
X59201904Y-141099580D01*
X59201904Y-141099580D02*
X59154285Y-141147200D01*
X59154285Y-141147200D02*
X59059047Y-141194819D01*
X59059047Y-141194819D02*
X58820952Y-141194819D01*
X58820952Y-141194819D02*
X58725714Y-141147200D01*
X58725714Y-141147200D02*
X58678095Y-141099580D01*
X59820952Y-140623390D02*
X59725714Y-140575771D01*
X59725714Y-140575771D02*
X59678095Y-140528152D01*
X59678095Y-140528152D02*
X59630476Y-140432914D01*
X59630476Y-140432914D02*
X59630476Y-140385295D01*
X59630476Y-140385295D02*
X59678095Y-140290057D01*
X59678095Y-140290057D02*
X59725714Y-140242438D01*
X59725714Y-140242438D02*
X59820952Y-140194819D01*
X59820952Y-140194819D02*
X60011428Y-140194819D01*
X60011428Y-140194819D02*
X60106666Y-140242438D01*
X60106666Y-140242438D02*
X60154285Y-140290057D01*
X60154285Y-140290057D02*
X60201904Y-140385295D01*
X60201904Y-140385295D02*
X60201904Y-140432914D01*
X60201904Y-140432914D02*
X60154285Y-140528152D01*
X60154285Y-140528152D02*
X60106666Y-140575771D01*
X60106666Y-140575771D02*
X60011428Y-140623390D01*
X60011428Y-140623390D02*
X59820952Y-140623390D01*
X59820952Y-140623390D02*
X59725714Y-140671009D01*
X59725714Y-140671009D02*
X59678095Y-140718628D01*
X59678095Y-140718628D02*
X59630476Y-140813866D01*
X59630476Y-140813866D02*
X59630476Y-141004342D01*
X59630476Y-141004342D02*
X59678095Y-141099580D01*
X59678095Y-141099580D02*
X59725714Y-141147200D01*
X59725714Y-141147200D02*
X59820952Y-141194819D01*
X59820952Y-141194819D02*
X60011428Y-141194819D01*
X60011428Y-141194819D02*
X60106666Y-141147200D01*
X60106666Y-141147200D02*
X60154285Y-141099580D01*
X60154285Y-141099580D02*
X60201904Y-141004342D01*
X60201904Y-141004342D02*
X60201904Y-140813866D01*
X60201904Y-140813866D02*
X60154285Y-140718628D01*
X60154285Y-140718628D02*
X60106666Y-140671009D01*
X60106666Y-140671009D02*
X60011428Y-140623390D01*
X243469580Y-52906666D02*
X243517200Y-52954285D01*
X243517200Y-52954285D02*
X243564819Y-53097142D01*
X243564819Y-53097142D02*
X243564819Y-53192380D01*
X243564819Y-53192380D02*
X243517200Y-53335237D01*
X243517200Y-53335237D02*
X243421961Y-53430475D01*
X243421961Y-53430475D02*
X243326723Y-53478094D01*
X243326723Y-53478094D02*
X243136247Y-53525713D01*
X243136247Y-53525713D02*
X242993390Y-53525713D01*
X242993390Y-53525713D02*
X242802914Y-53478094D01*
X242802914Y-53478094D02*
X242707676Y-53430475D01*
X242707676Y-53430475D02*
X242612438Y-53335237D01*
X242612438Y-53335237D02*
X242564819Y-53192380D01*
X242564819Y-53192380D02*
X242564819Y-53097142D01*
X242564819Y-53097142D02*
X242612438Y-52954285D01*
X242612438Y-52954285D02*
X242660057Y-52906666D01*
X243564819Y-51954285D02*
X243564819Y-52525713D01*
X243564819Y-52239999D02*
X242564819Y-52239999D01*
X242564819Y-52239999D02*
X242707676Y-52335237D01*
X242707676Y-52335237D02*
X242802914Y-52430475D01*
X242802914Y-52430475D02*
X242850533Y-52525713D01*
X71428095Y-39694819D02*
X71428095Y-40504342D01*
X71428095Y-40504342D02*
X71475714Y-40599580D01*
X71475714Y-40599580D02*
X71523333Y-40647200D01*
X71523333Y-40647200D02*
X71618571Y-40694819D01*
X71618571Y-40694819D02*
X71809047Y-40694819D01*
X71809047Y-40694819D02*
X71904285Y-40647200D01*
X71904285Y-40647200D02*
X71951904Y-40599580D01*
X71951904Y-40599580D02*
X71999523Y-40504342D01*
X71999523Y-40504342D02*
X71999523Y-39694819D01*
X72904285Y-40028152D02*
X72904285Y-40694819D01*
X72666190Y-39647200D02*
X72428095Y-40361485D01*
X72428095Y-40361485D02*
X73047142Y-40361485D01*
X68380000Y-29395119D02*
X68380000Y-29633214D01*
X68141905Y-29537976D02*
X68380000Y-29633214D01*
X68380000Y-29633214D02*
X68618095Y-29537976D01*
X68237143Y-29823690D02*
X68380000Y-29633214D01*
X68380000Y-29633214D02*
X68522857Y-29823690D01*
X98797142Y-38599580D02*
X98749523Y-38647200D01*
X98749523Y-38647200D02*
X98606666Y-38694819D01*
X98606666Y-38694819D02*
X98511428Y-38694819D01*
X98511428Y-38694819D02*
X98368571Y-38647200D01*
X98368571Y-38647200D02*
X98273333Y-38551961D01*
X98273333Y-38551961D02*
X98225714Y-38456723D01*
X98225714Y-38456723D02*
X98178095Y-38266247D01*
X98178095Y-38266247D02*
X98178095Y-38123390D01*
X98178095Y-38123390D02*
X98225714Y-37932914D01*
X98225714Y-37932914D02*
X98273333Y-37837676D01*
X98273333Y-37837676D02*
X98368571Y-37742438D01*
X98368571Y-37742438D02*
X98511428Y-37694819D01*
X98511428Y-37694819D02*
X98606666Y-37694819D01*
X98606666Y-37694819D02*
X98749523Y-37742438D01*
X98749523Y-37742438D02*
X98797142Y-37790057D01*
X99178095Y-37790057D02*
X99225714Y-37742438D01*
X99225714Y-37742438D02*
X99320952Y-37694819D01*
X99320952Y-37694819D02*
X99559047Y-37694819D01*
X99559047Y-37694819D02*
X99654285Y-37742438D01*
X99654285Y-37742438D02*
X99701904Y-37790057D01*
X99701904Y-37790057D02*
X99749523Y-37885295D01*
X99749523Y-37885295D02*
X99749523Y-37980533D01*
X99749523Y-37980533D02*
X99701904Y-38123390D01*
X99701904Y-38123390D02*
X99130476Y-38694819D01*
X99130476Y-38694819D02*
X99749523Y-38694819D01*
X100654285Y-37694819D02*
X100178095Y-37694819D01*
X100178095Y-37694819D02*
X100130476Y-38171009D01*
X100130476Y-38171009D02*
X100178095Y-38123390D01*
X100178095Y-38123390D02*
X100273333Y-38075771D01*
X100273333Y-38075771D02*
X100511428Y-38075771D01*
X100511428Y-38075771D02*
X100606666Y-38123390D01*
X100606666Y-38123390D02*
X100654285Y-38171009D01*
X100654285Y-38171009D02*
X100701904Y-38266247D01*
X100701904Y-38266247D02*
X100701904Y-38504342D01*
X100701904Y-38504342D02*
X100654285Y-38599580D01*
X100654285Y-38599580D02*
X100606666Y-38647200D01*
X100606666Y-38647200D02*
X100511428Y-38694819D01*
X100511428Y-38694819D02*
X100273333Y-38694819D01*
X100273333Y-38694819D02*
X100178095Y-38647200D01*
X100178095Y-38647200D02*
X100130476Y-38599580D01*
X185273333Y-46599580D02*
X185225714Y-46647200D01*
X185225714Y-46647200D02*
X185082857Y-46694819D01*
X185082857Y-46694819D02*
X184987619Y-46694819D01*
X184987619Y-46694819D02*
X184844762Y-46647200D01*
X184844762Y-46647200D02*
X184749524Y-46551961D01*
X184749524Y-46551961D02*
X184701905Y-46456723D01*
X184701905Y-46456723D02*
X184654286Y-46266247D01*
X184654286Y-46266247D02*
X184654286Y-46123390D01*
X184654286Y-46123390D02*
X184701905Y-45932914D01*
X184701905Y-45932914D02*
X184749524Y-45837676D01*
X184749524Y-45837676D02*
X184844762Y-45742438D01*
X184844762Y-45742438D02*
X184987619Y-45694819D01*
X184987619Y-45694819D02*
X185082857Y-45694819D01*
X185082857Y-45694819D02*
X185225714Y-45742438D01*
X185225714Y-45742438D02*
X185273333Y-45790057D01*
X185844762Y-46123390D02*
X185749524Y-46075771D01*
X185749524Y-46075771D02*
X185701905Y-46028152D01*
X185701905Y-46028152D02*
X185654286Y-45932914D01*
X185654286Y-45932914D02*
X185654286Y-45885295D01*
X185654286Y-45885295D02*
X185701905Y-45790057D01*
X185701905Y-45790057D02*
X185749524Y-45742438D01*
X185749524Y-45742438D02*
X185844762Y-45694819D01*
X185844762Y-45694819D02*
X186035238Y-45694819D01*
X186035238Y-45694819D02*
X186130476Y-45742438D01*
X186130476Y-45742438D02*
X186178095Y-45790057D01*
X186178095Y-45790057D02*
X186225714Y-45885295D01*
X186225714Y-45885295D02*
X186225714Y-45932914D01*
X186225714Y-45932914D02*
X186178095Y-46028152D01*
X186178095Y-46028152D02*
X186130476Y-46075771D01*
X186130476Y-46075771D02*
X186035238Y-46123390D01*
X186035238Y-46123390D02*
X185844762Y-46123390D01*
X185844762Y-46123390D02*
X185749524Y-46171009D01*
X185749524Y-46171009D02*
X185701905Y-46218628D01*
X185701905Y-46218628D02*
X185654286Y-46313866D01*
X185654286Y-46313866D02*
X185654286Y-46504342D01*
X185654286Y-46504342D02*
X185701905Y-46599580D01*
X185701905Y-46599580D02*
X185749524Y-46647200D01*
X185749524Y-46647200D02*
X185844762Y-46694819D01*
X185844762Y-46694819D02*
X186035238Y-46694819D01*
X186035238Y-46694819D02*
X186130476Y-46647200D01*
X186130476Y-46647200D02*
X186178095Y-46599580D01*
X186178095Y-46599580D02*
X186225714Y-46504342D01*
X186225714Y-46504342D02*
X186225714Y-46313866D01*
X186225714Y-46313866D02*
X186178095Y-46218628D01*
X186178095Y-46218628D02*
X186130476Y-46171009D01*
X186130476Y-46171009D02*
X186035238Y-46123390D01*
X91739866Y-102466666D02*
X92739866Y-102466666D01*
X92739866Y-102466666D02*
X92939866Y-102533333D01*
X92939866Y-102533333D02*
X93073200Y-102666666D01*
X93073200Y-102666666D02*
X93139866Y-102866666D01*
X93139866Y-102866666D02*
X93139866Y-103000000D01*
X91739866Y-101933333D02*
X91739866Y-100999999D01*
X91739866Y-100999999D02*
X93139866Y-101599999D01*
X55107142Y-39159580D02*
X55059523Y-39207200D01*
X55059523Y-39207200D02*
X54916666Y-39254819D01*
X54916666Y-39254819D02*
X54821428Y-39254819D01*
X54821428Y-39254819D02*
X54678571Y-39207200D01*
X54678571Y-39207200D02*
X54583333Y-39111961D01*
X54583333Y-39111961D02*
X54535714Y-39016723D01*
X54535714Y-39016723D02*
X54488095Y-38826247D01*
X54488095Y-38826247D02*
X54488095Y-38683390D01*
X54488095Y-38683390D02*
X54535714Y-38492914D01*
X54535714Y-38492914D02*
X54583333Y-38397676D01*
X54583333Y-38397676D02*
X54678571Y-38302438D01*
X54678571Y-38302438D02*
X54821428Y-38254819D01*
X54821428Y-38254819D02*
X54916666Y-38254819D01*
X54916666Y-38254819D02*
X55059523Y-38302438D01*
X55059523Y-38302438D02*
X55107142Y-38350057D01*
X55440476Y-38254819D02*
X56059523Y-38254819D01*
X56059523Y-38254819D02*
X55726190Y-38635771D01*
X55726190Y-38635771D02*
X55869047Y-38635771D01*
X55869047Y-38635771D02*
X55964285Y-38683390D01*
X55964285Y-38683390D02*
X56011904Y-38731009D01*
X56011904Y-38731009D02*
X56059523Y-38826247D01*
X56059523Y-38826247D02*
X56059523Y-39064342D01*
X56059523Y-39064342D02*
X56011904Y-39159580D01*
X56011904Y-39159580D02*
X55964285Y-39207200D01*
X55964285Y-39207200D02*
X55869047Y-39254819D01*
X55869047Y-39254819D02*
X55583333Y-39254819D01*
X55583333Y-39254819D02*
X55488095Y-39207200D01*
X55488095Y-39207200D02*
X55440476Y-39159580D01*
X56678571Y-38254819D02*
X56773809Y-38254819D01*
X56773809Y-38254819D02*
X56869047Y-38302438D01*
X56869047Y-38302438D02*
X56916666Y-38350057D01*
X56916666Y-38350057D02*
X56964285Y-38445295D01*
X56964285Y-38445295D02*
X57011904Y-38635771D01*
X57011904Y-38635771D02*
X57011904Y-38873866D01*
X57011904Y-38873866D02*
X56964285Y-39064342D01*
X56964285Y-39064342D02*
X56916666Y-39159580D01*
X56916666Y-39159580D02*
X56869047Y-39207200D01*
X56869047Y-39207200D02*
X56773809Y-39254819D01*
X56773809Y-39254819D02*
X56678571Y-39254819D01*
X56678571Y-39254819D02*
X56583333Y-39207200D01*
X56583333Y-39207200D02*
X56535714Y-39159580D01*
X56535714Y-39159580D02*
X56488095Y-39064342D01*
X56488095Y-39064342D02*
X56440476Y-38873866D01*
X56440476Y-38873866D02*
X56440476Y-38635771D01*
X56440476Y-38635771D02*
X56488095Y-38445295D01*
X56488095Y-38445295D02*
X56535714Y-38350057D01*
X56535714Y-38350057D02*
X56583333Y-38302438D01*
X56583333Y-38302438D02*
X56678571Y-38254819D01*
X45428866Y-19261666D02*
X46428866Y-19261666D01*
X46428866Y-19261666D02*
X46628866Y-19328333D01*
X46628866Y-19328333D02*
X46762200Y-19461666D01*
X46762200Y-19461666D02*
X46828866Y-19661666D01*
X46828866Y-19661666D02*
X46828866Y-19795000D01*
X45895533Y-17994999D02*
X46828866Y-17994999D01*
X45362200Y-18328333D02*
X46362200Y-18661666D01*
X46362200Y-18661666D02*
X46362200Y-17794999D01*
X143297142Y-149059580D02*
X143249523Y-149107200D01*
X143249523Y-149107200D02*
X143106666Y-149154819D01*
X143106666Y-149154819D02*
X143011428Y-149154819D01*
X143011428Y-149154819D02*
X142868571Y-149107200D01*
X142868571Y-149107200D02*
X142773333Y-149011961D01*
X142773333Y-149011961D02*
X142725714Y-148916723D01*
X142725714Y-148916723D02*
X142678095Y-148726247D01*
X142678095Y-148726247D02*
X142678095Y-148583390D01*
X142678095Y-148583390D02*
X142725714Y-148392914D01*
X142725714Y-148392914D02*
X142773333Y-148297676D01*
X142773333Y-148297676D02*
X142868571Y-148202438D01*
X142868571Y-148202438D02*
X143011428Y-148154819D01*
X143011428Y-148154819D02*
X143106666Y-148154819D01*
X143106666Y-148154819D02*
X143249523Y-148202438D01*
X143249523Y-148202438D02*
X143297142Y-148250057D01*
X144154285Y-148488152D02*
X144154285Y-149154819D01*
X143916190Y-148107200D02*
X143678095Y-148821485D01*
X143678095Y-148821485D02*
X144297142Y-148821485D01*
X144630476Y-148250057D02*
X144678095Y-148202438D01*
X144678095Y-148202438D02*
X144773333Y-148154819D01*
X144773333Y-148154819D02*
X145011428Y-148154819D01*
X145011428Y-148154819D02*
X145106666Y-148202438D01*
X145106666Y-148202438D02*
X145154285Y-148250057D01*
X145154285Y-148250057D02*
X145201904Y-148345295D01*
X145201904Y-148345295D02*
X145201904Y-148440533D01*
X145201904Y-148440533D02*
X145154285Y-148583390D01*
X145154285Y-148583390D02*
X144582857Y-149154819D01*
X144582857Y-149154819D02*
X145201904Y-149154819D01*
X143297142Y-120059580D02*
X143249523Y-120107200D01*
X143249523Y-120107200D02*
X143106666Y-120154819D01*
X143106666Y-120154819D02*
X143011428Y-120154819D01*
X143011428Y-120154819D02*
X142868571Y-120107200D01*
X142868571Y-120107200D02*
X142773333Y-120011961D01*
X142773333Y-120011961D02*
X142725714Y-119916723D01*
X142725714Y-119916723D02*
X142678095Y-119726247D01*
X142678095Y-119726247D02*
X142678095Y-119583390D01*
X142678095Y-119583390D02*
X142725714Y-119392914D01*
X142725714Y-119392914D02*
X142773333Y-119297676D01*
X142773333Y-119297676D02*
X142868571Y-119202438D01*
X142868571Y-119202438D02*
X143011428Y-119154819D01*
X143011428Y-119154819D02*
X143106666Y-119154819D01*
X143106666Y-119154819D02*
X143249523Y-119202438D01*
X143249523Y-119202438D02*
X143297142Y-119250057D01*
X144154285Y-119488152D02*
X144154285Y-120154819D01*
X143916190Y-119107200D02*
X143678095Y-119821485D01*
X143678095Y-119821485D02*
X144297142Y-119821485D01*
X144725714Y-120154819D02*
X144916190Y-120154819D01*
X144916190Y-120154819D02*
X145011428Y-120107200D01*
X145011428Y-120107200D02*
X145059047Y-120059580D01*
X145059047Y-120059580D02*
X145154285Y-119916723D01*
X145154285Y-119916723D02*
X145201904Y-119726247D01*
X145201904Y-119726247D02*
X145201904Y-119345295D01*
X145201904Y-119345295D02*
X145154285Y-119250057D01*
X145154285Y-119250057D02*
X145106666Y-119202438D01*
X145106666Y-119202438D02*
X145011428Y-119154819D01*
X145011428Y-119154819D02*
X144820952Y-119154819D01*
X144820952Y-119154819D02*
X144725714Y-119202438D01*
X144725714Y-119202438D02*
X144678095Y-119250057D01*
X144678095Y-119250057D02*
X144630476Y-119345295D01*
X144630476Y-119345295D02*
X144630476Y-119583390D01*
X144630476Y-119583390D02*
X144678095Y-119678628D01*
X144678095Y-119678628D02*
X144725714Y-119726247D01*
X144725714Y-119726247D02*
X144820952Y-119773866D01*
X144820952Y-119773866D02*
X145011428Y-119773866D01*
X145011428Y-119773866D02*
X145106666Y-119726247D01*
X145106666Y-119726247D02*
X145154285Y-119678628D01*
X145154285Y-119678628D02*
X145201904Y-119583390D01*
X55107142Y-43309580D02*
X55059523Y-43357200D01*
X55059523Y-43357200D02*
X54916666Y-43404819D01*
X54916666Y-43404819D02*
X54821428Y-43404819D01*
X54821428Y-43404819D02*
X54678571Y-43357200D01*
X54678571Y-43357200D02*
X54583333Y-43261961D01*
X54583333Y-43261961D02*
X54535714Y-43166723D01*
X54535714Y-43166723D02*
X54488095Y-42976247D01*
X54488095Y-42976247D02*
X54488095Y-42833390D01*
X54488095Y-42833390D02*
X54535714Y-42642914D01*
X54535714Y-42642914D02*
X54583333Y-42547676D01*
X54583333Y-42547676D02*
X54678571Y-42452438D01*
X54678571Y-42452438D02*
X54821428Y-42404819D01*
X54821428Y-42404819D02*
X54916666Y-42404819D01*
X54916666Y-42404819D02*
X55059523Y-42452438D01*
X55059523Y-42452438D02*
X55107142Y-42500057D01*
X55488095Y-42500057D02*
X55535714Y-42452438D01*
X55535714Y-42452438D02*
X55630952Y-42404819D01*
X55630952Y-42404819D02*
X55869047Y-42404819D01*
X55869047Y-42404819D02*
X55964285Y-42452438D01*
X55964285Y-42452438D02*
X56011904Y-42500057D01*
X56011904Y-42500057D02*
X56059523Y-42595295D01*
X56059523Y-42595295D02*
X56059523Y-42690533D01*
X56059523Y-42690533D02*
X56011904Y-42833390D01*
X56011904Y-42833390D02*
X55440476Y-43404819D01*
X55440476Y-43404819D02*
X56059523Y-43404819D01*
X56535714Y-43404819D02*
X56726190Y-43404819D01*
X56726190Y-43404819D02*
X56821428Y-43357200D01*
X56821428Y-43357200D02*
X56869047Y-43309580D01*
X56869047Y-43309580D02*
X56964285Y-43166723D01*
X56964285Y-43166723D02*
X57011904Y-42976247D01*
X57011904Y-42976247D02*
X57011904Y-42595295D01*
X57011904Y-42595295D02*
X56964285Y-42500057D01*
X56964285Y-42500057D02*
X56916666Y-42452438D01*
X56916666Y-42452438D02*
X56821428Y-42404819D01*
X56821428Y-42404819D02*
X56630952Y-42404819D01*
X56630952Y-42404819D02*
X56535714Y-42452438D01*
X56535714Y-42452438D02*
X56488095Y-42500057D01*
X56488095Y-42500057D02*
X56440476Y-42595295D01*
X56440476Y-42595295D02*
X56440476Y-42833390D01*
X56440476Y-42833390D02*
X56488095Y-42928628D01*
X56488095Y-42928628D02*
X56535714Y-42976247D01*
X56535714Y-42976247D02*
X56630952Y-43023866D01*
X56630952Y-43023866D02*
X56821428Y-43023866D01*
X56821428Y-43023866D02*
X56916666Y-42976247D01*
X56916666Y-42976247D02*
X56964285Y-42928628D01*
X56964285Y-42928628D02*
X57011904Y-42833390D01*
X185273333Y-50749580D02*
X185225714Y-50797200D01*
X185225714Y-50797200D02*
X185082857Y-50844819D01*
X185082857Y-50844819D02*
X184987619Y-50844819D01*
X184987619Y-50844819D02*
X184844762Y-50797200D01*
X184844762Y-50797200D02*
X184749524Y-50701961D01*
X184749524Y-50701961D02*
X184701905Y-50606723D01*
X184701905Y-50606723D02*
X184654286Y-50416247D01*
X184654286Y-50416247D02*
X184654286Y-50273390D01*
X184654286Y-50273390D02*
X184701905Y-50082914D01*
X184701905Y-50082914D02*
X184749524Y-49987676D01*
X184749524Y-49987676D02*
X184844762Y-49892438D01*
X184844762Y-49892438D02*
X184987619Y-49844819D01*
X184987619Y-49844819D02*
X185082857Y-49844819D01*
X185082857Y-49844819D02*
X185225714Y-49892438D01*
X185225714Y-49892438D02*
X185273333Y-49940057D01*
X185606667Y-49844819D02*
X186273333Y-49844819D01*
X186273333Y-49844819D02*
X185844762Y-50844819D01*
X143297142Y-144959580D02*
X143249523Y-145007200D01*
X143249523Y-145007200D02*
X143106666Y-145054819D01*
X143106666Y-145054819D02*
X143011428Y-145054819D01*
X143011428Y-145054819D02*
X142868571Y-145007200D01*
X142868571Y-145007200D02*
X142773333Y-144911961D01*
X142773333Y-144911961D02*
X142725714Y-144816723D01*
X142725714Y-144816723D02*
X142678095Y-144626247D01*
X142678095Y-144626247D02*
X142678095Y-144483390D01*
X142678095Y-144483390D02*
X142725714Y-144292914D01*
X142725714Y-144292914D02*
X142773333Y-144197676D01*
X142773333Y-144197676D02*
X142868571Y-144102438D01*
X142868571Y-144102438D02*
X143011428Y-144054819D01*
X143011428Y-144054819D02*
X143106666Y-144054819D01*
X143106666Y-144054819D02*
X143249523Y-144102438D01*
X143249523Y-144102438D02*
X143297142Y-144150057D01*
X144154285Y-144388152D02*
X144154285Y-145054819D01*
X143916190Y-144007200D02*
X143678095Y-144721485D01*
X143678095Y-144721485D02*
X144297142Y-144721485D01*
X144582857Y-144054819D02*
X145201904Y-144054819D01*
X145201904Y-144054819D02*
X144868571Y-144435771D01*
X144868571Y-144435771D02*
X145011428Y-144435771D01*
X145011428Y-144435771D02*
X145106666Y-144483390D01*
X145106666Y-144483390D02*
X145154285Y-144531009D01*
X145154285Y-144531009D02*
X145201904Y-144626247D01*
X145201904Y-144626247D02*
X145201904Y-144864342D01*
X145201904Y-144864342D02*
X145154285Y-144959580D01*
X145154285Y-144959580D02*
X145106666Y-145007200D01*
X145106666Y-145007200D02*
X145011428Y-145054819D01*
X145011428Y-145054819D02*
X144725714Y-145054819D01*
X144725714Y-145054819D02*
X144630476Y-145007200D01*
X144630476Y-145007200D02*
X144582857Y-144959580D01*
X100797142Y-145599580D02*
X100749523Y-145647200D01*
X100749523Y-145647200D02*
X100606666Y-145694819D01*
X100606666Y-145694819D02*
X100511428Y-145694819D01*
X100511428Y-145694819D02*
X100368571Y-145647200D01*
X100368571Y-145647200D02*
X100273333Y-145551961D01*
X100273333Y-145551961D02*
X100225714Y-145456723D01*
X100225714Y-145456723D02*
X100178095Y-145266247D01*
X100178095Y-145266247D02*
X100178095Y-145123390D01*
X100178095Y-145123390D02*
X100225714Y-144932914D01*
X100225714Y-144932914D02*
X100273333Y-144837676D01*
X100273333Y-144837676D02*
X100368571Y-144742438D01*
X100368571Y-144742438D02*
X100511428Y-144694819D01*
X100511428Y-144694819D02*
X100606666Y-144694819D01*
X100606666Y-144694819D02*
X100749523Y-144742438D01*
X100749523Y-144742438D02*
X100797142Y-144790057D01*
X101701904Y-144694819D02*
X101225714Y-144694819D01*
X101225714Y-144694819D02*
X101178095Y-145171009D01*
X101178095Y-145171009D02*
X101225714Y-145123390D01*
X101225714Y-145123390D02*
X101320952Y-145075771D01*
X101320952Y-145075771D02*
X101559047Y-145075771D01*
X101559047Y-145075771D02*
X101654285Y-145123390D01*
X101654285Y-145123390D02*
X101701904Y-145171009D01*
X101701904Y-145171009D02*
X101749523Y-145266247D01*
X101749523Y-145266247D02*
X101749523Y-145504342D01*
X101749523Y-145504342D02*
X101701904Y-145599580D01*
X101701904Y-145599580D02*
X101654285Y-145647200D01*
X101654285Y-145647200D02*
X101559047Y-145694819D01*
X101559047Y-145694819D02*
X101320952Y-145694819D01*
X101320952Y-145694819D02*
X101225714Y-145647200D01*
X101225714Y-145647200D02*
X101178095Y-145599580D01*
X102368571Y-144694819D02*
X102463809Y-144694819D01*
X102463809Y-144694819D02*
X102559047Y-144742438D01*
X102559047Y-144742438D02*
X102606666Y-144790057D01*
X102606666Y-144790057D02*
X102654285Y-144885295D01*
X102654285Y-144885295D02*
X102701904Y-145075771D01*
X102701904Y-145075771D02*
X102701904Y-145313866D01*
X102701904Y-145313866D02*
X102654285Y-145504342D01*
X102654285Y-145504342D02*
X102606666Y-145599580D01*
X102606666Y-145599580D02*
X102559047Y-145647200D01*
X102559047Y-145647200D02*
X102463809Y-145694819D01*
X102463809Y-145694819D02*
X102368571Y-145694819D01*
X102368571Y-145694819D02*
X102273333Y-145647200D01*
X102273333Y-145647200D02*
X102225714Y-145599580D01*
X102225714Y-145599580D02*
X102178095Y-145504342D01*
X102178095Y-145504342D02*
X102130476Y-145313866D01*
X102130476Y-145313866D02*
X102130476Y-145075771D01*
X102130476Y-145075771D02*
X102178095Y-144885295D01*
X102178095Y-144885295D02*
X102225714Y-144790057D01*
X102225714Y-144790057D02*
X102273333Y-144742438D01*
X102273333Y-144742438D02*
X102368571Y-144694819D01*
X55107142Y-26709580D02*
X55059523Y-26757200D01*
X55059523Y-26757200D02*
X54916666Y-26804819D01*
X54916666Y-26804819D02*
X54821428Y-26804819D01*
X54821428Y-26804819D02*
X54678571Y-26757200D01*
X54678571Y-26757200D02*
X54583333Y-26661961D01*
X54583333Y-26661961D02*
X54535714Y-26566723D01*
X54535714Y-26566723D02*
X54488095Y-26376247D01*
X54488095Y-26376247D02*
X54488095Y-26233390D01*
X54488095Y-26233390D02*
X54535714Y-26042914D01*
X54535714Y-26042914D02*
X54583333Y-25947676D01*
X54583333Y-25947676D02*
X54678571Y-25852438D01*
X54678571Y-25852438D02*
X54821428Y-25804819D01*
X54821428Y-25804819D02*
X54916666Y-25804819D01*
X54916666Y-25804819D02*
X55059523Y-25852438D01*
X55059523Y-25852438D02*
X55107142Y-25900057D01*
X55440476Y-25804819D02*
X56059523Y-25804819D01*
X56059523Y-25804819D02*
X55726190Y-26185771D01*
X55726190Y-26185771D02*
X55869047Y-26185771D01*
X55869047Y-26185771D02*
X55964285Y-26233390D01*
X55964285Y-26233390D02*
X56011904Y-26281009D01*
X56011904Y-26281009D02*
X56059523Y-26376247D01*
X56059523Y-26376247D02*
X56059523Y-26614342D01*
X56059523Y-26614342D02*
X56011904Y-26709580D01*
X56011904Y-26709580D02*
X55964285Y-26757200D01*
X55964285Y-26757200D02*
X55869047Y-26804819D01*
X55869047Y-26804819D02*
X55583333Y-26804819D01*
X55583333Y-26804819D02*
X55488095Y-26757200D01*
X55488095Y-26757200D02*
X55440476Y-26709580D01*
X56392857Y-25804819D02*
X57011904Y-25804819D01*
X57011904Y-25804819D02*
X56678571Y-26185771D01*
X56678571Y-26185771D02*
X56821428Y-26185771D01*
X56821428Y-26185771D02*
X56916666Y-26233390D01*
X56916666Y-26233390D02*
X56964285Y-26281009D01*
X56964285Y-26281009D02*
X57011904Y-26376247D01*
X57011904Y-26376247D02*
X57011904Y-26614342D01*
X57011904Y-26614342D02*
X56964285Y-26709580D01*
X56964285Y-26709580D02*
X56916666Y-26757200D01*
X56916666Y-26757200D02*
X56821428Y-26804819D01*
X56821428Y-26804819D02*
X56535714Y-26804819D01*
X56535714Y-26804819D02*
X56440476Y-26757200D01*
X56440476Y-26757200D02*
X56392857Y-26709580D01*
X185273333Y-42449580D02*
X185225714Y-42497200D01*
X185225714Y-42497200D02*
X185082857Y-42544819D01*
X185082857Y-42544819D02*
X184987619Y-42544819D01*
X184987619Y-42544819D02*
X184844762Y-42497200D01*
X184844762Y-42497200D02*
X184749524Y-42401961D01*
X184749524Y-42401961D02*
X184701905Y-42306723D01*
X184701905Y-42306723D02*
X184654286Y-42116247D01*
X184654286Y-42116247D02*
X184654286Y-41973390D01*
X184654286Y-41973390D02*
X184701905Y-41782914D01*
X184701905Y-41782914D02*
X184749524Y-41687676D01*
X184749524Y-41687676D02*
X184844762Y-41592438D01*
X184844762Y-41592438D02*
X184987619Y-41544819D01*
X184987619Y-41544819D02*
X185082857Y-41544819D01*
X185082857Y-41544819D02*
X185225714Y-41592438D01*
X185225714Y-41592438D02*
X185273333Y-41640057D01*
X185749524Y-42544819D02*
X185940000Y-42544819D01*
X185940000Y-42544819D02*
X186035238Y-42497200D01*
X186035238Y-42497200D02*
X186082857Y-42449580D01*
X186082857Y-42449580D02*
X186178095Y-42306723D01*
X186178095Y-42306723D02*
X186225714Y-42116247D01*
X186225714Y-42116247D02*
X186225714Y-41735295D01*
X186225714Y-41735295D02*
X186178095Y-41640057D01*
X186178095Y-41640057D02*
X186130476Y-41592438D01*
X186130476Y-41592438D02*
X186035238Y-41544819D01*
X186035238Y-41544819D02*
X185844762Y-41544819D01*
X185844762Y-41544819D02*
X185749524Y-41592438D01*
X185749524Y-41592438D02*
X185701905Y-41640057D01*
X185701905Y-41640057D02*
X185654286Y-41735295D01*
X185654286Y-41735295D02*
X185654286Y-41973390D01*
X185654286Y-41973390D02*
X185701905Y-42068628D01*
X185701905Y-42068628D02*
X185749524Y-42116247D01*
X185749524Y-42116247D02*
X185844762Y-42163866D01*
X185844762Y-42163866D02*
X186035238Y-42163866D01*
X186035238Y-42163866D02*
X186130476Y-42116247D01*
X186130476Y-42116247D02*
X186178095Y-42068628D01*
X186178095Y-42068628D02*
X186225714Y-41973390D01*
X140297142Y-46399580D02*
X140249523Y-46447200D01*
X140249523Y-46447200D02*
X140106666Y-46494819D01*
X140106666Y-46494819D02*
X140011428Y-46494819D01*
X140011428Y-46494819D02*
X139868571Y-46447200D01*
X139868571Y-46447200D02*
X139773333Y-46351961D01*
X139773333Y-46351961D02*
X139725714Y-46256723D01*
X139725714Y-46256723D02*
X139678095Y-46066247D01*
X139678095Y-46066247D02*
X139678095Y-45923390D01*
X139678095Y-45923390D02*
X139725714Y-45732914D01*
X139725714Y-45732914D02*
X139773333Y-45637676D01*
X139773333Y-45637676D02*
X139868571Y-45542438D01*
X139868571Y-45542438D02*
X140011428Y-45494819D01*
X140011428Y-45494819D02*
X140106666Y-45494819D01*
X140106666Y-45494819D02*
X140249523Y-45542438D01*
X140249523Y-45542438D02*
X140297142Y-45590057D01*
X141249523Y-46494819D02*
X140678095Y-46494819D01*
X140963809Y-46494819D02*
X140963809Y-45494819D01*
X140963809Y-45494819D02*
X140868571Y-45637676D01*
X140868571Y-45637676D02*
X140773333Y-45732914D01*
X140773333Y-45732914D02*
X140678095Y-45780533D01*
X142154285Y-45494819D02*
X141678095Y-45494819D01*
X141678095Y-45494819D02*
X141630476Y-45971009D01*
X141630476Y-45971009D02*
X141678095Y-45923390D01*
X141678095Y-45923390D02*
X141773333Y-45875771D01*
X141773333Y-45875771D02*
X142011428Y-45875771D01*
X142011428Y-45875771D02*
X142106666Y-45923390D01*
X142106666Y-45923390D02*
X142154285Y-45971009D01*
X142154285Y-45971009D02*
X142201904Y-46066247D01*
X142201904Y-46066247D02*
X142201904Y-46304342D01*
X142201904Y-46304342D02*
X142154285Y-46399580D01*
X142154285Y-46399580D02*
X142106666Y-46447200D01*
X142106666Y-46447200D02*
X142011428Y-46494819D01*
X142011428Y-46494819D02*
X141773333Y-46494819D01*
X141773333Y-46494819D02*
X141678095Y-46447200D01*
X141678095Y-46447200D02*
X141630476Y-46399580D01*
X55107142Y-30859580D02*
X55059523Y-30907200D01*
X55059523Y-30907200D02*
X54916666Y-30954819D01*
X54916666Y-30954819D02*
X54821428Y-30954819D01*
X54821428Y-30954819D02*
X54678571Y-30907200D01*
X54678571Y-30907200D02*
X54583333Y-30811961D01*
X54583333Y-30811961D02*
X54535714Y-30716723D01*
X54535714Y-30716723D02*
X54488095Y-30526247D01*
X54488095Y-30526247D02*
X54488095Y-30383390D01*
X54488095Y-30383390D02*
X54535714Y-30192914D01*
X54535714Y-30192914D02*
X54583333Y-30097676D01*
X54583333Y-30097676D02*
X54678571Y-30002438D01*
X54678571Y-30002438D02*
X54821428Y-29954819D01*
X54821428Y-29954819D02*
X54916666Y-29954819D01*
X54916666Y-29954819D02*
X55059523Y-30002438D01*
X55059523Y-30002438D02*
X55107142Y-30050057D01*
X55440476Y-29954819D02*
X56059523Y-29954819D01*
X56059523Y-29954819D02*
X55726190Y-30335771D01*
X55726190Y-30335771D02*
X55869047Y-30335771D01*
X55869047Y-30335771D02*
X55964285Y-30383390D01*
X55964285Y-30383390D02*
X56011904Y-30431009D01*
X56011904Y-30431009D02*
X56059523Y-30526247D01*
X56059523Y-30526247D02*
X56059523Y-30764342D01*
X56059523Y-30764342D02*
X56011904Y-30859580D01*
X56011904Y-30859580D02*
X55964285Y-30907200D01*
X55964285Y-30907200D02*
X55869047Y-30954819D01*
X55869047Y-30954819D02*
X55583333Y-30954819D01*
X55583333Y-30954819D02*
X55488095Y-30907200D01*
X55488095Y-30907200D02*
X55440476Y-30859580D01*
X56440476Y-30050057D02*
X56488095Y-30002438D01*
X56488095Y-30002438D02*
X56583333Y-29954819D01*
X56583333Y-29954819D02*
X56821428Y-29954819D01*
X56821428Y-29954819D02*
X56916666Y-30002438D01*
X56916666Y-30002438D02*
X56964285Y-30050057D01*
X56964285Y-30050057D02*
X57011904Y-30145295D01*
X57011904Y-30145295D02*
X57011904Y-30240533D01*
X57011904Y-30240533D02*
X56964285Y-30383390D01*
X56964285Y-30383390D02*
X56392857Y-30954819D01*
X56392857Y-30954819D02*
X57011904Y-30954819D01*
X227729524Y-50234819D02*
X227729524Y-49234819D01*
X227729524Y-49234819D02*
X227967619Y-49234819D01*
X227967619Y-49234819D02*
X228110476Y-49282438D01*
X228110476Y-49282438D02*
X228205714Y-49377676D01*
X228205714Y-49377676D02*
X228253333Y-49472914D01*
X228253333Y-49472914D02*
X228300952Y-49663390D01*
X228300952Y-49663390D02*
X228300952Y-49806247D01*
X228300952Y-49806247D02*
X228253333Y-49996723D01*
X228253333Y-49996723D02*
X228205714Y-50091961D01*
X228205714Y-50091961D02*
X228110476Y-50187200D01*
X228110476Y-50187200D02*
X227967619Y-50234819D01*
X227967619Y-50234819D02*
X227729524Y-50234819D01*
X229205714Y-50234819D02*
X228729524Y-50234819D01*
X228729524Y-50234819D02*
X228729524Y-49234819D01*
X229539048Y-50234819D02*
X229539048Y-49234819D01*
X229539048Y-49234819D02*
X229920000Y-49234819D01*
X229920000Y-49234819D02*
X230015238Y-49282438D01*
X230015238Y-49282438D02*
X230062857Y-49330057D01*
X230062857Y-49330057D02*
X230110476Y-49425295D01*
X230110476Y-49425295D02*
X230110476Y-49568152D01*
X230110476Y-49568152D02*
X230062857Y-49663390D01*
X230062857Y-49663390D02*
X230015238Y-49711009D01*
X230015238Y-49711009D02*
X229920000Y-49758628D01*
X229920000Y-49758628D02*
X229539048Y-49758628D01*
X230300953Y-50330057D02*
X231062857Y-50330057D01*
X231872381Y-50234819D02*
X231539048Y-49758628D01*
X231300953Y-50234819D02*
X231300953Y-49234819D01*
X231300953Y-49234819D02*
X231681905Y-49234819D01*
X231681905Y-49234819D02*
X231777143Y-49282438D01*
X231777143Y-49282438D02*
X231824762Y-49330057D01*
X231824762Y-49330057D02*
X231872381Y-49425295D01*
X231872381Y-49425295D02*
X231872381Y-49568152D01*
X231872381Y-49568152D02*
X231824762Y-49663390D01*
X231824762Y-49663390D02*
X231777143Y-49711009D01*
X231777143Y-49711009D02*
X231681905Y-49758628D01*
X231681905Y-49758628D02*
X231300953Y-49758628D01*
X232634286Y-49711009D02*
X232300953Y-49711009D01*
X232300953Y-50234819D02*
X232300953Y-49234819D01*
X232300953Y-49234819D02*
X232777143Y-49234819D01*
X233158096Y-50234819D02*
X233158096Y-49234819D01*
X233634286Y-50234819D02*
X233634286Y-49234819D01*
X233634286Y-49234819D02*
X233872381Y-49234819D01*
X233872381Y-49234819D02*
X234015238Y-49282438D01*
X234015238Y-49282438D02*
X234110476Y-49377676D01*
X234110476Y-49377676D02*
X234158095Y-49472914D01*
X234158095Y-49472914D02*
X234205714Y-49663390D01*
X234205714Y-49663390D02*
X234205714Y-49806247D01*
X234205714Y-49806247D02*
X234158095Y-49996723D01*
X234158095Y-49996723D02*
X234110476Y-50091961D01*
X234110476Y-50091961D02*
X234015238Y-50187200D01*
X234015238Y-50187200D02*
X233872381Y-50234819D01*
X233872381Y-50234819D02*
X233634286Y-50234819D01*
X234586667Y-49330057D02*
X234634286Y-49282438D01*
X234634286Y-49282438D02*
X234729524Y-49234819D01*
X234729524Y-49234819D02*
X234967619Y-49234819D01*
X234967619Y-49234819D02*
X235062857Y-49282438D01*
X235062857Y-49282438D02*
X235110476Y-49330057D01*
X235110476Y-49330057D02*
X235158095Y-49425295D01*
X235158095Y-49425295D02*
X235158095Y-49520533D01*
X235158095Y-49520533D02*
X235110476Y-49663390D01*
X235110476Y-49663390D02*
X234539048Y-50234819D01*
X234539048Y-50234819D02*
X235158095Y-50234819D01*
X183797142Y-131459580D02*
X183749523Y-131507200D01*
X183749523Y-131507200D02*
X183606666Y-131554819D01*
X183606666Y-131554819D02*
X183511428Y-131554819D01*
X183511428Y-131554819D02*
X183368571Y-131507200D01*
X183368571Y-131507200D02*
X183273333Y-131411961D01*
X183273333Y-131411961D02*
X183225714Y-131316723D01*
X183225714Y-131316723D02*
X183178095Y-131126247D01*
X183178095Y-131126247D02*
X183178095Y-130983390D01*
X183178095Y-130983390D02*
X183225714Y-130792914D01*
X183225714Y-130792914D02*
X183273333Y-130697676D01*
X183273333Y-130697676D02*
X183368571Y-130602438D01*
X183368571Y-130602438D02*
X183511428Y-130554819D01*
X183511428Y-130554819D02*
X183606666Y-130554819D01*
X183606666Y-130554819D02*
X183749523Y-130602438D01*
X183749523Y-130602438D02*
X183797142Y-130650057D01*
X184130476Y-130554819D02*
X184749523Y-130554819D01*
X184749523Y-130554819D02*
X184416190Y-130935771D01*
X184416190Y-130935771D02*
X184559047Y-130935771D01*
X184559047Y-130935771D02*
X184654285Y-130983390D01*
X184654285Y-130983390D02*
X184701904Y-131031009D01*
X184701904Y-131031009D02*
X184749523Y-131126247D01*
X184749523Y-131126247D02*
X184749523Y-131364342D01*
X184749523Y-131364342D02*
X184701904Y-131459580D01*
X184701904Y-131459580D02*
X184654285Y-131507200D01*
X184654285Y-131507200D02*
X184559047Y-131554819D01*
X184559047Y-131554819D02*
X184273333Y-131554819D01*
X184273333Y-131554819D02*
X184178095Y-131507200D01*
X184178095Y-131507200D02*
X184130476Y-131459580D01*
X185082857Y-130554819D02*
X185749523Y-130554819D01*
X185749523Y-130554819D02*
X185320952Y-131554819D01*
X100797142Y-137299580D02*
X100749523Y-137347200D01*
X100749523Y-137347200D02*
X100606666Y-137394819D01*
X100606666Y-137394819D02*
X100511428Y-137394819D01*
X100511428Y-137394819D02*
X100368571Y-137347200D01*
X100368571Y-137347200D02*
X100273333Y-137251961D01*
X100273333Y-137251961D02*
X100225714Y-137156723D01*
X100225714Y-137156723D02*
X100178095Y-136966247D01*
X100178095Y-136966247D02*
X100178095Y-136823390D01*
X100178095Y-136823390D02*
X100225714Y-136632914D01*
X100225714Y-136632914D02*
X100273333Y-136537676D01*
X100273333Y-136537676D02*
X100368571Y-136442438D01*
X100368571Y-136442438D02*
X100511428Y-136394819D01*
X100511428Y-136394819D02*
X100606666Y-136394819D01*
X100606666Y-136394819D02*
X100749523Y-136442438D01*
X100749523Y-136442438D02*
X100797142Y-136490057D01*
X101701904Y-136394819D02*
X101225714Y-136394819D01*
X101225714Y-136394819D02*
X101178095Y-136871009D01*
X101178095Y-136871009D02*
X101225714Y-136823390D01*
X101225714Y-136823390D02*
X101320952Y-136775771D01*
X101320952Y-136775771D02*
X101559047Y-136775771D01*
X101559047Y-136775771D02*
X101654285Y-136823390D01*
X101654285Y-136823390D02*
X101701904Y-136871009D01*
X101701904Y-136871009D02*
X101749523Y-136966247D01*
X101749523Y-136966247D02*
X101749523Y-137204342D01*
X101749523Y-137204342D02*
X101701904Y-137299580D01*
X101701904Y-137299580D02*
X101654285Y-137347200D01*
X101654285Y-137347200D02*
X101559047Y-137394819D01*
X101559047Y-137394819D02*
X101320952Y-137394819D01*
X101320952Y-137394819D02*
X101225714Y-137347200D01*
X101225714Y-137347200D02*
X101178095Y-137299580D01*
X102130476Y-136490057D02*
X102178095Y-136442438D01*
X102178095Y-136442438D02*
X102273333Y-136394819D01*
X102273333Y-136394819D02*
X102511428Y-136394819D01*
X102511428Y-136394819D02*
X102606666Y-136442438D01*
X102606666Y-136442438D02*
X102654285Y-136490057D01*
X102654285Y-136490057D02*
X102701904Y-136585295D01*
X102701904Y-136585295D02*
X102701904Y-136680533D01*
X102701904Y-136680533D02*
X102654285Y-136823390D01*
X102654285Y-136823390D02*
X102082857Y-137394819D01*
X102082857Y-137394819D02*
X102701904Y-137394819D01*
X185273333Y-59049580D02*
X185225714Y-59097200D01*
X185225714Y-59097200D02*
X185082857Y-59144819D01*
X185082857Y-59144819D02*
X184987619Y-59144819D01*
X184987619Y-59144819D02*
X184844762Y-59097200D01*
X184844762Y-59097200D02*
X184749524Y-59001961D01*
X184749524Y-59001961D02*
X184701905Y-58906723D01*
X184701905Y-58906723D02*
X184654286Y-58716247D01*
X184654286Y-58716247D02*
X184654286Y-58573390D01*
X184654286Y-58573390D02*
X184701905Y-58382914D01*
X184701905Y-58382914D02*
X184749524Y-58287676D01*
X184749524Y-58287676D02*
X184844762Y-58192438D01*
X184844762Y-58192438D02*
X184987619Y-58144819D01*
X184987619Y-58144819D02*
X185082857Y-58144819D01*
X185082857Y-58144819D02*
X185225714Y-58192438D01*
X185225714Y-58192438D02*
X185273333Y-58240057D01*
X186178095Y-58144819D02*
X185701905Y-58144819D01*
X185701905Y-58144819D02*
X185654286Y-58621009D01*
X185654286Y-58621009D02*
X185701905Y-58573390D01*
X185701905Y-58573390D02*
X185797143Y-58525771D01*
X185797143Y-58525771D02*
X186035238Y-58525771D01*
X186035238Y-58525771D02*
X186130476Y-58573390D01*
X186130476Y-58573390D02*
X186178095Y-58621009D01*
X186178095Y-58621009D02*
X186225714Y-58716247D01*
X186225714Y-58716247D02*
X186225714Y-58954342D01*
X186225714Y-58954342D02*
X186178095Y-59049580D01*
X186178095Y-59049580D02*
X186130476Y-59097200D01*
X186130476Y-59097200D02*
X186035238Y-59144819D01*
X186035238Y-59144819D02*
X185797143Y-59144819D01*
X185797143Y-59144819D02*
X185701905Y-59097200D01*
X185701905Y-59097200D02*
X185654286Y-59049580D01*
X91739866Y-17466666D02*
X92739866Y-17466666D01*
X92739866Y-17466666D02*
X92939866Y-17533333D01*
X92939866Y-17533333D02*
X93073200Y-17666666D01*
X93073200Y-17666666D02*
X93139866Y-17866666D01*
X93139866Y-17866666D02*
X93139866Y-18000000D01*
X91739866Y-16933333D02*
X91739866Y-16066666D01*
X91739866Y-16066666D02*
X92273200Y-16533333D01*
X92273200Y-16533333D02*
X92273200Y-16333333D01*
X92273200Y-16333333D02*
X92339866Y-16199999D01*
X92339866Y-16199999D02*
X92406533Y-16133333D01*
X92406533Y-16133333D02*
X92539866Y-16066666D01*
X92539866Y-16066666D02*
X92873200Y-16066666D01*
X92873200Y-16066666D02*
X93006533Y-16133333D01*
X93006533Y-16133333D02*
X93073200Y-16199999D01*
X93073200Y-16199999D02*
X93139866Y-16333333D01*
X93139866Y-16333333D02*
X93139866Y-16733333D01*
X93139866Y-16733333D02*
X93073200Y-16866666D01*
X93073200Y-16866666D02*
X93006533Y-16933333D01*
X140297142Y-54449580D02*
X140249523Y-54497200D01*
X140249523Y-54497200D02*
X140106666Y-54544819D01*
X140106666Y-54544819D02*
X140011428Y-54544819D01*
X140011428Y-54544819D02*
X139868571Y-54497200D01*
X139868571Y-54497200D02*
X139773333Y-54401961D01*
X139773333Y-54401961D02*
X139725714Y-54306723D01*
X139725714Y-54306723D02*
X139678095Y-54116247D01*
X139678095Y-54116247D02*
X139678095Y-53973390D01*
X139678095Y-53973390D02*
X139725714Y-53782914D01*
X139725714Y-53782914D02*
X139773333Y-53687676D01*
X139773333Y-53687676D02*
X139868571Y-53592438D01*
X139868571Y-53592438D02*
X140011428Y-53544819D01*
X140011428Y-53544819D02*
X140106666Y-53544819D01*
X140106666Y-53544819D02*
X140249523Y-53592438D01*
X140249523Y-53592438D02*
X140297142Y-53640057D01*
X141249523Y-54544819D02*
X140678095Y-54544819D01*
X140963809Y-54544819D02*
X140963809Y-53544819D01*
X140963809Y-53544819D02*
X140868571Y-53687676D01*
X140868571Y-53687676D02*
X140773333Y-53782914D01*
X140773333Y-53782914D02*
X140678095Y-53830533D01*
X141582857Y-53544819D02*
X142201904Y-53544819D01*
X142201904Y-53544819D02*
X141868571Y-53925771D01*
X141868571Y-53925771D02*
X142011428Y-53925771D01*
X142011428Y-53925771D02*
X142106666Y-53973390D01*
X142106666Y-53973390D02*
X142154285Y-54021009D01*
X142154285Y-54021009D02*
X142201904Y-54116247D01*
X142201904Y-54116247D02*
X142201904Y-54354342D01*
X142201904Y-54354342D02*
X142154285Y-54449580D01*
X142154285Y-54449580D02*
X142106666Y-54497200D01*
X142106666Y-54497200D02*
X142011428Y-54544819D01*
X142011428Y-54544819D02*
X141725714Y-54544819D01*
X141725714Y-54544819D02*
X141630476Y-54497200D01*
X141630476Y-54497200D02*
X141582857Y-54449580D01*
X71928095Y-127194819D02*
X71928095Y-128004342D01*
X71928095Y-128004342D02*
X71975714Y-128099580D01*
X71975714Y-128099580D02*
X72023333Y-128147200D01*
X72023333Y-128147200D02*
X72118571Y-128194819D01*
X72118571Y-128194819D02*
X72309047Y-128194819D01*
X72309047Y-128194819D02*
X72404285Y-128147200D01*
X72404285Y-128147200D02*
X72451904Y-128099580D01*
X72451904Y-128099580D02*
X72499523Y-128004342D01*
X72499523Y-128004342D02*
X72499523Y-127194819D01*
X73118571Y-127623390D02*
X73023333Y-127575771D01*
X73023333Y-127575771D02*
X72975714Y-127528152D01*
X72975714Y-127528152D02*
X72928095Y-127432914D01*
X72928095Y-127432914D02*
X72928095Y-127385295D01*
X72928095Y-127385295D02*
X72975714Y-127290057D01*
X72975714Y-127290057D02*
X73023333Y-127242438D01*
X73023333Y-127242438D02*
X73118571Y-127194819D01*
X73118571Y-127194819D02*
X73309047Y-127194819D01*
X73309047Y-127194819D02*
X73404285Y-127242438D01*
X73404285Y-127242438D02*
X73451904Y-127290057D01*
X73451904Y-127290057D02*
X73499523Y-127385295D01*
X73499523Y-127385295D02*
X73499523Y-127432914D01*
X73499523Y-127432914D02*
X73451904Y-127528152D01*
X73451904Y-127528152D02*
X73404285Y-127575771D01*
X73404285Y-127575771D02*
X73309047Y-127623390D01*
X73309047Y-127623390D02*
X73118571Y-127623390D01*
X73118571Y-127623390D02*
X73023333Y-127671009D01*
X73023333Y-127671009D02*
X72975714Y-127718628D01*
X72975714Y-127718628D02*
X72928095Y-127813866D01*
X72928095Y-127813866D02*
X72928095Y-128004342D01*
X72928095Y-128004342D02*
X72975714Y-128099580D01*
X72975714Y-128099580D02*
X73023333Y-128147200D01*
X73023333Y-128147200D02*
X73118571Y-128194819D01*
X73118571Y-128194819D02*
X73309047Y-128194819D01*
X73309047Y-128194819D02*
X73404285Y-128147200D01*
X73404285Y-128147200D02*
X73451904Y-128099580D01*
X73451904Y-128099580D02*
X73499523Y-128004342D01*
X73499523Y-128004342D02*
X73499523Y-127813866D01*
X73499523Y-127813866D02*
X73451904Y-127718628D01*
X73451904Y-127718628D02*
X73404285Y-127671009D01*
X73404285Y-127671009D02*
X73309047Y-127623390D01*
X68880000Y-116895119D02*
X68880000Y-117133214D01*
X68641905Y-117037976D02*
X68880000Y-117133214D01*
X68880000Y-117133214D02*
X69118095Y-117037976D01*
X68737143Y-117323690D02*
X68880000Y-117133214D01*
X68880000Y-117133214D02*
X69022857Y-117323690D01*
X185273333Y-67349580D02*
X185225714Y-67397200D01*
X185225714Y-67397200D02*
X185082857Y-67444819D01*
X185082857Y-67444819D02*
X184987619Y-67444819D01*
X184987619Y-67444819D02*
X184844762Y-67397200D01*
X184844762Y-67397200D02*
X184749524Y-67301961D01*
X184749524Y-67301961D02*
X184701905Y-67206723D01*
X184701905Y-67206723D02*
X184654286Y-67016247D01*
X184654286Y-67016247D02*
X184654286Y-66873390D01*
X184654286Y-66873390D02*
X184701905Y-66682914D01*
X184701905Y-66682914D02*
X184749524Y-66587676D01*
X184749524Y-66587676D02*
X184844762Y-66492438D01*
X184844762Y-66492438D02*
X184987619Y-66444819D01*
X184987619Y-66444819D02*
X185082857Y-66444819D01*
X185082857Y-66444819D02*
X185225714Y-66492438D01*
X185225714Y-66492438D02*
X185273333Y-66540057D01*
X185606667Y-66444819D02*
X186225714Y-66444819D01*
X186225714Y-66444819D02*
X185892381Y-66825771D01*
X185892381Y-66825771D02*
X186035238Y-66825771D01*
X186035238Y-66825771D02*
X186130476Y-66873390D01*
X186130476Y-66873390D02*
X186178095Y-66921009D01*
X186178095Y-66921009D02*
X186225714Y-67016247D01*
X186225714Y-67016247D02*
X186225714Y-67254342D01*
X186225714Y-67254342D02*
X186178095Y-67349580D01*
X186178095Y-67349580D02*
X186130476Y-67397200D01*
X186130476Y-67397200D02*
X186035238Y-67444819D01*
X186035238Y-67444819D02*
X185749524Y-67444819D01*
X185749524Y-67444819D02*
X185654286Y-67397200D01*
X185654286Y-67397200D02*
X185606667Y-67349580D01*
D11*
%TO.C,C57*%
X98730000Y-115840000D02*
X99420000Y-115840000D01*
X104150000Y-115840000D02*
X103460000Y-115840000D01*
X103460000Y-117260000D02*
X99420000Y-117260000D01*
X99420000Y-114420000D01*
X103460000Y-114420000D01*
X103460000Y-117260000D01*
D12*
%TO.C,U1*%
X195578000Y-47680440D02*
X195578000Y-48401431D01*
X195578000Y-50078569D02*
X195578000Y-50941431D01*
X195578000Y-52618569D02*
X195578000Y-53481431D01*
X195578000Y-55158569D02*
X195578000Y-56021431D01*
X195578000Y-57698569D02*
X195578000Y-58561431D01*
X195578000Y-60238569D02*
X195578000Y-61101431D01*
X195578000Y-62778569D02*
X195578000Y-63641431D01*
X195578000Y-65432500D02*
X202182000Y-65432500D01*
X202182000Y-45747500D02*
X195851165Y-45747500D01*
X202182000Y-48401431D02*
X202182000Y-47538569D01*
X202182000Y-50941431D02*
X202182000Y-50078569D01*
X202182000Y-53481431D02*
X202182000Y-52618569D01*
X202182000Y-56021431D02*
X202182000Y-55158569D01*
X202182000Y-58561431D02*
X202182000Y-57698569D01*
X202182000Y-61101431D02*
X202182000Y-60238569D01*
X202182000Y-63641431D02*
X202182000Y-62778569D01*
X199184800Y-45747500D02*
G75*
G02*
X198575200Y-45747500I-304800J0D01*
G01*
D11*
%TO.C,C62*%
X56230000Y-124140000D02*
X56920000Y-124140000D01*
X61650000Y-124140000D02*
X60960000Y-124140000D01*
X60960000Y-125560000D02*
X56920000Y-125560000D01*
X56920000Y-122720000D01*
X60960000Y-122720000D01*
X60960000Y-125560000D01*
%TO.C,C23*%
X96730000Y-46540000D02*
X97420000Y-46540000D01*
X102150000Y-46540000D02*
X101460000Y-46540000D01*
X101460000Y-47960000D02*
X97420000Y-47960000D01*
X97420000Y-45120000D01*
X101460000Y-45120000D01*
X101460000Y-47960000D01*
D12*
%TO.C,U2*%
X151578000Y-44520440D02*
X151578000Y-45241431D01*
X151578000Y-46918569D02*
X151578000Y-47781431D01*
X151578000Y-49458569D02*
X151578000Y-50321431D01*
X151578000Y-51998569D02*
X151578000Y-52861431D01*
X151578000Y-54538569D02*
X151578000Y-55401431D01*
X151578000Y-57078569D02*
X151578000Y-57941431D01*
X151578000Y-59618569D02*
X151578000Y-60481431D01*
X151578000Y-62272500D02*
X158182000Y-62272500D01*
X158182000Y-42587500D02*
X151851165Y-42587500D01*
X158182000Y-45241431D02*
X158182000Y-44378569D01*
X158182000Y-47781431D02*
X158182000Y-46918569D01*
X158182000Y-50321431D02*
X158182000Y-49458569D01*
X158182000Y-52861431D02*
X158182000Y-51998569D01*
X158182000Y-55401431D02*
X158182000Y-54538569D01*
X158182000Y-57941431D02*
X158182000Y-57078569D01*
X158182000Y-60481431D02*
X158182000Y-59618569D01*
X155184800Y-42587500D02*
G75*
G02*
X154575200Y-42587500I-304800J0D01*
G01*
D11*
%TO.C,C60*%
X56230000Y-132440000D02*
X56920000Y-132440000D01*
X61650000Y-132440000D02*
X60960000Y-132440000D01*
X60960000Y-133860000D02*
X56920000Y-133860000D01*
X56920000Y-131020000D01*
X60960000Y-131020000D01*
X60960000Y-133860000D01*
%TO.C,C26*%
X53040000Y-55350000D02*
X53730000Y-55350000D01*
X58460000Y-55350000D02*
X57770000Y-55350000D01*
X57770000Y-56770000D02*
X53730000Y-56770000D01*
X53730000Y-53930000D01*
X57770000Y-53930000D01*
X57770000Y-56770000D01*
%TO.C,C2*%
X182730000Y-71140000D02*
X183420000Y-71140000D01*
X188150000Y-71140000D02*
X187460000Y-71140000D01*
X187460000Y-72560000D02*
X183420000Y-72560000D01*
X183420000Y-69720000D01*
X187460000Y-69720000D01*
X187460000Y-72560000D01*
%TO.C,C45*%
X141230000Y-136300000D02*
X141920000Y-136300000D01*
X146650000Y-136300000D02*
X145960000Y-136300000D01*
X145960000Y-137720000D02*
X141920000Y-137720000D01*
X141920000Y-134880000D01*
X145960000Y-134880000D01*
X145960000Y-137720000D01*
%TO.C,C27*%
X53040000Y-51200000D02*
X53730000Y-51200000D01*
X58460000Y-51200000D02*
X57770000Y-51200000D01*
X57770000Y-52620000D02*
X53730000Y-52620000D01*
X53730000Y-49780000D01*
X57770000Y-49780000D01*
X57770000Y-52620000D01*
%TO.C,C61*%
X56230000Y-128290000D02*
X56920000Y-128290000D01*
X61650000Y-128290000D02*
X60960000Y-128290000D01*
X60960000Y-129710000D02*
X56920000Y-129710000D01*
X56920000Y-126870000D01*
X60960000Y-126870000D01*
X60960000Y-129710000D01*
%TO.C,C54*%
X98730000Y-128640000D02*
X99420000Y-128640000D01*
X104150000Y-128640000D02*
X103460000Y-128640000D01*
X103460000Y-130060000D02*
X99420000Y-130060000D01*
X99420000Y-127220000D01*
X103460000Y-127220000D01*
X103460000Y-130060000D01*
%TO.C,C40*%
X187150000Y-118650000D02*
X186460000Y-118650000D01*
X181730000Y-118650000D02*
X182420000Y-118650000D01*
X186460000Y-120070000D02*
X182420000Y-120070000D01*
X182420000Y-117230000D01*
X186460000Y-117230000D01*
X186460000Y-120070000D01*
%TO.C,C44*%
X141230000Y-140450000D02*
X141920000Y-140450000D01*
X146650000Y-140450000D02*
X145960000Y-140450000D01*
X145960000Y-141870000D02*
X141920000Y-141870000D01*
X141920000Y-139030000D01*
X145960000Y-139030000D01*
X145960000Y-141870000D01*
%TO.C,C64*%
X56230000Y-115840000D02*
X56920000Y-115840000D01*
X61650000Y-115840000D02*
X60960000Y-115840000D01*
X60960000Y-117260000D02*
X56920000Y-117260000D01*
X56920000Y-114420000D01*
X60960000Y-114420000D01*
X60960000Y-117260000D01*
%TO.C,C59*%
X56230000Y-136590000D02*
X56920000Y-136590000D01*
X61650000Y-136590000D02*
X60960000Y-136590000D01*
X60960000Y-138010000D02*
X56920000Y-138010000D01*
X56920000Y-135170000D01*
X60960000Y-135170000D01*
X60960000Y-138010000D01*
D13*
%TO.C,J1*%
X166390000Y-14240000D02*
X174190000Y-14240000D01*
X166390000Y-94240000D02*
X166390000Y-14240000D01*
X174190000Y-14240000D02*
X174190000Y-94240000D01*
X174190000Y-94240000D02*
X166390000Y-94240000D01*
D14*
X165490000Y-91740000D02*
G75*
G02*
X165290000Y-91740000I-100000J0D01*
G01*
X165290000Y-91740000D02*
G75*
G02*
X165490000Y-91740000I100000J0D01*
G01*
D11*
%TO.C,C41*%
X187150000Y-114500000D02*
X186460000Y-114500000D01*
X181730000Y-114500000D02*
X182420000Y-114500000D01*
X186460000Y-115920000D02*
X182420000Y-115920000D01*
X182420000Y-113080000D01*
X186460000Y-113080000D01*
X186460000Y-115920000D01*
D13*
%TO.C,J2*%
X123690000Y-12740000D02*
X131490000Y-12740000D01*
X123690000Y-92740000D02*
X123690000Y-12740000D01*
X131490000Y-12740000D02*
X131490000Y-92740000D01*
X131490000Y-92740000D02*
X123690000Y-92740000D01*
D14*
X132590000Y-15240000D02*
G75*
G02*
X132390000Y-15240000I-100000J0D01*
G01*
X132390000Y-15240000D02*
G75*
G02*
X132590000Y-15240000I100000J0D01*
G01*
D11*
%TO.C,C16*%
X138230000Y-41890000D02*
X138920000Y-41890000D01*
X143650000Y-41890000D02*
X142960000Y-41890000D01*
X142960000Y-43310000D02*
X138920000Y-43310000D01*
X138920000Y-40470000D01*
X142960000Y-40470000D01*
X142960000Y-43310000D01*
%TO.C,C6*%
X182730000Y-54540000D02*
X183420000Y-54540000D01*
X188150000Y-54540000D02*
X187460000Y-54540000D01*
X187460000Y-55960000D02*
X183420000Y-55960000D01*
X183420000Y-53120000D01*
X187460000Y-53120000D01*
X187460000Y-55960000D01*
D12*
%TO.C,U6*%
X154078000Y-123680440D02*
X154078000Y-124401431D01*
X154078000Y-126078569D02*
X154078000Y-126941431D01*
X154078000Y-128618569D02*
X154078000Y-129481431D01*
X154078000Y-131158569D02*
X154078000Y-132021431D01*
X154078000Y-133698569D02*
X154078000Y-134561431D01*
X154078000Y-136238569D02*
X154078000Y-137101431D01*
X154078000Y-138778569D02*
X154078000Y-139641431D01*
X154078000Y-141432500D02*
X160682000Y-141432500D01*
X160682000Y-121747500D02*
X154351165Y-121747500D01*
X160682000Y-124401431D02*
X160682000Y-123538569D01*
X160682000Y-126941431D02*
X160682000Y-126078569D01*
X160682000Y-129481431D02*
X160682000Y-128618569D01*
X160682000Y-132021431D02*
X160682000Y-131158569D01*
X160682000Y-134561431D02*
X160682000Y-133698569D01*
X160682000Y-137101431D02*
X160682000Y-136238569D01*
X160682000Y-139641431D02*
X160682000Y-138778569D01*
X157684800Y-121747500D02*
G75*
G02*
X157075200Y-121747500I-304800J0D01*
G01*
D11*
%TO.C,C21*%
X96730000Y-54840000D02*
X97420000Y-54840000D01*
X102150000Y-54840000D02*
X101460000Y-54840000D01*
X101460000Y-56260000D02*
X97420000Y-56260000D01*
X97420000Y-53420000D01*
X101460000Y-53420000D01*
X101460000Y-56260000D01*
%TO.C,C24*%
X96730000Y-42390000D02*
X97420000Y-42390000D01*
X102150000Y-42390000D02*
X101460000Y-42390000D01*
X101460000Y-43810000D02*
X97420000Y-43810000D01*
X97420000Y-40970000D01*
X101460000Y-40970000D01*
X101460000Y-43810000D01*
%TO.C,C14*%
X138230000Y-49940000D02*
X138920000Y-49940000D01*
X143650000Y-49940000D02*
X142960000Y-49940000D01*
X142960000Y-51360000D02*
X138920000Y-51360000D01*
X138920000Y-48520000D01*
X142960000Y-48520000D01*
X142960000Y-51360000D01*
%TO.C,C17*%
X138230000Y-37740000D02*
X138920000Y-37740000D01*
X143650000Y-37740000D02*
X142960000Y-37740000D01*
X142960000Y-39160000D02*
X138920000Y-39160000D01*
X138920000Y-36320000D01*
X142960000Y-36320000D01*
X142960000Y-39160000D01*
D13*
%TO.C,J9*%
X233500000Y-95050000D02*
X248000000Y-95050000D01*
X233500000Y-96950000D02*
X233500000Y-95050000D01*
X233500000Y-103950000D02*
X233500000Y-102150000D01*
X248000000Y-95050000D02*
X248000000Y-103950000D01*
X248000000Y-103950000D02*
X233500000Y-103950000D01*
D14*
X232300000Y-99500000D02*
G75*
G02*
X232100000Y-99500000I-100000J0D01*
G01*
X232100000Y-99500000D02*
G75*
G02*
X232300000Y-99500000I100000J0D01*
G01*
D11*
%TO.C,C28*%
X53040000Y-47050000D02*
X53730000Y-47050000D01*
X58460000Y-47050000D02*
X57770000Y-47050000D01*
X57770000Y-48470000D02*
X53730000Y-48470000D01*
X53730000Y-45630000D01*
X57770000Y-45630000D01*
X57770000Y-48470000D01*
%TO.C,C36*%
X187150000Y-135250000D02*
X186460000Y-135250000D01*
X181730000Y-135250000D02*
X182420000Y-135250000D01*
X186460000Y-136670000D02*
X182420000Y-136670000D01*
X182420000Y-133830000D01*
X186460000Y-133830000D01*
X186460000Y-136670000D01*
%TO.C,C20*%
X96730000Y-58990000D02*
X97420000Y-58990000D01*
X102150000Y-58990000D02*
X101460000Y-58990000D01*
X101460000Y-60410000D02*
X97420000Y-60410000D01*
X97420000Y-57570000D01*
X101460000Y-57570000D01*
X101460000Y-60410000D01*
%TO.C,C38*%
X187150000Y-126950000D02*
X186460000Y-126950000D01*
X181730000Y-126950000D02*
X182420000Y-126950000D01*
X186460000Y-128370000D02*
X182420000Y-128370000D01*
X182420000Y-125530000D01*
X186460000Y-125530000D01*
X186460000Y-128370000D01*
%TO.C,C63*%
X56230000Y-119990000D02*
X56920000Y-119990000D01*
X61650000Y-119990000D02*
X60960000Y-119990000D01*
X60960000Y-121410000D02*
X56920000Y-121410000D01*
X56920000Y-118570000D01*
X60960000Y-118570000D01*
X60960000Y-121410000D01*
D12*
%TO.C,U5*%
X194698000Y-119640440D02*
X194698000Y-120361431D01*
X194698000Y-122038569D02*
X194698000Y-122901431D01*
X194698000Y-124578569D02*
X194698000Y-125441431D01*
X194698000Y-127118569D02*
X194698000Y-127981431D01*
X194698000Y-129658569D02*
X194698000Y-130521431D01*
X194698000Y-132198569D02*
X194698000Y-133061431D01*
X194698000Y-134738569D02*
X194698000Y-135601431D01*
X194698000Y-137392500D02*
X201302000Y-137392500D01*
X201302000Y-117707500D02*
X194971165Y-117707500D01*
X201302000Y-120361431D02*
X201302000Y-119498569D01*
X201302000Y-122901431D02*
X201302000Y-122038569D01*
X201302000Y-125441431D02*
X201302000Y-124578569D01*
X201302000Y-127981431D02*
X201302000Y-127118569D01*
X201302000Y-130521431D02*
X201302000Y-129658569D01*
X201302000Y-133061431D02*
X201302000Y-132198569D01*
X201302000Y-135601431D02*
X201302000Y-134738569D01*
X198304800Y-117707500D02*
G75*
G02*
X197695200Y-117707500I-304800J0D01*
G01*
D11*
%TO.C,C10*%
X138230000Y-66540000D02*
X138920000Y-66540000D01*
X143650000Y-66540000D02*
X142960000Y-66540000D01*
X142960000Y-67960000D02*
X138920000Y-67960000D01*
X138920000Y-65120000D01*
X142960000Y-65120000D01*
X142960000Y-67960000D01*
%TO.C,C55*%
X98730000Y-124490000D02*
X99420000Y-124490000D01*
X104150000Y-124490000D02*
X103460000Y-124490000D01*
X103460000Y-125910000D02*
X99420000Y-125910000D01*
X99420000Y-123070000D01*
X103460000Y-123070000D01*
X103460000Y-125910000D01*
%TO.C,C34*%
X187150000Y-143550000D02*
X186460000Y-143550000D01*
X181730000Y-143550000D02*
X182420000Y-143550000D01*
X186460000Y-144970000D02*
X182420000Y-144970000D01*
X182420000Y-142130000D01*
X186460000Y-142130000D01*
X186460000Y-144970000D01*
D13*
%TO.C,J6*%
X124190000Y-98200000D02*
X131990000Y-98200000D01*
X124190000Y-178200000D02*
X124190000Y-98200000D01*
X131990000Y-98200000D02*
X131990000Y-178200000D01*
X131990000Y-178200000D02*
X124190000Y-178200000D01*
D14*
X133090000Y-100700000D02*
G75*
G02*
X132890000Y-100700000I-100000J0D01*
G01*
X132890000Y-100700000D02*
G75*
G02*
X133090000Y-100700000I100000J0D01*
G01*
D11*
%TO.C,C35*%
X187150000Y-139400000D02*
X186460000Y-139400000D01*
X181730000Y-139400000D02*
X182420000Y-139400000D01*
X186460000Y-140820000D02*
X182420000Y-140820000D01*
X182420000Y-137980000D01*
X186460000Y-137980000D01*
X186460000Y-140820000D01*
%TO.C,C47*%
X141230000Y-128000000D02*
X141920000Y-128000000D01*
X146650000Y-128000000D02*
X145960000Y-128000000D01*
X145960000Y-129420000D02*
X141920000Y-129420000D01*
X141920000Y-126580000D01*
X145960000Y-126580000D01*
X145960000Y-129420000D01*
D12*
%TO.C,U3*%
X109698000Y-44220440D02*
X109698000Y-44941431D01*
X109698000Y-46618569D02*
X109698000Y-47481431D01*
X109698000Y-49158569D02*
X109698000Y-50021431D01*
X109698000Y-51698569D02*
X109698000Y-52561431D01*
X109698000Y-54238569D02*
X109698000Y-55101431D01*
X109698000Y-56778569D02*
X109698000Y-57641431D01*
X109698000Y-59318569D02*
X109698000Y-60181431D01*
X109698000Y-61972500D02*
X116302000Y-61972500D01*
X116302000Y-42287500D02*
X109971165Y-42287500D01*
X116302000Y-44941431D02*
X116302000Y-44078569D01*
X116302000Y-47481431D02*
X116302000Y-46618569D01*
X116302000Y-50021431D02*
X116302000Y-49158569D01*
X116302000Y-52561431D02*
X116302000Y-51698569D01*
X116302000Y-55101431D02*
X116302000Y-54238569D01*
X116302000Y-57641431D02*
X116302000Y-56778569D01*
X116302000Y-60181431D02*
X116302000Y-59318569D01*
X113304800Y-42287500D02*
G75*
G02*
X112695200Y-42287500I-304800J0D01*
G01*
D11*
%TO.C,C31*%
X53040000Y-34650000D02*
X53730000Y-34650000D01*
X58460000Y-34650000D02*
X57770000Y-34650000D01*
X57770000Y-36070000D02*
X53730000Y-36070000D01*
X53730000Y-33230000D01*
X57770000Y-33230000D01*
X57770000Y-36070000D01*
%TO.C,C18*%
X96730000Y-67290000D02*
X97420000Y-67290000D01*
X102150000Y-67290000D02*
X101460000Y-67290000D01*
X101460000Y-68710000D02*
X97420000Y-68710000D01*
X97420000Y-65870000D01*
X101460000Y-65870000D01*
X101460000Y-68710000D01*
D13*
%TO.C,J8*%
X36190000Y-98240000D02*
X43990000Y-98240000D01*
X36190000Y-178240000D02*
X36190000Y-98240000D01*
X43990000Y-98240000D02*
X43990000Y-178240000D01*
X43990000Y-178240000D02*
X36190000Y-178240000D01*
D14*
X45090000Y-100740000D02*
G75*
G02*
X44890000Y-100740000I-100000J0D01*
G01*
X44890000Y-100740000D02*
G75*
G02*
X45090000Y-100740000I100000J0D01*
G01*
D13*
%TO.C,J5*%
X174800000Y-177500000D02*
X167000000Y-177500000D01*
X174800000Y-97500000D02*
X174800000Y-177500000D01*
X167000000Y-177500000D02*
X167000000Y-97500000D01*
X167000000Y-97500000D02*
X174800000Y-97500000D01*
D14*
X175900000Y-100000000D02*
G75*
G02*
X175700000Y-100000000I-100000J0D01*
G01*
X175700000Y-100000000D02*
G75*
G02*
X175900000Y-100000000I100000J0D01*
G01*
D11*
%TO.C,C53*%
X98730000Y-132790000D02*
X99420000Y-132790000D01*
X104150000Y-132790000D02*
X103460000Y-132790000D01*
X103460000Y-134210000D02*
X99420000Y-134210000D01*
X99420000Y-131370000D01*
X103460000Y-131370000D01*
X103460000Y-134210000D01*
%TO.C,C46*%
X141230000Y-132150000D02*
X141920000Y-132150000D01*
X146650000Y-132150000D02*
X145960000Y-132150000D01*
X145960000Y-133570000D02*
X141920000Y-133570000D01*
X141920000Y-130730000D01*
X145960000Y-130730000D01*
X145960000Y-133570000D01*
%TO.C,C39*%
X187150000Y-122800000D02*
X186460000Y-122800000D01*
X181730000Y-122800000D02*
X182420000Y-122800000D01*
X186460000Y-124220000D02*
X182420000Y-124220000D01*
X182420000Y-121380000D01*
X186460000Y-121380000D01*
X186460000Y-124220000D01*
%TO.C,C65*%
X56230000Y-111690000D02*
X56920000Y-111690000D01*
X61650000Y-111690000D02*
X60960000Y-111690000D01*
X60960000Y-113110000D02*
X56920000Y-113110000D01*
X56920000Y-110270000D01*
X60960000Y-110270000D01*
X60960000Y-113110000D01*
%TO.C,ESP32*%
X210770000Y-110480000D02*
X210770000Y-72160000D01*
X213420000Y-107830000D02*
X213420000Y-110480000D01*
X213420000Y-110480000D02*
X210770000Y-110480000D01*
X216070000Y-72160000D02*
X210770000Y-72160000D01*
X216070000Y-107830000D02*
X213420000Y-107830000D01*
X216070000Y-107830000D02*
X216070000Y-72160000D01*
X216070000Y-109100000D02*
X216070000Y-110480000D01*
X216070000Y-110480000D02*
X214690000Y-110480000D01*
%TO.C,C22*%
X96730000Y-50690000D02*
X97420000Y-50690000D01*
X102150000Y-50690000D02*
X101460000Y-50690000D01*
X101460000Y-52110000D02*
X97420000Y-52110000D01*
X97420000Y-49270000D01*
X101460000Y-49270000D01*
X101460000Y-52110000D01*
%TO.C,C48*%
X141230000Y-123850000D02*
X141920000Y-123850000D01*
X146650000Y-123850000D02*
X145960000Y-123850000D01*
X145960000Y-125270000D02*
X141920000Y-125270000D01*
X141920000Y-122430000D01*
X145960000Y-122430000D01*
X145960000Y-125270000D01*
%TO.C,C56*%
X98730000Y-120340000D02*
X99420000Y-120340000D01*
X104150000Y-120340000D02*
X103460000Y-120340000D01*
X103460000Y-121760000D02*
X99420000Y-121760000D01*
X99420000Y-118920000D01*
X103460000Y-118920000D01*
X103460000Y-121760000D01*
%TO.C,C4*%
X182730000Y-62840000D02*
X183420000Y-62840000D01*
X188150000Y-62840000D02*
X187460000Y-62840000D01*
X187460000Y-64260000D02*
X183420000Y-64260000D01*
X183420000Y-61420000D01*
X187460000Y-61420000D01*
X187460000Y-64260000D01*
%TO.C,C19*%
X96730000Y-63140000D02*
X97420000Y-63140000D01*
X102150000Y-63140000D02*
X101460000Y-63140000D01*
X101460000Y-64560000D02*
X97420000Y-64560000D01*
X97420000Y-61720000D01*
X101460000Y-61720000D01*
X101460000Y-64560000D01*
%TO.C,C11*%
X138230000Y-62390000D02*
X138920000Y-62390000D01*
X143650000Y-62390000D02*
X142960000Y-62390000D01*
X142960000Y-63810000D02*
X138920000Y-63810000D01*
X138920000Y-60970000D01*
X142960000Y-60970000D01*
X142960000Y-63810000D01*
%TO.C,C51*%
X98730000Y-141090000D02*
X99420000Y-141090000D01*
X104150000Y-141090000D02*
X103460000Y-141090000D01*
X103460000Y-142510000D02*
X99420000Y-142510000D01*
X99420000Y-139670000D01*
X103460000Y-139670000D01*
X103460000Y-142510000D01*
D12*
%TO.C,U7*%
X111578000Y-122680440D02*
X111578000Y-123401431D01*
X111578000Y-125078569D02*
X111578000Y-125941431D01*
X111578000Y-127618569D02*
X111578000Y-128481431D01*
X111578000Y-130158569D02*
X111578000Y-131021431D01*
X111578000Y-132698569D02*
X111578000Y-133561431D01*
X111578000Y-135238569D02*
X111578000Y-136101431D01*
X111578000Y-137778569D02*
X111578000Y-138641431D01*
X111578000Y-140432500D02*
X118182000Y-140432500D01*
X118182000Y-120747500D02*
X111851165Y-120747500D01*
X118182000Y-123401431D02*
X118182000Y-122538569D01*
X118182000Y-125941431D02*
X118182000Y-125078569D01*
X118182000Y-128481431D02*
X118182000Y-127618569D01*
X118182000Y-131021431D02*
X118182000Y-130158569D01*
X118182000Y-133561431D02*
X118182000Y-132698569D01*
X118182000Y-136101431D02*
X118182000Y-135238569D01*
X118182000Y-138641431D02*
X118182000Y-137778569D01*
X115184800Y-120747500D02*
G75*
G02*
X114575200Y-120747500I-304800J0D01*
G01*
D11*
%TO.C,C12*%
X138230000Y-58240000D02*
X138920000Y-58240000D01*
X143650000Y-58240000D02*
X142960000Y-58240000D01*
X142960000Y-59660000D02*
X138920000Y-59660000D01*
X138920000Y-56820000D01*
X142960000Y-56820000D01*
X142960000Y-59660000D01*
%TO.C,C58*%
X56230000Y-140740000D02*
X56920000Y-140740000D01*
X61650000Y-140740000D02*
X60960000Y-140740000D01*
X60960000Y-142160000D02*
X56920000Y-142160000D01*
X56920000Y-139320000D01*
X60960000Y-139320000D01*
X60960000Y-142160000D01*
%TO.C,C1*%
X240690000Y-50030000D02*
X240690000Y-50720000D01*
X240690000Y-55450000D02*
X240690000Y-54760000D01*
X242110000Y-50720000D02*
X239270000Y-50720000D01*
X239270000Y-54760000D01*
X242110000Y-54760000D01*
X242110000Y-50720000D01*
D12*
%TO.C,U4*%
X68888000Y-32330440D02*
X68888000Y-33051431D01*
X68888000Y-34728569D02*
X68888000Y-35591431D01*
X68888000Y-37268569D02*
X68888000Y-38131431D01*
X68888000Y-39808569D02*
X68888000Y-40671431D01*
X68888000Y-42348569D02*
X68888000Y-43211431D01*
X68888000Y-44888569D02*
X68888000Y-45751431D01*
X68888000Y-47428569D02*
X68888000Y-48291431D01*
X68888000Y-50082500D02*
X75492000Y-50082500D01*
X75492000Y-30397500D02*
X69161165Y-30397500D01*
X75492000Y-33051431D02*
X75492000Y-32188569D01*
X75492000Y-35591431D02*
X75492000Y-34728569D01*
X75492000Y-38131431D02*
X75492000Y-37268569D01*
X75492000Y-40671431D02*
X75492000Y-39808569D01*
X75492000Y-43211431D02*
X75492000Y-42348569D01*
X75492000Y-45751431D02*
X75492000Y-44888569D01*
X75492000Y-48291431D02*
X75492000Y-47428569D01*
X72494800Y-30397500D02*
G75*
G02*
X71885200Y-30397500I-304800J0D01*
G01*
D11*
%TO.C,C25*%
X96730000Y-38240000D02*
X97420000Y-38240000D01*
X102150000Y-38240000D02*
X101460000Y-38240000D01*
X101460000Y-39660000D02*
X97420000Y-39660000D01*
X97420000Y-36820000D01*
X101460000Y-36820000D01*
X101460000Y-39660000D01*
%TO.C,C8*%
X182730000Y-46240000D02*
X183420000Y-46240000D01*
X188150000Y-46240000D02*
X187460000Y-46240000D01*
X187460000Y-47660000D02*
X183420000Y-47660000D01*
X183420000Y-44820000D01*
X187460000Y-44820000D01*
X187460000Y-47660000D01*
D13*
%TO.C,J7*%
X81690000Y-99240000D02*
X89490000Y-99240000D01*
X81690000Y-179240000D02*
X81690000Y-99240000D01*
X89490000Y-99240000D02*
X89490000Y-179240000D01*
X89490000Y-179240000D02*
X81690000Y-179240000D01*
D14*
X90590000Y-101740000D02*
G75*
G02*
X90390000Y-101740000I-100000J0D01*
G01*
X90390000Y-101740000D02*
G75*
G02*
X90590000Y-101740000I100000J0D01*
G01*
D11*
%TO.C,C30*%
X53040000Y-38800000D02*
X53730000Y-38800000D01*
X58460000Y-38800000D02*
X57770000Y-38800000D01*
X57770000Y-40220000D02*
X53730000Y-40220000D01*
X53730000Y-37380000D01*
X57770000Y-37380000D01*
X57770000Y-40220000D01*
D13*
%TO.C,J4*%
X36500000Y-15350000D02*
X44300000Y-15350000D01*
X36500000Y-95350000D02*
X36500000Y-15350000D01*
X44300000Y-15350000D02*
X44300000Y-95350000D01*
X44300000Y-95350000D02*
X36500000Y-95350000D01*
D14*
X45400000Y-17850000D02*
G75*
G02*
X45200000Y-17850000I-100000J0D01*
G01*
X45200000Y-17850000D02*
G75*
G02*
X45400000Y-17850000I100000J0D01*
G01*
D11*
%TO.C,C42*%
X141230000Y-148700000D02*
X141920000Y-148700000D01*
X146650000Y-148700000D02*
X145960000Y-148700000D01*
X145960000Y-150120000D02*
X141920000Y-150120000D01*
X141920000Y-147280000D01*
X145960000Y-147280000D01*
X145960000Y-150120000D01*
%TO.C,C49*%
X141230000Y-119700000D02*
X141920000Y-119700000D01*
X146650000Y-119700000D02*
X145960000Y-119700000D01*
X145960000Y-121120000D02*
X141920000Y-121120000D01*
X141920000Y-118280000D01*
X145960000Y-118280000D01*
X145960000Y-121120000D01*
%TO.C,C29*%
X53040000Y-42950000D02*
X53730000Y-42950000D01*
X58460000Y-42950000D02*
X57770000Y-42950000D01*
X57770000Y-44370000D02*
X53730000Y-44370000D01*
X53730000Y-41530000D01*
X57770000Y-41530000D01*
X57770000Y-44370000D01*
%TO.C,C7*%
X182730000Y-50390000D02*
X183420000Y-50390000D01*
X188150000Y-50390000D02*
X187460000Y-50390000D01*
X187460000Y-51810000D02*
X183420000Y-51810000D01*
X183420000Y-48970000D01*
X187460000Y-48970000D01*
X187460000Y-51810000D01*
%TO.C,C43*%
X141230000Y-144600000D02*
X141920000Y-144600000D01*
X146650000Y-144600000D02*
X145960000Y-144600000D01*
X145960000Y-146020000D02*
X141920000Y-146020000D01*
X141920000Y-143180000D01*
X145960000Y-143180000D01*
X145960000Y-146020000D01*
%TO.C,C50*%
X98730000Y-145240000D02*
X99420000Y-145240000D01*
X104150000Y-145240000D02*
X103460000Y-145240000D01*
X103460000Y-146660000D02*
X99420000Y-146660000D01*
X99420000Y-143820000D01*
X103460000Y-143820000D01*
X103460000Y-146660000D01*
%TO.C,C33*%
X53040000Y-26350000D02*
X53730000Y-26350000D01*
X58460000Y-26350000D02*
X57770000Y-26350000D01*
X57770000Y-27770000D02*
X53730000Y-27770000D01*
X53730000Y-24930000D01*
X57770000Y-24930000D01*
X57770000Y-27770000D01*
%TO.C,C9*%
X182730000Y-42090000D02*
X183420000Y-42090000D01*
X188150000Y-42090000D02*
X187460000Y-42090000D01*
X187460000Y-43510000D02*
X183420000Y-43510000D01*
X183420000Y-40670000D01*
X187460000Y-40670000D01*
X187460000Y-43510000D01*
%TO.C,C15*%
X138230000Y-46040000D02*
X138920000Y-46040000D01*
X143650000Y-46040000D02*
X142960000Y-46040000D01*
X142960000Y-47460000D02*
X138920000Y-47460000D01*
X138920000Y-44620000D01*
X142960000Y-44620000D01*
X142960000Y-47460000D01*
%TO.C,C32*%
X53040000Y-30500000D02*
X53730000Y-30500000D01*
X58460000Y-30500000D02*
X57770000Y-30500000D01*
X57770000Y-31920000D02*
X53730000Y-31920000D01*
X53730000Y-29080000D01*
X57770000Y-29080000D01*
X57770000Y-31920000D01*
%TO.C,DLP_RFID2*%
X228770000Y-50780000D02*
X230150000Y-50780000D01*
X228770000Y-52160000D02*
X228770000Y-50780000D01*
X228770000Y-53430000D02*
X228770000Y-68780000D01*
X228770000Y-53430000D02*
X231420000Y-53430000D01*
X228770000Y-68780000D02*
X234070000Y-68780000D01*
X231420000Y-50780000D02*
X234070000Y-50780000D01*
X231420000Y-53430000D02*
X231420000Y-50780000D01*
X234070000Y-50780000D02*
X234070000Y-68780000D01*
%TO.C,C37*%
X187150000Y-131100000D02*
X186460000Y-131100000D01*
X181730000Y-131100000D02*
X182420000Y-131100000D01*
X186460000Y-132520000D02*
X182420000Y-132520000D01*
X182420000Y-129680000D01*
X186460000Y-129680000D01*
X186460000Y-132520000D01*
%TO.C,C52*%
X98730000Y-136940000D02*
X99420000Y-136940000D01*
X104150000Y-136940000D02*
X103460000Y-136940000D01*
X103460000Y-138360000D02*
X99420000Y-138360000D01*
X99420000Y-135520000D01*
X103460000Y-135520000D01*
X103460000Y-138360000D01*
%TO.C,C5*%
X182730000Y-58690000D02*
X183420000Y-58690000D01*
X188150000Y-58690000D02*
X187460000Y-58690000D01*
X187460000Y-60110000D02*
X183420000Y-60110000D01*
X183420000Y-57270000D01*
X187460000Y-57270000D01*
X187460000Y-60110000D01*
D13*
%TO.C,J3*%
X81690000Y-13740000D02*
X89490000Y-13740000D01*
X81690000Y-93740000D02*
X81690000Y-13740000D01*
X89490000Y-13740000D02*
X89490000Y-93740000D01*
X89490000Y-93740000D02*
X81690000Y-93740000D01*
D14*
X90590000Y-16240000D02*
G75*
G02*
X90390000Y-16240000I-100000J0D01*
G01*
X90390000Y-16240000D02*
G75*
G02*
X90590000Y-16240000I100000J0D01*
G01*
D11*
%TO.C,C13*%
X138230000Y-54090000D02*
X138920000Y-54090000D01*
X143650000Y-54090000D02*
X142960000Y-54090000D01*
X142960000Y-55510000D02*
X138920000Y-55510000D01*
X138920000Y-52670000D01*
X142960000Y-52670000D01*
X142960000Y-55510000D01*
D12*
%TO.C,U8*%
X69388000Y-119830440D02*
X69388000Y-120551431D01*
X69388000Y-122228569D02*
X69388000Y-123091431D01*
X69388000Y-124768569D02*
X69388000Y-125631431D01*
X69388000Y-127308569D02*
X69388000Y-128171431D01*
X69388000Y-129848569D02*
X69388000Y-130711431D01*
X69388000Y-132388569D02*
X69388000Y-133251431D01*
X69388000Y-134928569D02*
X69388000Y-135791431D01*
X69388000Y-137582500D02*
X75992000Y-137582500D01*
X75992000Y-117897500D02*
X69661165Y-117897500D01*
X75992000Y-120551431D02*
X75992000Y-119688569D01*
X75992000Y-123091431D02*
X75992000Y-122228569D01*
X75992000Y-125631431D02*
X75992000Y-124768569D01*
X75992000Y-128171431D02*
X75992000Y-127308569D01*
X75992000Y-130711431D02*
X75992000Y-129848569D01*
X75992000Y-133251431D02*
X75992000Y-132388569D01*
X75992000Y-135791431D02*
X75992000Y-134928569D01*
X72994800Y-117897500D02*
G75*
G02*
X72385200Y-117897500I-304800J0D01*
G01*
D11*
%TO.C,C3*%
X182730000Y-66990000D02*
X183420000Y-66990000D01*
X188150000Y-66990000D02*
X187460000Y-66990000D01*
X187460000Y-68410000D02*
X183420000Y-68410000D01*
X183420000Y-65570000D01*
X187460000Y-65570000D01*
X187460000Y-68410000D01*
%TD*%
M02*
