M48
; DRILL file {KiCad 9.0.4} date 2025-10-01T15:50:27-0500
; FORMAT={-:-/ absolute / metric / decimal}
; #@! TF.CreationDate,2025-10-01T15:50:27-05:00
; #@! TF.GenerationSoftware,Kicad,Pcbnew,9.0.4
; #@! TF.FileFunction,Plated,1,4,PTH
FMAT,2
METRIC
; #@! TA.AperFunction,Plated,PTH,ViaDrill
T1C0.300
; #@! TA.AperFunction,Plated,PTH,ComponentDrill
T2C0.787
; #@! TA.AperFunction,Plated,PTH,ComponentDrill
T3C0.800
; #@! TA.AperFunction,Plated,PTH,ComponentDrill
T4C1.000
; #@! TA.AperFunction,Plated,PTH,ComponentDrill
T5C1.100
; #@! TA.AperFunction,Plated,PTH,ComponentDrill
T6C1.400
%
G90
G05
T1
X47.302Y-137.947
X72.146Y-119.098
X77.124Y-99.238
X84.444Y-73.805
X105.826Y-134.239
X106.692Y-45.529
X106.848Y-53.828
X114.674Y-61.746
X130.804Y-87.328
X136.768Y-146.88
X151.04Y-133.594
X154.661Y-63.694
X154.687Y-119.471
X169.572Y-78.837
X172.056Y-59.615
X201.244Y-59.646
X202.376Y-93.283
X205.359Y-80.472
X226.234Y-84.35
T2
X68.38Y-31.35
X68.38Y-33.89
X68.38Y-36.43
X68.38Y-38.97
X68.38Y-41.51
X68.38Y-44.05
X68.38Y-46.59
X68.38Y-49.13
X68.88Y-118.85
X68.88Y-121.39
X68.88Y-123.93
X68.88Y-126.47
X68.88Y-129.01
X68.88Y-131.55
X68.88Y-134.09
X68.88Y-136.63
X76.0Y-31.35
X76.0Y-33.89
X76.0Y-36.43
X76.0Y-38.97
X76.0Y-41.51
X76.0Y-44.05
X76.0Y-46.59
X76.0Y-49.13
X76.5Y-118.85
X76.5Y-121.39
X76.5Y-123.93
X76.5Y-126.47
X76.5Y-129.01
X76.5Y-131.55
X76.5Y-134.09
X76.5Y-136.63
X109.19Y-43.24
X109.19Y-45.78
X109.19Y-48.32
X109.19Y-50.86
X109.19Y-53.4
X109.19Y-55.94
X109.19Y-58.48
X109.19Y-61.02
X111.07Y-121.7
X111.07Y-124.24
X111.07Y-126.78
X111.07Y-129.32
X111.07Y-131.86
X111.07Y-134.4
X111.07Y-136.94
X111.07Y-139.48
X116.81Y-43.24
X116.81Y-45.78
X116.81Y-48.32
X116.81Y-50.86
X116.81Y-53.4
X116.81Y-55.94
X116.81Y-58.48
X116.81Y-61.02
X118.69Y-121.7
X118.69Y-124.24
X118.69Y-126.78
X118.69Y-129.32
X118.69Y-131.86
X118.69Y-134.4
X118.69Y-136.94
X118.69Y-139.48
X151.07Y-43.54
X151.07Y-46.08
X151.07Y-48.62
X151.07Y-51.16
X151.07Y-53.7
X151.07Y-56.24
X151.07Y-58.78
X151.07Y-61.32
X153.57Y-122.7
X153.57Y-125.24
X153.57Y-127.78
X153.57Y-130.32
X153.57Y-132.86
X153.57Y-135.4
X153.57Y-137.94
X153.57Y-140.48
X158.69Y-43.54
X158.69Y-46.08
X158.69Y-48.62
X158.69Y-51.16
X158.69Y-53.7
X158.69Y-56.24
X158.69Y-58.78
X158.69Y-61.32
X161.19Y-122.7
X161.19Y-125.24
X161.19Y-127.78
X161.19Y-130.32
X161.19Y-132.86
X161.19Y-135.4
X161.19Y-137.94
X161.19Y-140.48
X194.19Y-118.66
X194.19Y-121.2
X194.19Y-123.74
X194.19Y-126.28
X194.19Y-128.82
X194.19Y-131.36
X194.19Y-133.9
X194.19Y-136.44
X195.07Y-46.7
X195.07Y-49.24
X195.07Y-51.78
X195.07Y-54.32
X195.07Y-56.86
X195.07Y-59.4
X195.07Y-61.94
X195.07Y-64.48
X201.81Y-118.66
X201.81Y-121.2
X201.81Y-123.74
X201.81Y-126.28
X201.81Y-128.82
X201.81Y-131.36
X201.81Y-133.9
X201.81Y-136.44
X202.69Y-46.7
X202.69Y-49.24
X202.69Y-51.78
X202.69Y-54.32
X202.69Y-56.86
X202.69Y-59.4
X202.69Y-61.94
X202.69Y-64.48
T3
X52.0Y-26.35
X52.0Y-30.5
X52.0Y-34.65
X52.0Y-38.8
X52.0Y-42.95
X52.0Y-47.05
X52.0Y-51.2
X52.0Y-55.35
X55.19Y-111.69
X55.19Y-115.84
X55.19Y-119.99
X55.19Y-124.14
X55.19Y-128.29
X55.19Y-132.44
X55.19Y-136.59
X55.19Y-140.74
X59.5Y-26.35
X59.5Y-30.5
X59.5Y-34.65
X59.5Y-38.8
X59.5Y-42.95
X59.5Y-47.05
X59.5Y-51.2
X59.5Y-55.35
X62.69Y-111.69
X62.69Y-115.84
X62.69Y-119.99
X62.69Y-124.14
X62.69Y-128.29
X62.69Y-132.44
X62.69Y-136.59
X62.69Y-140.74
X95.69Y-38.24
X95.69Y-42.39
X95.69Y-46.54
X95.69Y-50.69
X95.69Y-54.84
X95.69Y-58.99
X95.69Y-63.14
X95.69Y-67.29
X97.69Y-115.84
X97.69Y-120.34
X97.69Y-124.49
X97.69Y-128.64
X97.69Y-132.79
X97.69Y-136.94
X97.69Y-141.09
X97.69Y-145.24
X103.19Y-38.24
X103.19Y-42.39
X103.19Y-46.54
X103.19Y-50.69
X103.19Y-54.84
X103.19Y-58.99
X103.19Y-63.14
X103.19Y-67.29
X105.19Y-115.84
X105.19Y-120.34
X105.19Y-124.49
X105.19Y-128.64
X105.19Y-132.79
X105.19Y-136.94
X105.19Y-141.09
X105.19Y-145.24
X137.19Y-37.74
X137.19Y-41.89
X137.19Y-46.04
X137.19Y-49.94
X137.19Y-54.09
X137.19Y-58.24
X137.19Y-62.39
X137.19Y-66.54
X140.19Y-119.7
X140.19Y-123.85
X140.19Y-128.0
X140.19Y-132.15
X140.19Y-136.3
X140.19Y-140.45
X140.19Y-144.6
X140.19Y-148.7
X144.69Y-37.74
X144.69Y-41.89
X144.69Y-46.04
X144.69Y-49.94
X144.69Y-54.09
X144.69Y-58.24
X144.69Y-62.39
X144.69Y-66.54
X147.69Y-119.7
X147.69Y-123.85
X147.69Y-128.0
X147.69Y-132.15
X147.69Y-136.3
X147.69Y-140.45
X147.69Y-144.6
X147.69Y-148.7
X180.69Y-114.5
X180.69Y-118.65
X180.69Y-122.8
X180.69Y-126.95
X180.69Y-131.1
X180.69Y-135.25
X180.69Y-139.4
X180.69Y-143.55
X181.69Y-42.09
X181.69Y-46.24
X181.69Y-50.39
X181.69Y-54.54
X181.69Y-58.69
X181.69Y-62.84
X181.69Y-66.99
X181.69Y-71.14
X188.19Y-114.5
X188.19Y-118.65
X188.19Y-122.8
X188.19Y-126.95
X188.19Y-131.1
X188.19Y-135.25
X188.19Y-139.4
X188.19Y-143.55
X189.19Y-42.09
X189.19Y-46.24
X189.19Y-50.39
X189.19Y-54.54
X189.19Y-58.69
X189.19Y-62.84
X189.19Y-66.99
X189.19Y-71.14
X240.69Y-48.99
X240.69Y-56.49
T4
X212.15Y-73.54
X212.15Y-76.08
X212.15Y-78.62
X212.15Y-81.16
X212.15Y-83.7
X212.15Y-86.24
X212.15Y-88.78
X212.15Y-91.32
X212.15Y-93.86
X212.15Y-96.4
X212.15Y-98.94
X212.15Y-101.48
X212.15Y-104.02
X212.15Y-106.56
X212.15Y-109.1
X214.69Y-73.54
X214.69Y-76.08
X214.69Y-78.62
X214.69Y-81.16
X214.69Y-83.7
X214.69Y-86.24
X214.69Y-88.78
X214.69Y-91.32
X214.69Y-93.86
X214.69Y-96.4
X214.69Y-98.94
X214.69Y-101.48
X214.69Y-104.02
X214.69Y-106.56
X214.69Y-109.1
X230.15Y-52.16
X230.15Y-54.7
X230.15Y-57.24
X230.15Y-59.78
X230.15Y-62.32
X230.15Y-64.86
X230.15Y-67.4
X232.69Y-52.16
X232.69Y-54.7
X232.69Y-57.24
X232.69Y-59.78
X232.69Y-62.32
X232.69Y-64.86
X232.69Y-67.4
T6
X40.19Y-100.74
X40.19Y-105.74
X40.19Y-110.74
X40.19Y-115.74
X40.19Y-120.74
X40.19Y-125.74
X40.19Y-130.74
X40.19Y-135.74
X40.19Y-140.74
X40.19Y-145.74
X40.19Y-150.74
X40.19Y-155.74
X40.19Y-160.74
X40.19Y-165.74
X40.19Y-170.74
X40.19Y-175.74
X40.5Y-17.85
X40.5Y-22.85
X40.5Y-27.85
X40.5Y-32.85
X40.5Y-37.85
X40.5Y-42.85
X40.5Y-47.85
X40.5Y-52.85
X40.5Y-57.85
X40.5Y-62.85
X40.5Y-67.85
X40.5Y-72.85
X40.5Y-77.85
X40.5Y-82.85
X40.5Y-87.85
X40.5Y-92.85
X85.69Y-16.24
X85.69Y-21.24
X85.69Y-26.24
X85.69Y-31.24
X85.69Y-36.24
X85.69Y-41.24
X85.69Y-46.24
X85.69Y-51.24
X85.69Y-56.24
X85.69Y-61.24
X85.69Y-66.24
X85.69Y-71.24
X85.69Y-76.24
X85.69Y-81.24
X85.69Y-86.24
X85.69Y-91.24
X85.69Y-101.74
X85.69Y-106.74
X85.69Y-111.74
X85.69Y-116.74
X85.69Y-121.74
X85.69Y-126.74
X85.69Y-131.74
X85.69Y-136.74
X85.69Y-141.74
X85.69Y-146.74
X85.69Y-151.74
X85.69Y-156.74
X85.69Y-161.74
X85.69Y-166.74
X85.69Y-171.74
X85.69Y-176.74
X127.69Y-15.24
X127.69Y-20.24
X127.69Y-25.24
X127.69Y-30.24
X127.69Y-35.24
X127.69Y-40.24
X127.69Y-45.24
X127.69Y-50.24
X127.69Y-55.24
X127.69Y-60.24
X127.69Y-65.24
X127.69Y-70.24
X127.69Y-75.24
X127.69Y-80.24
X127.69Y-85.24
X127.69Y-90.24
X128.19Y-100.7
X128.19Y-105.7
X128.19Y-110.7
X128.19Y-115.7
X128.19Y-120.7
X128.19Y-125.7
X128.19Y-130.7
X128.19Y-135.7
X128.19Y-140.7
X128.19Y-145.7
X128.19Y-150.7
X128.19Y-155.7
X128.19Y-160.7
X128.19Y-165.7
X128.19Y-170.7
X128.19Y-175.7
X170.19Y-16.74
X170.19Y-21.74
X170.19Y-26.74
X170.19Y-31.74
X170.19Y-36.74
X170.19Y-41.74
X170.19Y-46.74
X170.19Y-51.74
X170.19Y-56.74
X170.19Y-61.74
X170.19Y-66.74
X170.19Y-71.74
X170.19Y-76.74
X170.19Y-81.74
X170.19Y-86.74
X170.19Y-91.74
X171.0Y-100.0
X171.0Y-105.0
X171.0Y-110.0
X171.0Y-115.0
X171.0Y-120.0
X171.0Y-125.0
X171.0Y-130.0
X171.0Y-135.0
X171.0Y-140.0
X171.0Y-145.0
X171.0Y-150.0
X171.0Y-155.0
X171.0Y-160.0
X171.0Y-165.0
X171.0Y-170.0
X171.0Y-175.0
T5
G00X234.2Y-98.45
M15
G01X234.2Y-100.55
M16
G05
G00X240.5Y-98.45
M15
G01X240.5Y-100.55
M16
G05
M30
